<svg xmlns="http://www.w3.org/2000/svg" xmlns:xlink="http://www.w3.org/1999/xlink" width="1920" zoomAndPan="magnify" viewBox="0 0 1440 809.999993" height="1080" preserveAspectRatio="xMidYMid meet" version="1.0"><defs><g/><clipPath id="99ef5976d8"><path d="M 0 260.863281 L 288.277344 260.863281 L 288.277344 549.136719 L 0 549.136719 Z M 0 260.863281 " clip-rule="nonzero"/></clipPath><clipPath id="bf59af2fe9"><path d="M 144.136719 260.863281 C 64.53125 260.863281 0 325.394531 0 405 C 0 484.605469 64.53125 549.136719 144.136719 549.136719 C 223.742188 549.136719 288.277344 484.605469 288.277344 405 C 288.277344 325.394531 223.742188 260.863281 144.136719 260.863281 Z M 144.136719 260.863281 " clip-rule="nonzero"/></clipPath><clipPath id="ab28767c1a"><path d="M 0.554688 301.84375 L 290.054688 301.84375 L 290.054688 493 L 0.554688 493 Z M 0.554688 301.84375 " clip-rule="nonzero"/></clipPath></defs><g clip-path="url(#99ef5976d8)"><g clip-path="url(#bf59af2fe9)"><path fill="#ffffff" d="M 0 260.863281 L 288.277344 260.863281 L 288.277344 549.136719 L 0 549.136719 Z M 0 260.863281 " fill-opacity="1" fill-rule="nonzero"/></g></g><g clip-path="url(#ab28767c1a)"><path fill="#5e17eb" d="M -2.652344 300.410156 C -2.730469 299.988281 -2.265625 299.675781 -1.902344 299.902344 C 3.964844 303.558594 37.140625 323.21875 80.675781 328.855469 C 127.46875 334.910156 118.722656 357.480469 156.976562 375.480469 C 158.976562 376.421875 161.230469 376.664062 163.378906 376.164062 C 173.097656 373.902344 202.964844 367.855469 222.097656 373.890625 C 240.414062 379.667969 234.441406 390.023438 231.160156 393.597656 C 230.597656 394.210938 230.328125 395.035156 230.402344 395.863281 C 230.648438 398.585938 230.945312 404.527344 229.113281 406.25 C 228.933594 406.417969 228.636719 406.304688 228.597656 406.0625 C 228.257812 404.082031 226.816406 396.914062 223.777344 396.136719 C 220.246094 395.238281 202.171875 404.175781 202.171875 404.175781 C 202.171875 404.175781 258.355469 413.96875 287.460938 429.65625 C 316.324219 445.210938 330.027344 468.003906 368.984375 483.382812 C 369.304688 483.507812 369.28125 483.972656 368.941406 484.058594 C 365.824219 484.851562 356.023438 486.722656 344.695312 482.597656 L 351.425781 489.539062 C 351.800781 489.929688 351.507812 490.582031 350.964844 490.554688 C 346.925781 490.339844 334.628906 488.933594 314.46875 480.167969 L 324.628906 490.894531 C 324.941406 491.226562 324.621094 491.761719 324.183594 491.636719 C 314.871094 489.070312 265.726562 475.144531 231.996094 458.410156 C 202.917969 443.992188 172.300781 440.996094 160.105469 440.375 C 156.472656 440.191406 152.863281 441.066406 149.71875 442.894531 C 139.929688 448.578125 118.21875 462.992188 109.949219 483.085938 C 109.867188 483.289062 109.785156 483.488281 109.707031 483.691406 C 99.15625 510.34375 94.214844 467.710938 94.214844 467.710938 C 94.214844 467.710938 69.769531 478.035156 76.054688 456.316406 C 76.054688 456.316406 51.289062 459.035156 62.847656 443.171875 C 62.847656 443.171875 25.914062 451.210938 30.5 441.570312 C 30.671875 441.203125 30.890625 440.792969 31.210938 440.382812 C 40.957031 428.003906 93.15625 416.699219 107.390625 413.808594 C 108.996094 413.484375 109.621094 411.523438 108.503906 410.332031 C 101.644531 403.03125 80.265625 382.433594 40.570312 362.273438 C 4.488281 343.945312 -0.664062 331.226562 -1.390625 327.734375 C -1.492188 327.257812 -1.09375 326.824219 -0.609375 326.890625 L 11.542969 328.550781 C 11.542969 328.550781 -5.878906 319.160156 -9.632812 310.355469 C -9.78125 310.015625 -9.476562 309.65625 -9.117188 309.75 L 3.480469 312.957031 C 3.480469 312.957031 -1.308594 307.640625 -2.652344 300.410156 " fill-opacity="1" fill-rule="nonzero"/></g><g fill="#ffffff" fill-opacity="1"><g transform="translate(321.517489, 473.726833)"><g><path d="M 134.429688 -42.695312 C 121.445312 -38.078125 110.484375 -34.90625 101.253906 -34.90625 C 84.8125 -34.90625 75.867188 -44.714844 75.867188 -63.464844 L 75.867188 -119.714844 L 134.714844 -119.714844 L 134.714844 -158.660156 L 75.867188 -158.660156 L 75.867188 -201.929688 L 34.617188 -192.988281 L 34.617188 -158.660156 L 6.347656 -158.660156 L 6.347656 -119.714844 L 34.617188 -119.714844 L 34.617188 -61.15625 C 34.617188 -15.578125 62.308594 3.460938 94.042969 3.460938 C 113.082031 3.460938 132.699219 -3.460938 141.351562 -9.230469 Z M 134.429688 -42.695312 "/></g></g></g><g fill="#ffffff" fill-opacity="1"><g transform="translate(464.599437, 473.726833)"><g><path d="M 95.195312 -162.121094 C 49.617188 -162.121094 12.691406 -127.214844 12.691406 -79.328125 C 12.691406 -31.730469 49.039062 3.460938 95.195312 3.460938 C 141.640625 3.460938 177.988281 -31.445312 177.988281 -79.328125 C 177.988281 -127.214844 141.0625 -162.121094 95.195312 -162.121094 Z M 95.195312 -122.890625 C 118.273438 -122.890625 136.160156 -105.292969 136.160156 -79.328125 C 136.160156 -53.078125 118.273438 -35.769531 95.195312 -35.769531 C 72.117188 -35.769531 54.234375 -53.078125 54.234375 -79.328125 C 54.234375 -105.292969 72.117188 -122.890625 95.195312 -122.890625 Z M 95.195312 -122.890625 "/></g></g></g><g fill="#ffffff" fill-opacity="1"><g transform="translate(646.336638, 473.726833)"><g><path d="M 95.195312 -162.121094 C 49.617188 -162.121094 12.691406 -127.214844 12.691406 -79.328125 C 12.691406 -31.730469 49.039062 3.460938 95.195312 3.460938 C 141.640625 3.460938 177.988281 -31.445312 177.988281 -79.328125 C 177.988281 -127.214844 141.0625 -162.121094 95.195312 -162.121094 Z M 95.195312 -122.890625 C 118.273438 -122.890625 136.160156 -105.292969 136.160156 -79.328125 C 136.160156 -53.078125 118.273438 -35.769531 95.195312 -35.769531 C 72.117188 -35.769531 54.234375 -53.078125 54.234375 -79.328125 C 54.234375 -105.292969 72.117188 -122.890625 95.195312 -122.890625 Z M 95.195312 -122.890625 "/></g></g></g><g fill="#ffffff" fill-opacity="1"><g transform="translate(828.073839, 473.726833)"><g><path d="M 16.730469 0 L 57.984375 0 L 57.984375 -222.125 L 16.730469 -222.125 Z M 16.730469 0 "/></g></g></g><g fill="#ffffff" fill-opacity="1"><g transform="translate(893.84532, 473.726833)"><g><path d="M 107.890625 -162.121094 C 85.675781 -162.121094 68.65625 -151.738281 57.695312 -136.449219 L 57.695312 -222.125 L 16.441406 -222.125 L 16.441406 0 L 57.695312 0 L 57.695312 -21.347656 C 68.945312 -6.347656 85.386719 3.460938 107.890625 3.460938 C 149.140625 3.460938 180.296875 -30.578125 180.296875 -79.328125 C 180.296875 -128.371094 148.5625 -162.121094 107.890625 -162.121094 Z M 98.367188 -35.769531 C 75.292969 -35.769531 57.695312 -53.078125 57.695312 -79.328125 C 57.695312 -105.292969 75.292969 -122.890625 98.367188 -122.890625 C 121.445312 -122.890625 138.46875 -105.292969 138.46875 -79.328125 C 138.46875 -53.078125 121.160156 -35.769531 98.367188 -35.769531 Z M 98.367188 -35.769531 "/></g></g></g><g fill="#ffffff" fill-opacity="1"><g transform="translate(1077.890293, 473.726833)"><g><path d="M 37.214844 -231.933594 C 22.789062 -231.933594 11.539062 -221.835938 11.539062 -207.699219 C 11.539062 -193.566406 22.789062 -183.179688 37.214844 -183.179688 C 52.214844 -183.179688 62.886719 -193.566406 62.886719 -207.699219 C 62.886719 -221.835938 52.214844 -231.933594 37.214844 -231.933594 Z M 16.441406 0 L 57.695312 0 L 57.695312 -158.660156 L 16.441406 -158.660156 Z M 16.441406 0 "/></g></g></g><g fill="#ffffff" fill-opacity="1"><g transform="translate(1143.661821, 473.726833)"><g><path d="M 107.3125 -162.121094 C 84.8125 -162.121094 67.503906 -151.738281 57.695312 -130.964844 L 57.695312 -158.660156 L 16.441406 -158.660156 L 16.441406 0 L 57.695312 0 L 57.695312 -70.675781 C 57.695312 -108.175781 80.195312 -119.714844 106.445312 -119.714844 C 111.0625 -119.714844 113.371094 -119.425781 116.542969 -119.140625 L 116.542969 -161.542969 C 113.945312 -161.832031 111.0625 -162.121094 107.3125 -162.121094 Z M 107.3125 -162.121094 "/></g></g></g><g fill="#ffffff" fill-opacity="1"><g transform="translate(1257.608074, 473.726833)"><g><path d="M 137.3125 -222.125 L 137.3125 -136.449219 C 126.351562 -151.738281 109.621094 -162.121094 87.117188 -162.121094 C 46.445312 -162.121094 15 -128.371094 15 -79.328125 C 15 -30.578125 46.15625 3.460938 87.40625 3.460938 C 109.621094 3.460938 126.351562 -6.347656 137.3125 -21.347656 L 137.3125 0 L 178.566406 0 L 178.566406 -222.125 Z M 96.636719 -35.769531 C 73.847656 -35.769531 56.539062 -53.078125 56.539062 -79.328125 C 56.539062 -105.292969 73.558594 -122.890625 96.636719 -122.890625 C 119.714844 -122.890625 137.3125 -105.292969 137.3125 -79.328125 C 137.3125 -53.078125 119.714844 -35.769531 96.636719 -35.769531 Z M 96.636719 -35.769531 "/></g></g></g><g fill="#ffffff" fill-opacity="1"><g transform="translate(357.861726, 548.393008)"><g><path d="M 20.085938 -30.34375 C 15.386719 -30.34375 11.824219 -28.023438 9.664062 -24.621094 L 9.664062 -41.574219 L 3.5625 -41.574219 L 3.5625 0 L 9.664062 0 L 9.664062 -4.96875 C 11.824219 -1.621094 15.386719 0.648438 20.03125 0.648438 C 27.96875 0.648438 33.746094 -5.777344 33.746094 -14.847656 C 33.746094 -23.917969 27.859375 -30.34375 20.085938 -30.34375 Z M 18.734375 -5.183594 C 13.550781 -5.183594 9.609375 -9.125 9.609375 -14.847656 C 9.609375 -20.515625 13.550781 -24.511719 18.734375 -24.511719 C 23.917969 -24.511719 27.589844 -20.515625 27.589844 -14.847656 C 27.589844 -9.125 23.863281 -5.183594 18.734375 -5.183594 Z M 18.734375 -5.183594 "/></g></g></g><g fill="#ffffff" fill-opacity="1"><g transform="translate(394.1958, 548.393008)"><g><path d="M 24.835938 -29.695312 L 16.25 -10.367188 L 7.828125 -29.695312 L 1.296875 -29.695312 L 13.011719 -3.78125 L 5.183594 13.5 L 11.714844 13.5 L 31.371094 -29.695312 Z M 24.835938 -29.695312 "/></g></g></g><g fill="#ffffff" fill-opacity="1"><g transform="translate(426.858667, 548.393008)"><g/></g></g><g fill="#ffffff" fill-opacity="1"><g transform="translate(443.055135, 548.393008)"><g><path d="M 20.300781 -20.085938 L 20.300781 -14.902344 L 34.5 -14.902344 C 33.53125 -8.746094 28.507812 -5.019531 22.191406 -5.019531 C 14.039062 -5.019531 8.960938 -11.070312 8.960938 -18.734375 C 8.960938 -26.835938 14.523438 -32.613281 22.246094 -32.613281 C 27.589844 -32.613281 31.800781 -29.910156 33.851562 -25.59375 L 40.386719 -25.59375 C 38.011719 -33.257812 31.101562 -38.441406 22.300781 -38.441406 C 11.121094 -38.441406 2.808594 -30.128906 2.808594 -18.84375 C 2.808594 -7.558594 11.070312 0.648438 21.757812 0.648438 C 28.507812 0.648438 33.636719 -2.699219 35.417969 -7.558594 L 35.417969 0 L 40.710938 0 L 40.710938 -20.085938 Z M 20.300781 -20.085938 "/></g></g></g><g fill="#ffffff" fill-opacity="1"><g transform="translate(487.919337, 548.393008)"><g><path d="M 26.671875 -29.695312 L 26.671875 -24.621094 C 24.511719 -28.023438 20.949219 -30.34375 16.25 -30.34375 C 8.476562 -30.34375 2.589844 -23.917969 2.589844 -14.847656 C 2.589844 -5.777344 8.367188 0.648438 16.304688 0.648438 C 20.949219 0.648438 24.511719 -1.566406 26.671875 -4.96875 L 26.671875 0 L 32.773438 0 L 32.773438 -29.695312 Z M 17.601562 -5.183594 C 12.472656 -5.183594 8.746094 -9.125 8.746094 -14.847656 C 8.746094 -20.515625 12.417969 -24.511719 17.601562 -24.511719 C 22.785156 -24.511719 26.726562 -20.515625 26.726562 -14.847656 C 26.726562 -9.125 22.785156 -5.183594 17.601562 -5.183594 Z M 17.601562 -5.183594 "/></g></g></g><g fill="#ffffff" fill-opacity="1"><g transform="translate(524.253411, 548.393008)"><g><path d="M 9.878906 -5.777344 L 26.886719 -23.917969 L 26.886719 -29.695312 L 3.078125 -29.695312 L 3.078125 -23.917969 L 19.058594 -23.917969 L 2.105469 -5.777344 L 2.105469 0 L 27.160156 0 L 27.160156 -5.777344 Z M 9.878906 -5.777344 "/></g></g></g><g fill="#ffffff" fill-opacity="1"><g transform="translate(553.515037, 548.393008)"><g><path d="M 17.925781 -30.34375 C 8.960938 -30.34375 2.589844 -23.757812 2.589844 -14.792969 C 2.589844 -5.832031 9.015625 0.648438 18.035156 0.648438 C 24.351562 0.648438 30.019531 -2.484375 32.339844 -9.125 L 26.023438 -9.125 C 24.621094 -6.210938 21.652344 -4.699219 18.085938 -4.699219 C 13.121094 -4.699219 9.285156 -7.722656 8.800781 -13.175781 L 32.933594 -13.175781 C 33.53125 -22.945312 27.480469 -30.34375 17.925781 -30.34375 Z M 17.925781 -25.050781 C 22.40625 -25.050781 25.484375 -22.191406 26.402344 -18.140625 L 9.125 -18.140625 C 10.152344 -22.136719 13.28125 -25.050781 17.925781 -25.050781 Z M 17.925781 -25.050781 "/></g></g></g><g fill="#ffffff" fill-opacity="1"><g transform="translate(588.823331, 548.393008)"><g><path d="M 3.617188 0 L 9.773438 0 L 9.773438 -41.574219 L 3.617188 -41.574219 Z M 3.617188 0 "/></g></g></g><g fill="#ffffff" fill-opacity="1"><g transform="translate(601.996464, 548.393008)"><g><path d="M 3.617188 0 L 9.773438 0 L 9.773438 -41.574219 L 3.617188 -41.574219 Z M 3.617188 0 "/></g></g></g><g fill="#ffffff" fill-opacity="1"><g transform="translate(615.169574, 548.393008)"><g><path d="M 26.671875 -29.695312 L 26.671875 -24.621094 C 24.511719 -28.023438 20.949219 -30.34375 16.25 -30.34375 C 8.476562 -30.34375 2.589844 -23.917969 2.589844 -14.847656 C 2.589844 -5.777344 8.367188 0.648438 16.304688 0.648438 C 20.949219 0.648438 24.511719 -1.566406 26.671875 -4.96875 L 26.671875 0 L 32.773438 0 L 32.773438 -29.695312 Z M 17.601562 -5.183594 C 12.472656 -5.183594 8.746094 -9.125 8.746094 -14.847656 C 8.746094 -20.515625 12.417969 -24.511719 17.601562 -24.511719 C 22.785156 -24.511719 26.726562 -20.515625 26.726562 -14.847656 C 26.726562 -9.125 22.785156 -5.183594 17.601562 -5.183594 Z M 17.601562 -5.183594 "/></g></g></g><g fill="#ffffff" fill-opacity="1"><g transform="translate(651.503649, 548.393008)"><g/></g></g><g fill="#ffffff" fill-opacity="1"><g transform="translate(667.700105, 548.393008)"><g><path d="M 30.828125 -37.792969 L 1.671875 -37.792969 L 1.671875 -31.964844 L 13.175781 -31.964844 L 13.175781 0 L 19.273438 0 L 19.273438 -31.964844 L 30.828125 -31.964844 Z M 30.828125 -37.792969 "/></g></g></g><g fill="#ffffff" fill-opacity="1"><g transform="translate(700.201004, 548.393008)"><g><path d="M 17.925781 -30.34375 C 8.960938 -30.34375 2.589844 -23.757812 2.589844 -14.792969 C 2.589844 -5.832031 9.015625 0.648438 18.035156 0.648438 C 24.351562 0.648438 30.019531 -2.484375 32.339844 -9.125 L 26.023438 -9.125 C 24.621094 -6.210938 21.652344 -4.699219 18.085938 -4.699219 C 13.121094 -4.699219 9.285156 -7.722656 8.800781 -13.175781 L 32.933594 -13.175781 C 33.53125 -22.945312 27.480469 -30.34375 17.925781 -30.34375 Z M 17.925781 -25.050781 C 22.40625 -25.050781 25.484375 -22.191406 26.402344 -18.140625 L 9.125 -18.140625 C 10.152344 -22.136719 13.28125 -25.050781 17.925781 -25.050781 Z M 17.925781 -25.050781 "/></g></g></g><g fill="#ffffff" fill-opacity="1"><g transform="translate(735.509298, 548.393008)"><g><path d="M 26.671875 -29.695312 L 26.671875 -24.621094 C 24.511719 -28.023438 20.949219 -30.34375 16.25 -30.34375 C 8.476562 -30.34375 2.589844 -23.917969 2.589844 -14.847656 C 2.589844 -5.777344 8.367188 0.648438 16.304688 0.648438 C 20.949219 0.648438 24.511719 -1.566406 26.671875 -4.96875 L 26.671875 0 L 32.773438 0 L 32.773438 -29.695312 Z M 17.601562 -5.183594 C 12.472656 -5.183594 8.746094 -9.125 8.746094 -14.847656 C 8.746094 -20.515625 12.417969 -24.511719 17.601562 -24.511719 C 22.785156 -24.511719 26.726562 -20.515625 26.726562 -14.847656 C 26.726562 -9.125 22.785156 -5.183594 17.601562 -5.183594 Z M 17.601562 -5.183594 "/></g></g></g><g fill="#ffffff" fill-opacity="1"><g transform="translate(771.843395, 548.393008)"><g><path d="M 38.117188 -30.34375 C 33.421875 -30.34375 30.074219 -27.96875 28.074219 -24.132812 C 26.617188 -28.128906 23.433594 -30.34375 18.898438 -30.34375 C 14.632812 -30.34375 11.714844 -28.347656 9.664062 -24.945312 L 9.664062 -29.695312 L 3.5625 -29.695312 L 3.5625 0 L 9.664062 0 L 9.664062 -15.386719 C 9.664062 -20.789062 12.09375 -24.511719 16.898438 -24.511719 C 21.003906 -24.511719 22.785156 -22.191406 22.785156 -17.761719 L 22.785156 0 L 28.941406 0 L 28.886719 -15.386719 C 28.886719 -20.789062 31.371094 -24.511719 36.175781 -24.511719 C 40.277344 -24.511719 42.058594 -22.191406 42.058594 -17.761719 L 42.058594 0 L 48.160156 0 L 48.160156 -19.058594 C 48.160156 -26.132812 44.382812 -30.34375 38.117188 -30.34375 Z M 38.117188 -30.34375 "/></g></g></g></svg>