<svg xmlns="http://www.w3.org/2000/svg" xmlns:xlink="http://www.w3.org/1999/xlink" width="336" zoomAndPan="magnify" viewBox="0 0 252 143.999998" height="192" preserveAspectRatio="xMidYMid meet" version="1.0"><rect x="-25.2" width="302.4" fill="#ffffff" y="-14.4" height="172.799997" fill-opacity="1"/><rect x="-25.2" width="302.4" fill="#f8fafc" y="-14.4" height="172.799997" fill-opacity="1"/><path fill="#5e17eb" d="M 254.128906 73.144531 C 251.199219 82.296875 243.691406 89.160156 234.394531 91.449219 C 224.3125 93.953125 213.730469 91.519531 204.222656 87.800781 C 199.074219 85.730469 194.066406 83.296875 188.992188 80.9375 C 184.058594 78.648438 179.125 76.21875 173.832031 74.71875 C 168.96875 73.359375 163.820312 72.929688 158.960938 74.359375 C 155.097656 75.503906 151.664062 77.648438 148.449219 80.007812 C 141.941406 84.871094 135.933594 91.234375 127.855469 93.308594 C 119.558594 95.453125 111.050781 92.449219 103.402344 89.445312 C 95.605469 86.371094 87.597656 82.726562 79.019531 82.652344 C 69.722656 82.582031 62.429688 87.875 55.492188 93.378906 C 51.847656 96.3125 48.199219 99.242188 43.980469 101.460938 C 39.832031 103.605469 35.402344 105.105469 30.824219 105.964844 C 21.671875 107.679688 11.945312 106.679688 3.367188 102.960938 C 1.292969 102.03125 -0.710938 100.960938 -2.640625 99.816406 C -3.070312 99.527344 -3.425781 99.601562 -3.785156 99.816406 C -4 100.03125 -4.210938 100.316406 -4.210938 100.816406 C -4.210938 110.46875 -4.210938 177.324219 -4.210938 187.050781 C -4.210938 188.410156 -4.210938 189.765625 -4.210938 191.125 C -4.210938 191.699219 -3.710938 192.199219 -3.140625 192.199219 C -0.851562 192.199219 1.507812 192.199219 3.796875 192.199219 C 10.015625 192.199219 16.308594 192.199219 22.53125 192.199219 C 31.824219 192.199219 41.050781 192.199219 50.34375 192.199219 C 61.640625 192.199219 72.941406 192.199219 84.308594 192.199219 C 96.679688 192.199219 108.976562 192.199219 121.347656 192.199219 C 133.859375 192.199219 146.445312 192.199219 158.960938 192.199219 C 170.542969 192.199219 182.199219 192.199219 193.78125 192.199219 C 203.648438 192.199219 213.515625 192.199219 223.3125 192.199219 C 230.390625 192.199219 237.46875 192.199219 244.550781 192.199219 C 247.910156 192.199219 251.269531 192.269531 254.558594 192.199219 C 254.703125 192.199219 254.847656 192.199219 254.988281 192.199219 C 255.5625 192.199219 256.0625 191.699219 256.0625 191.125 C 256.0625 184.332031 256.0625 120.265625 256.0625 113.472656 C 256.0625 102.675781 256.0625 91.804688 256.0625 81.007812 C 256.0625 78.507812 256.0625 76.003906 256.0625 73.5 C 256.203125 72.144531 254.488281 72 254.128906 73.144531 Z M 254.128906 73.144531 " fill-opacity="1" fill-rule="nonzero"/></svg>