<svg xmlns="http://www.w3.org/2000/svg" xmlns:xlink="http://www.w3.org/1999/xlink" width="1920" zoomAndPan="magnify" viewBox="0 0 1440 525.000007" height="700" preserveAspectRatio="xMidYMid meet" version="1.0"><defs><clipPath id="b77a3455e4"><path d="M 1.367188 0 L 1438.628906 0 L 1438.628906 471.554688 L 1.367188 471.554688 Z M 1.367188 0 " clip-rule="nonzero"/></clipPath><clipPath id="7d74b42333"><path d="M 720 -4271.277344 C -425.886719 -4271.277344 -1354.8125 -3209.546875 -1354.8125 -1899.835938 C -1354.8125 -590.128906 -425.886719 471.601562 720 471.601562 C 1865.886719 471.601562 2794.8125 -590.128906 2794.8125 -1899.835938 C 2794.8125 -3209.546875 1865.886719 -4271.277344 720 -4271.277344 Z M 720 -4271.277344 " clip-rule="nonzero"/></clipPath><linearGradient x1="83.665943" gradientTransform="matrix(16.209464, 0, 0, 16.209464, -1354.811316, -4271.318313)" y1="146.300003" x2="172.334038" gradientUnits="userSpaceOnUse" y2="146.300003" id="0c1abc68bf"><stop stop-opacity="1" stop-color="rgb(96.899414%, 95.715332%, 99.064636%)" offset="0"/><stop stop-opacity="1" stop-color="rgb(96.899414%, 95.663452%, 99.180603%)" offset="0.125"/><stop stop-opacity="1" stop-color="rgb(96.899414%, 95.559692%, 99.414062%)" offset="0.25"/><stop stop-opacity="1" stop-color="rgb(96.899414%, 95.454407%, 99.647522%)" offset="0.375"/><stop stop-opacity="1" stop-color="rgb(96.899414%, 95.350647%, 99.880981%)" offset="0.5"/><stop stop-opacity="1" stop-color="rgb(96.795654%, 95.211792%, 99.847412%)" offset="0.625"/><stop stop-opacity="1" stop-color="rgb(96.586609%, 95.039368%, 99.543762%)" offset="0.75"/><stop stop-opacity="1" stop-color="rgb(96.379089%, 94.865417%, 99.241638%)" offset="0.875"/><stop stop-opacity="1" stop-color="rgb(96.17157%, 94.692993%, 98.937988%)" offset="1"/></linearGradient><clipPath id="2935770e5b"><path d="M 1.367188 0 L 1438.628906 0 L 1438.628906 471.691406 L 1.367188 471.691406 Z M 1.367188 0 " clip-rule="nonzero"/></clipPath><clipPath id="6008fd59ba"><path d="M 719.996094 -4271.273438 C -425.886719 -4271.273438 -1354.8125 -3209.546875 -1354.8125 -1899.839844 C -1354.8125 -590.132812 -425.886719 471.59375 719.996094 471.59375 C 1865.882812 471.59375 2794.804688 -590.132812 2794.804688 -1899.839844 C 2794.804688 -3209.546875 1865.882812 -4271.273438 719.996094 -4271.273438 Z M 719.996094 -4271.273438 " clip-rule="nonzero"/></clipPath></defs><g clip-path="url(#b77a3455e4)"><g clip-path="url(#7d74b42333)"><path fill="url(#0c1abc68bf)" d="M 1.367188 0 L 1.367188 471.554688 L 1438.632812 471.554688 L 1438.632812 0 Z M 1.367188 0 " fill-rule="nonzero"/></g></g><g clip-path="url(#2935770e5b)"><g clip-path="url(#6008fd59ba)"><path stroke-linecap="butt" transform="matrix(0.748574, 0, 0, 0.748574, -1354.811238, -4271.274099)" fill="none" stroke-linejoin="miter" d="M 2771.679383 0.000883095 C 1240.925313 0.000883095 -0.00168628 1418.332879 -0.00168628 3167.935322 C -0.00168628 4917.537766 1240.925313 6335.869762 2771.679383 6335.869762 C 4302.433453 6335.869762 5543.360453 4917.537766 5543.360453 3167.935322 C 5543.360453 1418.332879 4302.433453 0.000883095 2771.679383 0.000883095 Z M 2771.679383 0.000883095 " stroke="#ebebeb" stroke-width="2" stroke-opacity="1" stroke-miterlimit="4"/></g></g></svg>