<svg xmlns="http://www.w3.org/2000/svg" xmlns:xlink="http://www.w3.org/1999/xlink" width="1920" zoomAndPan="magnify" viewBox="0 0 1440 809.999993" height="1080" preserveAspectRatio="xMidYMid meet" version="1.0"><defs><g/></defs><rect x="-144" width="1728" fill="#ffffff" y="-80.999999" height="971.999992" fill-opacity="1"/><rect x="-144" width="1728" fill="#ffffff" y="-80.999999" height="971.999992" fill-opacity="1"/><g fill="#286bd5" fill-opacity="1"><g transform="translate(18.564501, 393.920105)"><g><path d="M 73.171875 -174.4375 L 73.171875 -169.5 C 67.585938 -169.34375 63.359375 -168.726562 60.484375 -167.65625 C 57.609375 -166.59375 55.675781 -164.625 54.6875 -161.75 C 53.707031 -158.875 53.21875 -154.394531 53.21875 -148.3125 L 53.21875 -26.109375 C 53.21875 -20.203125 53.707031 -15.769531 54.6875 -12.8125 C 55.675781 -9.851562 57.609375 -7.921875 60.484375 -7.015625 C 63.359375 -6.117188 67.585938 -5.671875 73.171875 -5.671875 L 91.15625 -5.671875 C 98.875 -5.671875 105.15625 -6.488281 110 -8.125 C 114.851562 -9.769531 118.710938 -12.359375 121.578125 -15.890625 C 124.453125 -19.421875 126.628906 -24.140625 128.109375 -30.046875 C 129.585938 -35.960938 130.738281 -43.191406 131.5625 -51.734375 L 137.234375 -51.734375 C 136.734375 -46.640625 136.484375 -39.90625 136.484375 -31.53125 C 136.484375 -28.414062 136.609375 -23.941406 136.859375 -18.109375 C 137.109375 -12.273438 137.5625 -6.238281 138.21875 0 C 129.84375 -0.332031 120.394531 -0.535156 109.875 -0.609375 C 99.363281 -0.691406 90.003906 -0.734375 81.796875 -0.734375 C 78.179688 -0.734375 73.539062 -0.734375 67.875 -0.734375 C 62.207031 -0.734375 56.085938 -0.691406 49.515625 -0.609375 C 42.953125 -0.535156 36.300781 -0.457031 29.5625 -0.375 C 22.832031 -0.289062 16.425781 -0.164062 10.34375 0 L 10.34375 -4.921875 C 15.925781 -5.253906 20.15625 -5.910156 23.03125 -6.890625 C 25.90625 -7.878906 27.832031 -9.851562 28.8125 -12.8125 C 29.800781 -15.769531 30.296875 -20.203125 30.296875 -26.109375 L 30.296875 -148.3125 C 30.296875 -154.394531 29.800781 -158.875 28.8125 -161.75 C 27.832031 -164.625 25.90625 -166.59375 23.03125 -167.65625 C 20.15625 -168.726562 15.925781 -169.34375 10.34375 -169.5 L 10.34375 -174.4375 C 13.789062 -174.269531 18.304688 -174.101562 23.890625 -173.9375 C 29.484375 -173.769531 35.484375 -173.6875 41.890625 -173.6875 C 47.628906 -173.6875 53.332031 -173.769531 59 -173.9375 C 64.664062 -174.101562 69.390625 -174.269531 73.171875 -174.4375 Z M 73.171875 -174.4375 "/></g></g></g><g fill="#286bd5" fill-opacity="1"><g transform="translate(163.427117, 393.920105)"><g><path d="M 204.25 -174.4375 L 204.25 -169.5 C 198.664062 -169.34375 194.4375 -168.726562 191.5625 -167.65625 C 188.6875 -166.59375 186.753906 -164.625 185.765625 -161.75 C 184.773438 -158.875 184.28125 -154.394531 184.28125 -148.3125 L 184.28125 -26.109375 C 184.28125 -20.203125 184.773438 -15.769531 185.765625 -12.8125 C 186.753906 -9.851562 188.6875 -7.878906 191.5625 -6.890625 C 194.4375 -5.910156 198.664062 -5.253906 204.25 -4.921875 L 204.25 0 C 200.46875 -0.332031 195.742188 -0.535156 190.078125 -0.609375 C 184.410156 -0.691406 178.703125 -0.734375 172.953125 -0.734375 C 166.546875 -0.734375 160.550781 -0.691406 154.96875 -0.609375 C 149.382812 -0.535156 144.867188 -0.332031 141.421875 0 L 141.421875 -4.921875 C 147.003906 -5.253906 151.234375 -5.910156 154.109375 -6.890625 C 156.984375 -7.878906 158.910156 -9.851562 159.890625 -12.8125 C 160.878906 -15.769531 161.375 -20.203125 161.375 -26.109375 L 161.375 -161.625 L 162.359375 -160.890625 L 102 1.234375 L 98.0625 1.234375 L 35.96875 -158.671875 L 35.96875 -28.578125 C 35.96875 -22.660156 36.5 -18.019531 37.5625 -14.65625 C 38.632812 -11.289062 40.769531 -8.910156 43.96875 -7.515625 C 47.175781 -6.117188 51.984375 -5.253906 58.390625 -4.921875 L 58.390625 0 C 55.429688 -0.332031 51.570312 -0.535156 46.8125 -0.609375 C 42.050781 -0.691406 37.535156 -0.734375 33.265625 -0.734375 C 29.148438 -0.734375 25 -0.691406 20.8125 -0.609375 C 16.625 -0.535156 13.132812 -0.332031 10.34375 0 L 10.34375 -4.921875 C 15.925781 -5.253906 20.15625 -6.117188 23.03125 -7.515625 C 25.90625 -8.910156 27.832031 -11.289062 28.8125 -14.65625 C 29.800781 -18.019531 30.296875 -22.660156 30.296875 -28.578125 L 30.296875 -148.3125 C 30.296875 -154.394531 29.800781 -158.875 28.8125 -161.75 C 27.832031 -164.625 25.90625 -166.59375 23.03125 -167.65625 C 20.15625 -168.726562 15.925781 -169.34375 10.34375 -169.5 L 10.34375 -174.4375 C 13.132812 -174.269531 16.625 -174.101562 20.8125 -173.9375 C 25 -173.769531 29.148438 -173.6875 33.265625 -173.6875 C 36.878906 -173.6875 40.613281 -173.769531 44.46875 -173.9375 C 48.332031 -174.101562 51.578125 -174.269531 54.203125 -174.4375 L 110.125 -27.09375 L 105.9375 -25.125 L 161.375 -173.6875 C 163.34375 -173.6875 165.269531 -173.6875 167.15625 -173.6875 C 169.050781 -173.6875 170.984375 -173.6875 172.953125 -173.6875 C 178.703125 -173.6875 184.410156 -173.769531 190.078125 -173.9375 C 195.742188 -174.101562 200.46875 -174.269531 204.25 -174.4375 Z M 204.25 -174.4375 "/></g></g></g><g fill="#142f59" fill-opacity="1"><g transform="translate(15.552651, 611.039506)"><g><path d="M 82.765625 -154.75 C 90.335938 -154.75 97.28125 -153.921875 103.59375 -152.265625 C 109.914062 -150.617188 115.113281 -148.53125 119.1875 -146 C 124.238281 -142.894531 128.171875 -139.054688 130.984375 -134.484375 C 133.804688 -129.921875 135.21875 -124.628906 135.21875 -118.609375 C 135.21875 -111.804688 133.078125 -106.21875 128.796875 -101.84375 C 124.523438 -97.476562 118.992188 -95.296875 112.203125 -95.296875 C 105.398438 -95.296875 99.957031 -97.238281 95.875 -101.125 C 91.800781 -105.007812 89.765625 -110.253906 89.765625 -116.859375 C 89.765625 -123.078125 91.707031 -128.273438 95.59375 -132.453125 C 99.476562 -136.628906 103.941406 -139.394531 108.984375 -140.75 C 107.429688 -142.695312 105.097656 -144.347656 101.984375 -145.703125 C 98.878906 -147.066406 95.382812 -147.75 91.5 -147.75 C 85.476562 -147.75 80.1875 -146 75.625 -142.5 C 71.0625 -139.007812 67.222656 -134.15625 64.109375 -127.9375 C 61.003906 -121.71875 58.625 -114.429688 56.96875 -106.078125 C 55.320312 -97.722656 54.5 -88.59375 54.5 -78.6875 C 54.5 -63.726562 56.390625 -51.972656 60.171875 -43.421875 C 63.960938 -34.867188 68.820312 -28.84375 74.75 -25.34375 C 80.675781 -21.851562 86.84375 -20.109375 93.25 -20.109375 C 96.945312 -20.109375 100.976562 -20.691406 105.34375 -21.859375 C 109.71875 -23.023438 114.1875 -25.351562 118.75 -28.84375 C 123.320312 -32.34375 127.550781 -37.300781 131.4375 -43.71875 L 136.390625 -41.96875 C 134.253906 -34.78125 130.753906 -27.585938 125.890625 -20.390625 C 121.035156 -13.203125 114.722656 -7.328125 106.953125 -2.765625 C 99.179688 1.796875 89.660156 4.078125 78.390625 4.078125 C 65.765625 4.078125 54.347656 1.3125 44.140625 -4.21875 C 33.941406 -9.757812 25.78125 -18.304688 19.65625 -29.859375 C 13.539062 -41.421875 10.484375 -56.335938 10.484375 -74.609375 C 10.484375 -92.085938 13.640625 -106.800781 19.953125 -118.75 C 26.273438 -130.695312 34.875 -139.679688 45.75 -145.703125 C 56.632812 -151.734375 68.972656 -154.75 82.765625 -154.75 Z M 82.765625 -154.75 "/></g></g></g><g fill="#142f59" fill-opacity="1"><g transform="translate(160.095185, 611.039506)"><g><path d="M 82.1875 -154.75 C 96.363281 -154.75 108.796875 -152.125 119.484375 -146.875 C 130.171875 -141.632812 138.523438 -133.179688 144.546875 -121.515625 C 150.566406 -109.859375 153.578125 -94.414062 153.578125 -75.1875 C 153.578125 -55.957031 150.566406 -40.5625 144.546875 -29 C 138.523438 -17.4375 130.171875 -9.03125 119.484375 -3.78125 C 108.796875 1.457031 96.363281 4.078125 82.1875 4.078125 C 68.382812 4.078125 56.09375 1.457031 45.3125 -3.78125 C 34.53125 -9.03125 26.078125 -17.4375 19.953125 -29 C 13.835938 -40.5625 10.78125 -55.957031 10.78125 -75.1875 C 10.78125 -94.414062 13.835938 -109.859375 19.953125 -121.515625 C 26.078125 -133.179688 34.53125 -141.632812 45.3125 -146.875 C 56.09375 -152.125 68.382812 -154.75 82.1875 -154.75 Z M 82.1875 -148.921875 C 74.414062 -148.921875 67.90625 -143.140625 62.65625 -131.578125 C 57.40625 -120.015625 54.78125 -101.21875 54.78125 -75.1875 C 54.78125 -49.15625 57.40625 -30.40625 62.65625 -18.9375 C 67.90625 -7.476562 74.414062 -1.75 82.1875 -1.75 C 90.144531 -1.75 96.695312 -7.476562 101.84375 -18.9375 C 107 -30.40625 109.578125 -49.15625 109.578125 -75.1875 C 109.578125 -101.21875 107 -120.015625 101.84375 -131.578125 C 96.695312 -143.140625 90.144531 -148.921875 82.1875 -148.921875 Z M 82.1875 -148.921875 "/></g></g></g><g fill="#142f59" fill-opacity="1"><g transform="translate(324.745472, 611.039506)"><g><path d="M 115.40625 -154.75 C 123.5625 -154.75 130.210938 -153.726562 135.359375 -151.6875 C 140.515625 -149.644531 144.546875 -146.875 147.453125 -143.375 C 150.566406 -139.6875 152.851562 -134.925781 154.3125 -129.09375 C 155.769531 -123.269531 156.5 -115.40625 156.5 -105.5 L 156.5 -27.109375 C 156.5 -18.941406 157.90625 -13.398438 160.71875 -10.484375 C 163.53125 -7.578125 168.335938 -6.125 175.140625 -6.125 L 175.140625 0 C 171.453125 -0.195312 165.914062 -0.441406 158.53125 -0.734375 C 151.144531 -1.023438 143.859375 -1.171875 136.671875 -1.171875 C 129.296875 -1.171875 122.0625 -1.023438 114.96875 -0.734375 C 107.875 -0.441406 102.484375 -0.195312 98.796875 0 L 98.796875 -6.125 C 104.617188 -6.125 108.695312 -7.578125 111.03125 -10.484375 C 113.363281 -13.398438 114.53125 -18.941406 114.53125 -27.109375 L 114.53125 -117.734375 C 114.53125 -122.585938 114.039062 -126.8125 113.0625 -130.40625 C 112.09375 -134 110.34375 -136.816406 107.8125 -138.859375 C 105.289062 -140.898438 101.503906 -141.921875 96.453125 -141.921875 C 91.210938 -141.921875 86.40625 -140.460938 82.03125 -137.546875 C 77.664062 -134.640625 74.171875 -130.609375 71.546875 -125.453125 C 68.921875 -120.304688 67.609375 -114.53125 67.609375 -108.125 L 67.609375 -27.109375 C 67.609375 -18.941406 68.820312 -13.398438 71.25 -10.484375 C 73.675781 -7.578125 77.707031 -6.125 83.34375 -6.125 L 83.34375 0 C 79.84375 -0.195312 74.742188 -0.441406 68.046875 -0.734375 C 61.347656 -1.023438 54.398438 -1.171875 47.203125 -1.171875 C 39.828125 -1.171875 32.253906 -1.023438 24.484375 -0.734375 C 16.710938 -0.441406 10.882812 -0.195312 7 0 L 7 -6.125 C 13.789062 -6.125 18.59375 -7.578125 21.40625 -10.484375 C 24.226562 -13.398438 25.640625 -18.941406 25.640625 -27.109375 L 25.640625 -118.90625 C 25.640625 -127.644531 24.328125 -134.101562 21.703125 -138.28125 C 19.085938 -142.457031 14.1875 -144.546875 7 -144.546875 L 7 -150.671875 C 13.207031 -150.085938 19.226562 -149.796875 25.0625 -149.796875 C 33.21875 -149.796875 40.84375 -150.132812 47.9375 -150.8125 C 55.03125 -151.488281 61.585938 -152.507812 67.609375 -153.875 L 67.609375 -127.640625 C 72.460938 -137.546875 79.066406 -144.539062 87.421875 -148.625 C 95.773438 -152.707031 105.101562 -154.75 115.40625 -154.75 Z M 115.40625 -154.75 "/></g></g></g><g fill="#142f59" fill-opacity="1"><g transform="translate(503.67514, 611.039506)"><g><path d="M 64.703125 -154.75 C 72.859375 -154.75 79.992188 -153.726562 86.109375 -151.6875 C 92.234375 -149.644531 96.65625 -147.65625 99.375 -145.71875 C 105.976562 -141.25 110.054688 -144.160156 111.609375 -154.453125 L 117.734375 -154.453125 C 117.347656 -149.015625 117.054688 -142.359375 116.859375 -134.484375 C 116.660156 -126.617188 116.5625 -116.175781 116.5625 -103.15625 L 110.453125 -103.15625 C 109.472656 -110.351562 107.625 -117.445312 104.90625 -124.4375 C 102.1875 -131.425781 98.253906 -137.15625 93.109375 -141.625 C 87.960938 -146.09375 81.304688 -148.328125 73.140625 -148.328125 C 67.515625 -148.328125 62.753906 -146.722656 58.859375 -143.515625 C 54.972656 -140.316406 53.03125 -135.707031 53.03125 -129.6875 C 53.03125 -123.851562 54.78125 -118.75 58.28125 -114.375 C 61.78125 -110.007812 66.296875 -105.832031 71.828125 -101.84375 C 77.367188 -97.863281 83.148438 -93.640625 89.171875 -89.171875 C 95.585938 -84.316406 101.414062 -79.507812 106.65625 -74.75 C 111.90625 -69.988281 116.082031 -64.789062 119.1875 -59.15625 C 122.300781 -53.519531 123.859375 -46.816406 123.859375 -39.046875 C 123.859375 -30.304688 121.332031 -22.679688 116.28125 -16.171875 C 111.226562 -9.660156 104.570312 -4.65625 96.3125 -1.15625 C 88.050781 2.332031 78.875 4.078125 68.78125 4.078125 C 62.945312 4.078125 57.75 3.492188 53.1875 2.328125 C 48.625 1.160156 44.6875 -0.296875 41.375 -2.046875 C 38.851562 -3.203125 36.472656 -4.316406 34.234375 -5.390625 C 32.003906 -6.460938 29.914062 -7.382812 27.96875 -8.15625 C 26.03125 -8.738281 24.332031 -8.054688 22.875 -6.109375 C 21.414062 -4.171875 20.300781 -1.453125 19.53125 2.046875 L 13.40625 2.046875 C 13.789062 -4.171875 14.082031 -11.75 14.28125 -20.6875 C 14.476562 -29.625 14.578125 -41.476562 14.578125 -56.25 L 20.6875 -56.25 C 21.851562 -45.75 23.988281 -36.46875 27.09375 -28.40625 C 30.207031 -20.34375 34.4375 -14.03125 39.78125 -9.46875 C 45.125 -4.90625 51.875 -2.625 60.03125 -2.625 C 63.332031 -2.625 66.535156 -3.300781 69.640625 -4.65625 C 72.753906 -6.019531 75.332031 -8.253906 77.375 -11.359375 C 79.414062 -14.472656 80.4375 -18.457031 80.4375 -23.3125 C 80.4375 -31.863281 77.664062 -38.953125 72.125 -44.578125 C 66.59375 -50.210938 59.550781 -56.335938 51 -62.953125 C 44.78125 -68.003906 38.898438 -73.003906 33.359375 -77.953125 C 27.828125 -82.910156 23.3125 -88.347656 19.8125 -94.265625 C 16.320312 -100.191406 14.578125 -106.945312 14.578125 -114.53125 C 14.578125 -123.269531 16.90625 -130.648438 21.5625 -136.671875 C 26.226562 -142.703125 32.394531 -147.222656 40.0625 -150.234375 C 47.738281 -153.242188 55.953125 -154.75 64.703125 -154.75 Z M 64.703125 -154.75 "/></g></g></g><g fill="#142f59" fill-opacity="1"><g transform="translate(638.309527, 611.039506)"><g><path d="M 152.125 -153.875 L 152.125 -31.765625 C 152.125 -23.023438 153.484375 -16.566406 156.203125 -12.390625 C 158.921875 -8.210938 163.773438 -6.125 170.765625 -6.125 L 170.765625 0 C 164.742188 -0.582031 158.722656 -0.875 152.703125 -0.875 C 144.546875 -0.875 136.96875 -0.582031 129.96875 0 C 122.976562 0.582031 116.375 1.648438 110.15625 3.203125 L 110.15625 -23.015625 C 105.488281 -13.304688 99.023438 -6.363281 90.765625 -2.1875 C 82.515625 1.988281 73.335938 4.078125 63.234375 4.078125 C 55.078125 4.078125 48.472656 3.007812 43.421875 0.875 C 38.367188 -1.257812 34.382812 -3.976562 31.46875 -7.28125 C 28.164062 -10.976562 25.832031 -15.835938 24.46875 -21.859375 C 23.113281 -27.878906 22.4375 -35.648438 22.4375 -45.171875 L 22.4375 -118.90625 C 22.4375 -127.644531 21.125 -134.101562 18.5 -138.28125 C 15.882812 -142.457031 10.976562 -144.546875 3.78125 -144.546875 L 3.78125 -150.671875 C 10 -150.085938 16.023438 -149.796875 21.859375 -149.796875 C 30.015625 -149.796875 37.640625 -150.132812 44.734375 -150.8125 C 51.828125 -151.488281 58.382812 -152.507812 64.40625 -153.875 L 64.40625 -33.21875 C 64.40625 -28.363281 64.84375 -24.085938 65.71875 -20.390625 C 66.59375 -16.703125 68.289062 -13.835938 70.8125 -11.796875 C 73.34375 -9.765625 77.035156 -8.75 81.890625 -8.75 C 87.140625 -8.75 91.851562 -10.203125 96.03125 -13.109375 C 100.207031 -16.023438 103.601562 -20.054688 106.21875 -25.203125 C 108.84375 -30.359375 110.15625 -36.140625 110.15625 -42.546875 L 110.15625 -118.90625 C 110.15625 -127.644531 108.84375 -134.101562 106.21875 -138.28125 C 103.601562 -142.457031 98.695312 -144.546875 91.5 -144.546875 L 91.5 -150.671875 C 97.71875 -150.085938 103.742188 -149.796875 109.578125 -149.796875 C 117.734375 -149.796875 125.359375 -150.132812 132.453125 -150.8125 C 139.546875 -151.488281 146.101562 -152.507812 152.125 -153.875 Z M 152.125 -153.875 "/></g></g></g><g fill="#142f59" fill-opacity="1"><g transform="translate(814.907909, 611.039506)"><g><path d="M 66.4375 -228.1875 L 66.4375 -27.109375 C 66.4375 -18.941406 67.84375 -13.398438 70.65625 -10.484375 C 73.476562 -7.578125 78.289062 -6.125 85.09375 -6.125 L 85.09375 0 C 81.40625 -0.195312 75.867188 -0.441406 68.484375 -0.734375 C 61.097656 -1.023438 53.617188 -1.171875 46.046875 -1.171875 C 38.460938 -1.171875 30.832031 -1.023438 23.15625 -0.734375 C 15.488281 -0.441406 9.710938 -0.195312 5.828125 0 L 5.828125 -6.125 C 12.628906 -6.125 17.4375 -7.578125 20.25 -10.484375 C 23.070312 -13.398438 24.484375 -18.941406 24.484375 -27.109375 L 24.484375 -193.21875 C 24.484375 -201.957031 23.171875 -208.414062 20.546875 -212.59375 C 17.921875 -216.769531 13.015625 -218.859375 5.828125 -218.859375 L 5.828125 -224.984375 C 12.046875 -224.398438 18.066406 -224.109375 23.890625 -224.109375 C 31.859375 -224.109375 39.4375 -224.445312 46.625 -225.125 C 53.8125 -225.800781 60.414062 -226.820312 66.4375 -228.1875 Z M 66.4375 -228.1875 "/></g></g></g><g fill="#142f59" fill-opacity="1"><g transform="translate(905.538414, 611.039506)"><g><path d="M 66.15625 -198.453125 L 66.15625 -150.671875 L 100.546875 -150.671875 L 100.546875 -144.84375 L 66.15625 -144.84375 L 66.15625 -27.109375 C 66.15625 -21.273438 67.222656 -17.144531 69.359375 -14.71875 C 71.492188 -12.289062 74.695312 -11.078125 78.96875 -11.078125 C 82.46875 -11.078125 85.96875 -12.382812 89.46875 -15 C 92.96875 -17.625 96.078125 -22.144531 98.796875 -28.5625 L 103.75 -25.9375 C 100.632812 -17.195312 95.921875 -10.007812 89.609375 -4.375 C 83.296875 1.257812 74.703125 4.078125 63.828125 4.078125 C 57.410156 4.078125 51.773438 3.25 46.921875 1.59375 C 42.066406 -0.0507812 37.984375 -2.523438 34.671875 -5.828125 C 30.398438 -10.097656 27.582031 -15.390625 26.21875 -21.703125 C 24.863281 -28.023438 24.1875 -36.238281 24.1875 -46.34375 L 24.1875 -144.84375 L -0.296875 -144.84375 L -0.296875 -150.671875 L 24.1875 -150.671875 L 24.1875 -189.125 C 32.34375 -189.125 39.867188 -189.851562 46.765625 -191.3125 C 53.671875 -192.769531 60.132812 -195.148438 66.15625 -198.453125 Z M 66.15625 -198.453125 "/></g></g></g><g fill="#142f59" fill-opacity="1"><g transform="translate(1008.117029, 611.039506)"><g><path d="M 44.875 -225.859375 C 53.039062 -225.859375 59.503906 -223.863281 64.265625 -219.875 C 69.023438 -215.894531 71.40625 -210.40625 71.40625 -203.40625 C 71.40625 -196.414062 69.023438 -190.925781 64.265625 -186.9375 C 59.503906 -182.957031 53.039062 -180.96875 44.875 -180.96875 C 36.71875 -180.96875 30.257812 -182.957031 25.5 -186.9375 C 20.738281 -190.925781 18.359375 -196.414062 18.359375 -203.40625 C 18.359375 -210.40625 20.738281 -215.894531 25.5 -219.875 C 30.257812 -223.863281 36.71875 -225.859375 44.875 -225.859375 Z M 67.609375 -153.875 L 67.609375 -27.109375 C 67.609375 -18.941406 69.015625 -13.398438 71.828125 -10.484375 C 74.648438 -7.578125 79.460938 -6.125 86.265625 -6.125 L 86.265625 0 C 82.765625 -0.195312 77.320312 -0.441406 69.9375 -0.734375 C 62.5625 -1.023438 55.082031 -1.171875 47.5 -1.171875 C 39.925781 -1.171875 32.253906 -1.023438 24.484375 -0.734375 C 16.710938 -0.441406 10.882812 -0.195312 7 0 L 7 -6.125 C 13.789062 -6.125 18.59375 -7.578125 21.40625 -10.484375 C 24.226562 -13.398438 25.640625 -18.941406 25.640625 -27.109375 L 25.640625 -118.90625 C 25.640625 -127.644531 24.328125 -134.101562 21.703125 -138.28125 C 19.085938 -142.457031 14.1875 -144.546875 7 -144.546875 L 7 -150.671875 C 13.207031 -150.085938 19.226562 -149.796875 25.0625 -149.796875 C 33.21875 -149.796875 40.84375 -150.132812 47.9375 -150.8125 C 55.03125 -151.488281 61.585938 -152.507812 67.609375 -153.875 Z M 67.609375 -153.875 "/></g></g></g><g fill="#142f59" fill-opacity="1"><g transform="translate(1099.913235, 611.039506)"><g><path d="M 115.40625 -154.75 C 123.5625 -154.75 130.210938 -153.726562 135.359375 -151.6875 C 140.515625 -149.644531 144.546875 -146.875 147.453125 -143.375 C 150.566406 -139.6875 152.851562 -134.925781 154.3125 -129.09375 C 155.769531 -123.269531 156.5 -115.40625 156.5 -105.5 L 156.5 -27.109375 C 156.5 -18.941406 157.90625 -13.398438 160.71875 -10.484375 C 163.53125 -7.578125 168.335938 -6.125 175.140625 -6.125 L 175.140625 0 C 171.453125 -0.195312 165.914062 -0.441406 158.53125 -0.734375 C 151.144531 -1.023438 143.859375 -1.171875 136.671875 -1.171875 C 129.296875 -1.171875 122.0625 -1.023438 114.96875 -0.734375 C 107.875 -0.441406 102.484375 -0.195312 98.796875 0 L 98.796875 -6.125 C 104.617188 -6.125 108.695312 -7.578125 111.03125 -10.484375 C 113.363281 -13.398438 114.53125 -18.941406 114.53125 -27.109375 L 114.53125 -117.734375 C 114.53125 -122.585938 114.039062 -126.8125 113.0625 -130.40625 C 112.09375 -134 110.34375 -136.816406 107.8125 -138.859375 C 105.289062 -140.898438 101.503906 -141.921875 96.453125 -141.921875 C 91.210938 -141.921875 86.40625 -140.460938 82.03125 -137.546875 C 77.664062 -134.640625 74.171875 -130.609375 71.546875 -125.453125 C 68.921875 -120.304688 67.609375 -114.53125 67.609375 -108.125 L 67.609375 -27.109375 C 67.609375 -18.941406 68.820312 -13.398438 71.25 -10.484375 C 73.675781 -7.578125 77.707031 -6.125 83.34375 -6.125 L 83.34375 0 C 79.84375 -0.195312 74.742188 -0.441406 68.046875 -0.734375 C 61.347656 -1.023438 54.398438 -1.171875 47.203125 -1.171875 C 39.828125 -1.171875 32.253906 -1.023438 24.484375 -0.734375 C 16.710938 -0.441406 10.882812 -0.195312 7 0 L 7 -6.125 C 13.789062 -6.125 18.59375 -7.578125 21.40625 -10.484375 C 24.226562 -13.398438 25.640625 -18.941406 25.640625 -27.109375 L 25.640625 -118.90625 C 25.640625 -127.644531 24.328125 -134.101562 21.703125 -138.28125 C 19.085938 -142.457031 14.1875 -144.546875 7 -144.546875 L 7 -150.671875 C 13.207031 -150.085938 19.226562 -149.796875 25.0625 -149.796875 C 33.21875 -149.796875 40.84375 -150.132812 47.9375 -150.8125 C 55.03125 -151.488281 61.585938 -152.507812 67.609375 -153.875 L 67.609375 -127.640625 C 72.460938 -137.546875 79.066406 -144.539062 87.421875 -148.625 C 95.773438 -152.707031 105.101562 -154.75 115.40625 -154.75 Z M 115.40625 -154.75 "/></g></g></g><g fill="#142f59" fill-opacity="1"><g transform="translate(1278.842962, 611.039506)"><g><path d="M 63.53125 54.78125 C 51.488281 54.78125 40.753906 53.757812 31.328125 51.71875 C 21.898438 49.6875 14.515625 46.582031 9.171875 42.40625 C 3.835938 38.226562 1.171875 33.128906 1.171875 27.109375 C 1.171875 21.078125 3.890625 15.679688 9.328125 10.921875 C 14.765625 6.160156 22.828125 2.421875 33.515625 -0.296875 L 36.140625 4.375 C 32.441406 7.289062 29.765625 10.445312 28.109375 13.84375 C 26.460938 17.238281 25.640625 20.785156 25.640625 24.484375 C 25.640625 32.640625 29.378906 38.898438 36.859375 43.265625 C 44.335938 47.640625 54.488281 49.828125 67.3125 49.828125 C 76.0625 49.828125 83.882812 48.660156 90.78125 46.328125 C 97.675781 44.003906 103.113281 40.507812 107.09375 35.84375 C 111.082031 31.175781 113.078125 25.445312 113.078125 18.65625 C 113.078125 12.820312 110.9375 7.910156 106.65625 3.921875 C 102.382812 -0.0546875 93.835938 -2.046875 81.015625 -2.046875 L 62.953125 -2.046875 C 54.984375 -2.046875 48.035156 -2.914062 42.109375 -4.65625 C 36.179688 -6.40625 31.566406 -9.175781 28.265625 -12.96875 C 24.960938 -16.757812 23.3125 -21.566406 23.3125 -27.390625 C 23.3125 -35.554688 26.515625 -42.742188 32.921875 -48.953125 C 39.335938 -55.171875 48.859375 -61 61.484375 -66.4375 L 64.40625 -64.109375 C 60.71875 -61.773438 57.269531 -59.296875 54.0625 -56.671875 C 50.851562 -54.054688 49.25 -50.707031 49.25 -46.625 C 49.25 -40.40625 53.132812 -37.296875 60.90625 -37.296875 L 92.671875 -37.296875 C 103.359375 -37.296875 112.925781 -36.03125 121.375 -33.5 C 129.820312 -30.976562 136.523438 -26.851562 141.484375 -21.125 C 146.441406 -15.394531 148.921875 -7.960938 148.921875 1.171875 C 148.921875 10.691406 145.859375 19.53125 139.734375 27.6875 C 133.617188 35.84375 124.242188 42.394531 111.609375 47.34375 C 98.984375 52.300781 82.957031 54.78125 63.53125 54.78125 Z M 66.4375 -62.078125 C 55.363281 -62.078125 45.457031 -63.726562 36.71875 -67.03125 C 27.976562 -70.332031 21.082031 -75.378906 16.03125 -82.171875 C 10.976562 -88.972656 8.453125 -97.71875 8.453125 -108.40625 C 8.453125 -119.09375 10.976562 -127.882812 16.03125 -134.78125 C 21.082031 -141.675781 27.976562 -146.726562 36.71875 -149.9375 C 45.457031 -153.144531 55.363281 -154.75 66.4375 -154.75 C 77.519531 -154.75 87.429688 -153.144531 96.171875 -149.9375 C 104.910156 -146.726562 111.804688 -141.675781 116.859375 -134.78125 C 121.910156 -127.882812 124.4375 -119.09375 124.4375 -108.40625 C 124.4375 -97.71875 121.910156 -88.972656 116.859375 -82.171875 C 111.804688 -75.378906 104.910156 -70.332031 96.171875 -67.03125 C 87.429688 -63.726562 77.519531 -62.078125 66.4375 -62.078125 Z M 66.4375 -67.3125 C 71.6875 -67.3125 75.769531 -70.273438 78.6875 -76.203125 C 81.601562 -82.128906 83.0625 -92.863281 83.0625 -108.40625 C 83.0625 -123.945312 81.601562 -134.679688 78.6875 -140.609375 C 75.769531 -146.535156 71.6875 -149.5 66.4375 -149.5 C 61.394531 -149.5 57.363281 -146.535156 54.34375 -140.609375 C 51.332031 -134.679688 49.828125 -123.945312 49.828125 -108.40625 C 49.828125 -92.863281 51.332031 -82.128906 54.34375 -76.203125 C 57.363281 -70.273438 61.394531 -67.3125 66.4375 -67.3125 Z M 111.90625 -129.6875 L 106.078125 -131.71875 C 108.992188 -139.300781 113.703125 -145.613281 120.203125 -150.65625 C 126.710938 -155.707031 133.757812 -158.234375 141.34375 -158.234375 C 147.5625 -158.234375 152.269531 -156.535156 155.46875 -153.140625 C 158.675781 -149.742188 160.28125 -145.320312 160.28125 -139.875 C 160.28125 -134.050781 158.722656 -129.726562 155.609375 -126.90625 C 152.503906 -124.09375 149.007812 -122.6875 145.125 -122.6875 C 141.820312 -122.6875 138.757812 -123.851562 135.9375 -126.1875 C 133.125 -128.519531 131.523438 -132.066406 131.140625 -136.828125 C 130.753906 -141.585938 132.40625 -147.753906 136.09375 -155.328125 L 138.140625 -153.578125 C 130.753906 -150.859375 125.210938 -147.703125 121.515625 -144.109375 C 117.828125 -140.515625 114.625 -135.707031 111.90625 -129.6875 Z M 111.90625 -129.6875 "/></g></g></g></svg>