<svg xmlns="http://www.w3.org/2000/svg" xmlns:xlink="http://www.w3.org/1999/xlink" width="1920" zoomAndPan="magnify" viewBox="0 0 1440 809.999993" height="1080" preserveAspectRatio="xMidYMid meet" version="1.0"><defs><g/></defs><g fill="#081b33" fill-opacity="1"><g transform="translate(16.67935, 386.017116)"><g><path d="M 65.75 -156.71875 L 65.75 -152.296875 C 60.726562 -152.148438 56.925781 -151.597656 54.34375 -150.640625 C 51.757812 -149.679688 50.023438 -147.910156 49.140625 -145.328125 C 48.253906 -142.742188 47.8125 -138.722656 47.8125 -133.265625 L 47.8125 -23.46875 C 47.8125 -18.15625 48.253906 -14.171875 49.140625 -11.515625 C 50.023438 -8.859375 51.757812 -7.125 54.34375 -6.3125 C 56.925781 -5.5 60.726562 -5.09375 65.75 -5.09375 L 81.90625 -5.09375 C 88.84375 -5.09375 94.484375 -5.828125 98.828125 -7.296875 C 103.179688 -8.773438 106.648438 -11.097656 109.234375 -14.265625 C 111.816406 -17.441406 113.769531 -21.6875 115.09375 -27 C 116.425781 -32.3125 117.460938 -38.804688 118.203125 -46.484375 L 123.296875 -46.484375 C 122.859375 -41.910156 122.640625 -35.859375 122.640625 -28.328125 C 122.640625 -25.523438 122.75 -21.503906 122.96875 -16.265625 C 123.1875 -11.023438 123.59375 -5.601562 124.1875 0 C 116.65625 -0.289062 108.164062 -0.472656 98.71875 -0.546875 C 89.28125 -0.628906 80.867188 -0.671875 73.484375 -0.671875 C 70.242188 -0.671875 66.078125 -0.671875 60.984375 -0.671875 C 55.890625 -0.671875 50.390625 -0.628906 44.484375 -0.546875 C 38.585938 -0.472656 32.613281 -0.398438 26.5625 -0.328125 C 20.507812 -0.253906 14.753906 -0.144531 9.296875 0 L 9.296875 -4.421875 C 14.316406 -4.722656 18.117188 -5.316406 20.703125 -6.203125 C 23.285156 -7.085938 25.019531 -8.859375 25.90625 -11.515625 C 26.789062 -14.171875 27.234375 -18.15625 27.234375 -23.46875 L 27.234375 -133.265625 C 27.234375 -138.722656 26.789062 -142.742188 25.90625 -145.328125 C 25.019531 -147.910156 23.285156 -149.679688 20.703125 -150.640625 C 18.117188 -151.597656 14.316406 -152.148438 9.296875 -152.296875 L 9.296875 -156.71875 C 12.398438 -156.570312 16.457031 -156.425781 21.46875 -156.28125 C 26.488281 -156.132812 31.875 -156.0625 37.625 -156.0625 C 42.789062 -156.0625 47.921875 -156.132812 53.015625 -156.28125 C 58.109375 -156.425781 62.351562 -156.570312 65.75 -156.71875 Z M 65.75 -156.71875 "/></g></g></g><g fill="#081b33" fill-opacity="1"><g transform="translate(146.83174, 386.017116)"><g><path d="M 183.5 -156.71875 L 183.5 -152.296875 C 178.488281 -152.148438 174.691406 -151.597656 172.109375 -150.640625 C 169.523438 -149.679688 167.789062 -147.910156 166.90625 -145.328125 C 166.019531 -142.742188 165.578125 -138.722656 165.578125 -133.265625 L 165.578125 -23.46875 C 165.578125 -18.15625 166.019531 -14.171875 166.90625 -11.515625 C 167.789062 -8.859375 169.523438 -7.085938 172.109375 -6.203125 C 174.691406 -5.316406 178.488281 -4.722656 183.5 -4.421875 L 183.5 0 C 180.113281 -0.289062 175.875 -0.472656 170.78125 -0.546875 C 165.6875 -0.628906 160.554688 -0.671875 155.390625 -0.671875 C 149.640625 -0.671875 144.253906 -0.628906 139.234375 -0.546875 C 134.210938 -0.472656 130.15625 -0.289062 127.0625 0 L 127.0625 -4.421875 C 132.082031 -4.722656 135.878906 -5.316406 138.453125 -6.203125 C 141.035156 -7.085938 142.769531 -8.859375 143.65625 -11.515625 C 144.539062 -14.171875 144.984375 -18.15625 144.984375 -23.46875 L 144.984375 -145.21875 L 145.875 -144.546875 L 91.640625 1.109375 L 88.09375 1.109375 L 32.3125 -142.5625 L 32.3125 -25.671875 C 32.3125 -20.359375 32.789062 -16.191406 33.75 -13.171875 C 34.71875 -10.148438 36.640625 -8.007812 39.515625 -6.75 C 42.390625 -5.5 46.707031 -4.722656 52.46875 -4.421875 L 52.46875 0 C 49.8125 -0.289062 46.34375 -0.472656 42.0625 -0.546875 C 37.78125 -0.628906 33.722656 -0.671875 29.890625 -0.671875 C 26.191406 -0.671875 22.460938 -0.628906 18.703125 -0.546875 C 14.941406 -0.472656 11.804688 -0.289062 9.296875 0 L 9.296875 -4.421875 C 14.316406 -4.722656 18.117188 -5.5 20.703125 -6.75 C 23.285156 -8.007812 25.019531 -10.148438 25.90625 -13.171875 C 26.789062 -16.191406 27.234375 -20.359375 27.234375 -25.671875 L 27.234375 -133.265625 C 27.234375 -138.722656 26.789062 -142.742188 25.90625 -145.328125 C 25.019531 -147.910156 23.285156 -149.679688 20.703125 -150.640625 C 18.117188 -151.597656 14.316406 -152.148438 9.296875 -152.296875 L 9.296875 -156.71875 C 11.804688 -156.570312 14.941406 -156.425781 18.703125 -156.28125 C 22.460938 -156.132812 26.191406 -156.0625 29.890625 -156.0625 C 33.128906 -156.0625 36.484375 -156.132812 39.953125 -156.28125 C 43.421875 -156.425781 46.335938 -156.570312 48.703125 -156.71875 L 98.953125 -24.34375 L 95.1875 -22.578125 L 144.984375 -156.0625 C 146.753906 -156.0625 148.488281 -156.0625 150.1875 -156.0625 C 151.882812 -156.0625 153.617188 -156.0625 155.390625 -156.0625 C 160.554688 -156.0625 165.6875 -156.132812 170.78125 -156.28125 C 175.875 -156.425781 180.113281 -156.570312 183.5 -156.71875 Z M 183.5 -156.71875 "/></g></g></g><g fill="#081b33" fill-opacity="1"><g transform="translate(10.469268, 597.766572)"><g><path d="M 78.203125 -146 C 85.890625 -146 92.75 -145.21875 98.78125 -143.65625 C 104.820312 -142.101562 109.765625 -140.140625 113.609375 -137.765625 C 118.367188 -134.835938 122.210938 -131.082031 125.140625 -126.5 C 128.066406 -121.925781 129.53125 -116.625 129.53125 -110.59375 C 129.53125 -103.632812 127.242188 -97.820312 122.671875 -93.15625 C 118.097656 -88.5 112.332031 -86.171875 105.375 -86.171875 C 98.238281 -86.171875 92.613281 -88.273438 88.5 -92.484375 C 84.382812 -96.691406 82.328125 -102.085938 82.328125 -108.671875 C 82.328125 -115.078125 84.335938 -120.472656 88.359375 -124.859375 C 92.390625 -129.253906 97.148438 -132.179688 102.640625 -133.640625 C 101.171875 -135.109375 99.289062 -136.296875 97 -137.203125 C 94.71875 -138.117188 92.019531 -138.578125 88.90625 -138.578125 C 82.6875 -138.578125 77.472656 -136.789062 73.265625 -133.21875 C 69.054688 -129.65625 65.625 -124.8125 62.96875 -118.6875 C 60.320312 -112.5625 58.40625 -105.703125 57.21875 -98.109375 C 56.03125 -90.515625 55.4375 -82.691406 55.4375 -74.640625 C 55.4375 -61.097656 57.21875 -50.53125 60.78125 -42.9375 C 64.351562 -35.351562 68.835938 -30.050781 74.234375 -27.03125 C 79.628906 -24.007812 85.160156 -22.5 90.828125 -22.5 C 93.753906 -22.5 97.140625 -22.957031 100.984375 -23.875 C 104.828125 -24.789062 108.894531 -26.710938 113.1875 -29.640625 C 117.488281 -32.566406 121.5625 -36.957031 125.40625 -42.8125 L 130.078125 -41.15625 C 128.066406 -34.019531 124.679688 -26.976562 119.921875 -20.03125 C 115.160156 -13.082031 109.03125 -7.363281 101.53125 -2.875 C 94.03125 1.601562 84.882812 3.84375 74.09375 3.84375 C 62.019531 3.84375 51.085938 1.375 41.296875 -3.5625 C 31.515625 -8.507812 23.695312 -16.46875 17.84375 -27.4375 C 11.988281 -38.414062 9.0625 -52.78125 9.0625 -70.53125 C 9.0625 -87.726562 12.078125 -101.859375 18.109375 -112.921875 C 24.148438 -123.992188 32.425781 -132.273438 42.9375 -137.765625 C 53.457031 -143.253906 65.210938 -146 78.203125 -146 Z M 78.203125 -146 "/></g></g></g><g fill="#081b33" fill-opacity="1"><g transform="translate(147.677756, 597.766572)"><g><path d="M 43.640625 1.921875 C 35.222656 1.921875 28.269531 0.320312 22.78125 -2.875 C 17.289062 -6.082031 13.265625 -10.335938 10.703125 -15.640625 C 8.140625 -20.941406 6.859375 -26.613281 6.859375 -32.65625 C 6.859375 -40.34375 8.640625 -46.65625 12.203125 -51.59375 C 15.773438 -56.53125 20.394531 -60.507812 26.0625 -63.53125 C 31.738281 -66.550781 37.6875 -69.066406 43.90625 -71.078125 C 50.125 -73.085938 56.066406 -75.050781 61.734375 -76.96875 C 67.410156 -78.894531 71.988281 -81.179688 75.46875 -83.828125 C 78.945312 -86.484375 80.6875 -89.914062 80.6875 -94.125 L 80.6875 -116.90625 C 80.6875 -120.925781 80.085938 -124.71875 78.890625 -128.28125 C 77.703125 -131.851562 75.597656 -134.78125 72.578125 -137.0625 C 69.566406 -139.351562 65.40625 -140.5 60.09375 -140.5 C 56.800781 -140.5 53.597656 -140.039062 50.484375 -139.125 C 47.378906 -138.21875 44.640625 -136.753906 42.265625 -134.734375 C 48.117188 -132.722656 52.460938 -129.703125 55.296875 -125.671875 C 58.128906 -121.648438 59.546875 -117.171875 59.546875 -112.234375 C 59.546875 -105.460938 57.210938 -100.109375 52.546875 -96.171875 C 47.878906 -92.242188 42.347656 -90.28125 35.953125 -90.28125 C 28.992188 -90.28125 23.640625 -92.472656 19.890625 -96.859375 C 16.140625 -101.253906 14.265625 -106.5625 14.265625 -112.78125 C 14.265625 -118.269531 15.632812 -122.890625 18.375 -126.640625 C 21.125 -130.390625 25.148438 -133.820312 30.453125 -136.9375 C 35.765625 -140.050781 42.171875 -142.335938 49.671875 -143.796875 C 57.171875 -145.265625 65.128906 -146 73.546875 -146 C 82.140625 -146 90.050781 -145.128906 97.28125 -143.390625 C 104.507812 -141.648438 110.6875 -138.21875 115.8125 -133.09375 C 119.832031 -128.882812 122.390625 -123.757812 123.484375 -117.71875 C 124.585938 -111.6875 125.140625 -104.003906 125.140625 -94.671875 L 125.140625 -20.578125 C 125.140625 -16.003906 125.550781 -12.847656 126.375 -11.109375 C 127.195312 -9.367188 128.519531 -8.5 130.34375 -8.5 C 131.988281 -8.5 133.546875 -8.957031 135.015625 -9.875 C 136.484375 -10.789062 137.945312 -11.796875 139.40625 -12.890625 L 142.421875 -8.234375 C 138.398438 -4.941406 133.644531 -2.425781 128.15625 -0.6875 C 122.664062 1.050781 116.71875 1.921875 110.3125 1.921875 C 103 1.921875 97.28125 0.960938 93.15625 -0.953125 C 89.039062 -2.878906 86.113281 -5.488281 84.375 -8.78125 C 82.644531 -12.070312 81.6875 -15.734375 81.5 -19.765625 C 77.476562 -13.171875 72.445312 -7.90625 66.40625 -3.96875 C 60.375 -0.0390625 52.785156 1.921875 43.640625 1.921875 Z M 66.40625 -17.84375 C 69.332031 -17.84375 71.9375 -18.4375 74.21875 -19.625 C 76.507812 -20.8125 78.664062 -22.867188 80.6875 -25.796875 L 80.6875 -82.875 C 79.21875 -80.3125 77.25 -77.882812 74.78125 -75.59375 C 72.3125 -73.3125 69.703125 -71.023438 66.953125 -68.734375 C 64.210938 -66.453125 61.609375 -63.9375 59.140625 -61.1875 C 56.671875 -58.445312 54.65625 -55.203125 53.09375 -51.453125 C 51.539062 -47.703125 50.765625 -43.175781 50.765625 -37.875 C 50.765625 -30.738281 52.226562 -25.613281 55.15625 -22.5 C 58.082031 -19.394531 61.832031 -17.84375 66.40625 -17.84375 Z M 66.40625 -17.84375 "/></g></g></g><g fill="#081b33" fill-opacity="1"><g transform="translate(291.472294, 597.766572)"><g><path d="M 66.140625 -144.890625 L 66.140625 21.953125 C 66.140625 30.734375 68.285156 36.585938 72.578125 39.515625 C 76.878906 42.441406 82.78125 43.90625 90.28125 43.90625 L 90.28125 49.671875 C 85.34375 49.484375 78.484375 49.253906 69.703125 48.984375 C 60.921875 48.710938 51.679688 48.578125 41.984375 48.578125 C 35.035156 48.578125 28.128906 48.710938 21.265625 48.984375 C 14.410156 49.253906 9.242188 49.484375 5.765625 49.671875 L 5.765625 43.90625 C 11.617188 43.90625 15.734375 42.578125 18.109375 39.921875 C 20.484375 37.273438 21.671875 32.203125 21.671875 24.703125 L 21.671875 -111.96875 C 21.671875 -120.195312 20.484375 -126.273438 18.109375 -130.203125 C 15.734375 -134.140625 11.4375 -136.109375 5.21875 -136.109375 L 5.21875 -141.875 C 11.070312 -141.320312 16.742188 -141.046875 22.234375 -141.046875 C 30.648438 -141.046875 38.515625 -141.363281 45.828125 -142 C 53.148438 -142.644531 59.921875 -143.609375 66.140625 -144.890625 Z M 108.125 -146 C 117.457031 -146 125.734375 -143.484375 132.953125 -138.453125 C 140.179688 -133.421875 145.941406 -125.828125 150.234375 -115.671875 C 154.535156 -105.515625 156.6875 -92.753906 156.6875 -77.390625 C 156.6875 -62.929688 155.085938 -50.578125 151.890625 -40.328125 C 148.691406 -30.085938 144.207031 -21.675781 138.4375 -15.09375 C 132.675781 -8.507812 125.90625 -3.707031 118.125 -0.6875 C 110.351562 2.332031 101.988281 3.84375 93.03125 3.84375 C 86.257812 3.84375 79.992188 2.878906 74.234375 0.953125 C 68.472656 -0.960938 63.941406 -4.023438 60.640625 -8.234375 L 63.390625 -11.796875 C 65.035156 -9.234375 67.320312 -7.3125 70.25 -6.03125 C 73.175781 -4.75 76.285156 -4.109375 79.578125 -4.109375 C 87.078125 -4.109375 93.066406 -6.71875 97.546875 -11.9375 C 102.035156 -17.15625 105.285156 -24.789062 107.296875 -34.84375 C 109.304688 -44.90625 110.3125 -57.164062 110.3125 -71.625 C 110.3125 -87.539062 109.394531 -99.9375 107.5625 -108.8125 C 105.738281 -117.6875 103.269531 -123.953125 100.15625 -127.609375 C 97.050781 -131.265625 93.394531 -133.09375 89.1875 -133.09375 C 83.332031 -133.09375 78.070312 -130.847656 73.40625 -126.359375 C 68.738281 -121.878906 66.132812 -115.800781 65.59375 -108.125 L 65.03125 -119.640625 C 68.875 -128.421875 74.546875 -135.007812 82.046875 -139.40625 C 89.546875 -143.800781 98.238281 -146 108.125 -146 Z M 108.125 -146 "/></g></g></g><g fill="#081b33" fill-opacity="1"><g transform="translate(457.76899, 597.766572)"><g><path d="M 43.09375 -213.78125 C 51.6875 -213.78125 58.40625 -211.859375 63.25 -208.015625 C 68.101562 -204.171875 70.53125 -198.585938 70.53125 -191.265625 C 70.53125 -183.953125 68.101562 -178.375 63.25 -174.53125 C 58.40625 -170.6875 51.6875 -168.765625 43.09375 -168.765625 C 34.488281 -168.765625 27.757812 -170.6875 22.90625 -174.53125 C 18.0625 -178.375 15.640625 -183.953125 15.640625 -191.265625 C 15.640625 -198.585938 18.0625 -204.171875 22.90625 -208.015625 C 27.757812 -211.859375 34.488281 -213.78125 43.09375 -213.78125 Z M 67.234375 -145.171875 L 67.234375 -25.515625 C 67.234375 -17.835938 68.46875 -12.625 70.9375 -9.875 C 73.40625 -7.132812 77.660156 -5.765625 83.703125 -5.765625 L 83.703125 0 C 80.035156 -0.1875 74.632812 -0.414062 67.5 -0.6875 C 60.375 -0.957031 53.148438 -1.09375 45.828125 -1.09375 C 38.515625 -1.09375 31.0625 -0.957031 23.46875 -0.6875 C 15.875 -0.414062 10.15625 -0.1875 6.3125 0 L 6.3125 -5.765625 C 12.351562 -5.765625 16.609375 -7.132812 19.078125 -9.875 C 21.546875 -12.625 22.78125 -17.835938 22.78125 -25.515625 L 22.78125 -112.234375 C 22.78125 -120.472656 21.585938 -126.554688 19.203125 -130.484375 C 16.828125 -134.421875 12.53125 -136.390625 6.3125 -136.390625 L 6.3125 -142.15625 C 12.164062 -141.601562 17.835938 -141.328125 23.328125 -141.328125 C 31.554688 -141.328125 39.375 -141.644531 46.78125 -142.28125 C 54.195312 -142.925781 61.015625 -143.890625 67.234375 -145.171875 Z M 67.234375 -145.171875 "/></g></g></g><g fill="#081b33" fill-opacity="1"><g transform="translate(546.405674, 597.766572)"><g><path d="M 65.859375 -186.875 L 65.859375 -142.15625 L 95.5 -142.15625 L 95.5 -136.65625 L 65.859375 -136.65625 L 65.859375 -24.421875 C 65.859375 -19.847656 66.679688 -16.597656 68.328125 -14.671875 C 69.972656 -12.753906 72.441406 -11.796875 75.734375 -11.796875 C 78.484375 -11.796875 81.363281 -12.707031 84.375 -14.53125 C 87.394531 -16.363281 90.1875 -19.476562 92.75 -23.875 L 97.140625 -21.125 C 93.671875 -13.625 88.867188 -7.585938 82.734375 -3.015625 C 76.609375 1.554688 68.601562 3.84375 58.71875 3.84375 C 52.6875 3.84375 47.335938 3.0625 42.671875 1.5 C 38.003906 -0.0507812 34.117188 -2.378906 31.015625 -5.484375 C 26.984375 -9.515625 24.375 -14.5 23.1875 -20.4375 C 22 -26.382812 21.40625 -34.117188 21.40625 -43.640625 L 21.40625 -136.65625 L -0.546875 -136.65625 L -0.546875 -142.15625 L 21.40625 -142.15625 L 21.40625 -176.453125 C 30 -176.453125 37.910156 -177.273438 45.140625 -178.921875 C 52.367188 -180.566406 59.273438 -183.21875 65.859375 -186.875 Z M 65.859375 -186.875 "/></g></g></g><g fill="#081b33" fill-opacity="1"><g transform="translate(642.726012, 597.766572)"><g><path d="M 43.640625 1.921875 C 35.222656 1.921875 28.269531 0.320312 22.78125 -2.875 C 17.289062 -6.082031 13.265625 -10.335938 10.703125 -15.640625 C 8.140625 -20.941406 6.859375 -26.613281 6.859375 -32.65625 C 6.859375 -40.34375 8.640625 -46.65625 12.203125 -51.59375 C 15.773438 -56.53125 20.394531 -60.507812 26.0625 -63.53125 C 31.738281 -66.550781 37.6875 -69.066406 43.90625 -71.078125 C 50.125 -73.085938 56.066406 -75.050781 61.734375 -76.96875 C 67.410156 -78.894531 71.988281 -81.179688 75.46875 -83.828125 C 78.945312 -86.484375 80.6875 -89.914062 80.6875 -94.125 L 80.6875 -116.90625 C 80.6875 -120.925781 80.085938 -124.71875 78.890625 -128.28125 C 77.703125 -131.851562 75.597656 -134.78125 72.578125 -137.0625 C 69.566406 -139.351562 65.40625 -140.5 60.09375 -140.5 C 56.800781 -140.5 53.597656 -140.039062 50.484375 -139.125 C 47.378906 -138.21875 44.640625 -136.753906 42.265625 -134.734375 C 48.117188 -132.722656 52.460938 -129.703125 55.296875 -125.671875 C 58.128906 -121.648438 59.546875 -117.171875 59.546875 -112.234375 C 59.546875 -105.460938 57.210938 -100.109375 52.546875 -96.171875 C 47.878906 -92.242188 42.347656 -90.28125 35.953125 -90.28125 C 28.992188 -90.28125 23.640625 -92.472656 19.890625 -96.859375 C 16.140625 -101.253906 14.265625 -106.5625 14.265625 -112.78125 C 14.265625 -118.269531 15.632812 -122.890625 18.375 -126.640625 C 21.125 -130.390625 25.148438 -133.820312 30.453125 -136.9375 C 35.765625 -140.050781 42.171875 -142.335938 49.671875 -143.796875 C 57.171875 -145.265625 65.128906 -146 73.546875 -146 C 82.140625 -146 90.050781 -145.128906 97.28125 -143.390625 C 104.507812 -141.648438 110.6875 -138.21875 115.8125 -133.09375 C 119.832031 -128.882812 122.390625 -123.757812 123.484375 -117.71875 C 124.585938 -111.6875 125.140625 -104.003906 125.140625 -94.671875 L 125.140625 -20.578125 C 125.140625 -16.003906 125.550781 -12.847656 126.375 -11.109375 C 127.195312 -9.367188 128.519531 -8.5 130.34375 -8.5 C 131.988281 -8.5 133.546875 -8.957031 135.015625 -9.875 C 136.484375 -10.789062 137.945312 -11.796875 139.40625 -12.890625 L 142.421875 -8.234375 C 138.398438 -4.941406 133.644531 -2.425781 128.15625 -0.6875 C 122.664062 1.050781 116.71875 1.921875 110.3125 1.921875 C 103 1.921875 97.28125 0.960938 93.15625 -0.953125 C 89.039062 -2.878906 86.113281 -5.488281 84.375 -8.78125 C 82.644531 -12.070312 81.6875 -15.734375 81.5 -19.765625 C 77.476562 -13.171875 72.445312 -7.90625 66.40625 -3.96875 C 60.375 -0.0390625 52.785156 1.921875 43.640625 1.921875 Z M 66.40625 -17.84375 C 69.332031 -17.84375 71.9375 -18.4375 74.21875 -19.625 C 76.507812 -20.8125 78.664062 -22.867188 80.6875 -25.796875 L 80.6875 -82.875 C 79.21875 -80.3125 77.25 -77.882812 74.78125 -75.59375 C 72.3125 -73.3125 69.703125 -71.023438 66.953125 -68.734375 C 64.210938 -66.453125 61.609375 -63.9375 59.140625 -61.1875 C 56.671875 -58.445312 54.65625 -55.203125 53.09375 -51.453125 C 51.539062 -47.703125 50.765625 -43.175781 50.765625 -37.875 C 50.765625 -30.738281 52.226562 -25.613281 55.15625 -22.5 C 58.082031 -19.394531 61.832031 -17.84375 66.40625 -17.84375 Z M 66.40625 -17.84375 "/></g></g></g><g fill="#081b33" fill-opacity="1"><g transform="translate(786.520557, 597.766572)"><g><path d="M 66.140625 -214.59375 L 66.140625 -25.515625 C 66.140625 -17.835938 67.375 -12.625 69.84375 -9.875 C 72.3125 -7.132812 76.5625 -5.765625 82.59375 -5.765625 L 82.59375 0 C 79.125 -0.1875 73.820312 -0.414062 66.6875 -0.6875 C 59.550781 -0.957031 52.234375 -1.09375 44.734375 -1.09375 C 37.410156 -1.09375 29.953125 -0.957031 22.359375 -0.6875 C 14.773438 -0.414062 9.0625 -0.1875 5.21875 0 L 5.21875 -5.765625 C 11.25 -5.765625 15.5 -7.132812 17.96875 -9.875 C 20.4375 -12.625 21.671875 -17.835938 21.671875 -25.515625 L 21.671875 -181.9375 C 21.671875 -189.988281 20.523438 -195.976562 18.234375 -199.90625 C 15.953125 -203.84375 11.613281 -205.8125 5.21875 -205.8125 L 5.21875 -211.578125 C 11.070312 -211.023438 16.742188 -210.75 22.234375 -210.75 C 30.648438 -210.75 38.515625 -211.066406 45.828125 -211.703125 C 53.148438 -212.347656 59.921875 -213.3125 66.140625 -214.59375 Z M 66.140625 -214.59375 "/></g></g></g></svg>