<svg xmlns="http://www.w3.org/2000/svg" xmlns:xlink="http://www.w3.org/1999/xlink" width="1748" zoomAndPan="magnify" viewBox="0 0 1311 809.999993" height="1080" preserveAspectRatio="xMidYMid meet" version="1.0"><defs><clipPath id="73c37ca01c"><path d="M 0 344 L 1311 344 L 1311 665 L 0 665 Z M 0 344 " clip-rule="nonzero"/></clipPath><clipPath id="c6624d50de"><path d="M 1564.511719 630.007812 L 717.183594 1542.179688 L -253.234375 640.746094 L 594.09375 -271.425781 Z M 1564.511719 630.007812 " clip-rule="nonzero"/></clipPath><clipPath id="b725ae3179"><path d="M 1564.511719 630.007812 L 717.183594 1542.179688 L -253.234375 640.746094 L 594.09375 -271.425781 Z M 1564.511719 630.007812 " clip-rule="nonzero"/></clipPath></defs><g clip-path="url(#73c37ca01c)"><g clip-path="url(#c6624d50de)"><g clip-path="url(#b725ae3179)"><path fill="#f1f3f6" d="M -235.039062 631.03125 C -234.378906 630.328125 -233.675781 629.671875 -232.925781 629.066406 C 230.132812 257.042969 992.078125 248.746094 1539.429688 609.761719 C 1539.964844 610.117188 1540.480469 610.496094 1540.976562 610.90625 C 1541.472656 611.3125 1541.949219 611.742188 1542.40625 612.195312 C 1542.859375 612.648438 1543.289062 613.121094 1543.699219 613.617188 C 1544.105469 614.113281 1544.492188 614.628906 1544.847656 615.160156 C 1545.207031 615.695312 1545.535156 616.246094 1545.839844 616.808594 C 1546.144531 617.375 1546.421875 617.953125 1546.667969 618.546875 C 1546.914062 619.140625 1547.132812 619.742188 1547.320312 620.355469 C 1547.511719 620.972656 1547.667969 621.59375 1547.796875 622.222656 C 1547.921875 622.851562 1548.019531 623.484375 1548.085938 624.125 C 1548.148438 624.761719 1548.183594 625.402344 1548.1875 626.046875 C 1548.1875 626.6875 1548.160156 627.328125 1548.097656 627.96875 C 1548.039062 628.605469 1547.949219 629.242188 1547.824219 629.871094 C 1547.703125 630.503906 1547.550781 631.125 1547.367188 631.742188 C 1547.183594 632.355469 1546.972656 632.960938 1546.726562 633.554688 C 1546.484375 634.148438 1546.214844 634.730469 1545.914062 635.300781 C 1545.617188 635.867188 1545.289062 636.417969 1544.9375 636.957031 C 1544.582031 637.492188 1544.203125 638.007812 1543.800781 638.507812 C 1543.394531 639.007812 1542.96875 639.484375 1542.515625 639.941406 C 1542.066406 640.398438 1541.59375 640.832031 1541.097656 641.242188 C 1540.605469 641.65625 1540.09375 642.039062 1539.5625 642.402344 C 1539.03125 642.761719 1538.484375 643.09375 1537.917969 643.402344 C 1537.355469 643.710938 1536.777344 643.988281 1536.1875 644.238281 C 1535.59375 644.488281 1534.992188 644.710938 1534.378906 644.902344 C 1533.765625 645.09375 1533.144531 645.253906 1532.519531 645.382812 C 1531.890625 645.515625 1531.253906 645.613281 1530.617188 645.683594 C 1529.976562 645.753906 1529.339844 645.789062 1528.695312 645.796875 C 1528.054688 645.800781 1527.414062 645.777344 1526.773438 645.71875 C 1526.132812 645.660156 1525.5 645.574219 1524.867188 645.453125 C 1524.238281 645.335938 1523.613281 645.1875 1522.996094 645.007812 C 1522.378906 644.824219 1521.773438 644.617188 1521.179688 644.375 C 1520.582031 644.136719 1520 643.871094 1519.429688 643.574219 C 1518.859375 643.277344 1518.308594 642.953125 1517.769531 642.601562 C 984.066406 290.589844 242.027344 297.957031 -208.285156 659.742188 C -208.765625 660.128906 -209.261719 660.488281 -209.773438 660.828125 C -210.285156 661.164062 -210.8125 661.480469 -211.355469 661.765625 C -211.898438 662.054688 -212.453125 662.320312 -213.019531 662.554688 C -213.585938 662.792969 -214.164062 663.003906 -214.75 663.1875 C -215.335938 663.367188 -215.929688 663.523438 -216.53125 663.652344 C -217.128906 663.777344 -217.734375 663.878906 -218.347656 663.949219 C -218.957031 664.019531 -219.566406 664.058594 -220.183594 664.074219 C -220.796875 664.085938 -221.410156 664.070312 -222.023438 664.027344 C -222.636719 663.984375 -223.242188 663.910156 -223.851562 663.808594 C -224.457031 663.707031 -225.054688 663.578125 -225.648438 663.421875 C -226.242188 663.265625 -226.828125 663.078125 -227.402344 662.867188 C -227.980469 662.65625 -228.546875 662.417969 -229.101562 662.152344 C -229.652344 661.886719 -230.195312 661.59375 -230.722656 661.28125 C -231.246094 660.964844 -231.757812 660.625 -232.253906 660.261719 C -232.75 659.898438 -233.226562 659.511719 -233.683594 659.101562 C -234.144531 658.695312 -234.582031 658.265625 -235 657.816406 C -235.417969 657.367188 -235.816406 656.898438 -236.191406 656.414062 C -236.566406 655.925781 -236.917969 655.421875 -237.246094 654.902344 C -237.574219 654.382812 -237.875 653.851562 -238.152344 653.300781 C -238.429688 652.753906 -238.683594 652.195312 -238.910156 651.625 C -239.132812 651.050781 -239.332031 650.472656 -239.503906 649.882812 C -239.675781 649.292969 -239.816406 648.695312 -239.933594 648.09375 C -240.046875 647.488281 -240.132812 646.882812 -240.191406 646.269531 C -240.25 645.660156 -240.28125 645.046875 -240.28125 644.429688 C -240.28125 643.816406 -240.253906 643.203125 -240.199219 642.59375 C -240.140625 641.980469 -240.054688 641.375 -239.941406 640.769531 C -239.828125 640.167969 -239.6875 639.570312 -239.519531 638.980469 C -239.347656 638.386719 -239.152344 637.808594 -238.929688 637.234375 C -238.703125 636.664062 -238.453125 636.101562 -238.179688 635.554688 C -237.902344 635.007812 -237.601562 634.472656 -237.273438 633.953125 C -236.949219 633.429688 -236.597656 632.925781 -236.222656 632.441406 C -235.851562 631.953125 -235.457031 631.484375 -235.039062 631.03125 Z M -235.039062 631.03125 " fill-opacity="1" fill-rule="nonzero"/></g></g></g></svg>