<svg xmlns="http://www.w3.org/2000/svg" xmlns:xlink="http://www.w3.org/1999/xlink" width="1640" zoomAndPan="magnify" viewBox="0 0 1230 617.999998" height="824" preserveAspectRatio="xMidYMid meet" version="1.0"><defs><clipPath id="b509bfc1a0"><path d="M 0 91 L 1230 91 L 1230 618 L 0 618 Z M 0 91 " clip-rule="nonzero"/></clipPath><clipPath id="a297c8dfd7"><path d="M -58.175781 26.847656 L 1328.828125 114.175781 L 1288.484375 754.910156 L -98.515625 667.582031 Z M -58.175781 26.847656 " clip-rule="nonzero"/></clipPath><clipPath id="2ee58e02e2"><path d="M -58.175781 26.847656 L 1328.828125 114.175781 L 1288.484375 754.910156 L -98.515625 667.582031 Z M -58.175781 26.847656 " clip-rule="nonzero"/></clipPath></defs><g clip-path="url(#b509bfc1a0)"><g clip-path="url(#a297c8dfd7)"><g clip-path="url(#2ee58e02e2)"><path fill="#5e17eb" d="M 1317.03125 119.550781 C 1298.355469 167.300781 1256.078125 201.332031 1205.816406 210.398438 C 1151.292969 220.34375 1095.761719 203.851562 1046.371094 180.867188 C 1019.65625 168.101562 993.820312 153.476562 967.578125 139.210938 C 942.074219 125.375 916.621094 110.777344 888.949219 101.007812 C 863.515625 92.144531 836.25 88.132812 809.878906 94.117188 C 788.9375 98.914062 769.941406 109.1875 752.019531 120.671875 C 715.742188 144.378906 681.628906 176.25 637.910156 184.582031 C 593.027344 193.222656 548.730469 174.378906 508.996094 155.824219 C 468.53125 136.839844 427.109375 114.738281 381.449219 111.480469 C 331.976562 107.984375 291.371094 133.714844 252.59375 160.703125 C 232.195312 175.089844 211.792969 189.476562 188.585938 199.867188 C 165.785156 209.898438 141.679688 216.40625 117.023438 219.441406 C 67.714844 225.511719 16.273438 216.921875 -28.167969 194.246094 C -38.898438 188.601562 -49.199219 182.21875 -59.09375 175.480469 C -61.28125 173.8125 -63.210938 174.074219 -65.1875 175.097656 C -66.398438 176.167969 -67.636719 177.617188 -67.804688 180.285156 C -71.042969 231.679688 -93.453125 587.660156 -96.714844 639.4375 C -97.171875 646.671875 -97.625 653.90625 -98.082031 661.140625 C -98.273438 664.1875 -95.777344 667.019531 -92.730469 667.210938 C -80.546875 667.976562 -67.984375 668.769531 -55.800781 669.535156 C -22.675781 671.621094 10.828125 673.730469 43.949219 675.816406 C 93.445312 678.933594 142.558594 682.023438 192.054688 685.140625 C 252.207031 688.929688 312.363281 692.714844 372.898438 696.527344 C 438.761719 700.675781 504.246094 704.796875 570.113281 708.945312 C 636.742188 713.140625 703.75 717.359375 770.375 721.554688 C 832.054688 725.4375 894.109375 729.34375 955.789062 733.226562 C 1008.328125 736.535156 1060.867188 739.84375 1113.027344 743.128906 C 1150.71875 745.5 1188.410156 747.875 1226.105469 750.246094 C 1243.996094 751.375 1261.867188 752.878906 1279.40625 753.601562 C 1280.167969 753.648438 1280.929688 753.699219 1281.691406 753.746094 C 1284.734375 753.9375 1287.570312 751.441406 1287.761719 748.394531 C 1290.039062 712.226562 1311.515625 371.097656 1313.792969 334.925781 C 1317.414062 277.4375 1321.054688 219.566406 1324.675781 162.078125 C 1325.515625 148.753906 1326.355469 135.425781 1327.191406 122.101562 C 1328.410156 114.914062 1319.320312 113.578125 1317.03125 119.550781 Z M 1317.03125 119.550781 " fill-opacity="1" fill-rule="nonzero"/></g></g></g></svg>