<svg xmlns="http://www.w3.org/2000/svg" xmlns:xlink="http://www.w3.org/1999/xlink" width="1920" zoomAndPan="magnify" viewBox="0 0 1440 809.999993" height="1080" preserveAspectRatio="xMidYMid meet" version="1.0"><defs><clipPath id="274ea5081e"><path d="M 0 71 L 1440 71 L 1440 808 L 0 808 Z M 0 71 " clip-rule="nonzero"/></clipPath><clipPath id="f04b2e0139"><path d="M -27.4375 0 L 1512.265625 96.941406 L 1467.492188 808.035156 L -72.207031 711.09375 Z M -27.4375 0 " clip-rule="nonzero"/></clipPath><clipPath id="a34ae41a36"><path d="M -27.4375 0 L 1512.265625 96.941406 L 1467.492188 808.035156 L -72.207031 711.09375 Z M -27.4375 0 " clip-rule="nonzero"/></clipPath></defs><rect x="-144" width="1728" fill="#ffffff" y="-80.999999" height="971.999992" fill-opacity="1"/><rect x="-144" width="1728" fill="#ffffff" y="-80.999999" height="971.999992" fill-opacity="1"/><g clip-path="url(#274ea5081e)"><g clip-path="url(#f04b2e0139)"><g clip-path="url(#a34ae41a36)"><path fill="#5e17eb" d="M 1499.488281 102.929688 C 1478.75 155.945312 1431.808594 193.734375 1376 203.800781 C 1315.464844 214.84375 1253.804688 196.53125 1198.964844 171.011719 C 1169.300781 156.835938 1140.613281 140.597656 1111.480469 124.757812 C 1083.160156 109.394531 1054.898438 93.1875 1024.175781 82.339844 C 995.933594 72.496094 965.660156 68.042969 936.378906 74.6875 C 913.128906 80.015625 892.039062 91.421875 872.136719 104.171875 C 831.859375 130.496094 793.980469 165.882812 745.4375 175.136719 C 695.605469 184.730469 646.417969 163.808594 602.300781 143.203125 C 557.371094 122.125 511.378906 97.585938 460.679688 93.96875 C 405.75 90.085938 360.664062 118.652344 317.609375 148.621094 C 294.957031 164.597656 272.308594 180.570312 246.542969 192.105469 C 221.226562 203.246094 194.457031 210.472656 167.082031 213.839844 C 112.332031 220.578125 55.214844 211.042969 5.871094 185.867188 C -6.042969 179.597656 -17.480469 172.511719 -28.46875 165.03125 C -30.898438 163.179688 -33.039062 163.46875 -35.230469 164.605469 C -36.578125 165.792969 -37.953125 167.402344 -38.140625 170.363281 C -41.734375 227.429688 -66.617188 622.683594 -70.238281 680.175781 C -70.742188 688.207031 -71.25 696.238281 -71.753906 704.269531 C -71.96875 707.652344 -69.195312 710.796875 -65.8125 711.011719 C -52.285156 711.863281 -38.335938 712.742188 -24.808594 713.59375 C 11.96875 715.910156 49.167969 718.25 85.945312 720.566406 C 140.902344 724.027344 195.433594 727.460938 250.390625 730.921875 C 317.179688 735.125 383.972656 739.332031 451.1875 743.5625 C 524.320312 748.167969 597.027344 752.746094 670.160156 757.351562 C 744.140625 762.007812 818.539062 766.691406 892.515625 771.351562 C 961 775.660156 1029.90625 780 1098.386719 784.3125 C 1156.722656 787.984375 1215.0625 791.65625 1272.976562 795.304688 C 1314.824219 797.9375 1356.675781 800.574219 1398.527344 803.210938 C 1418.394531 804.460938 1438.238281 806.132812 1457.707031 806.933594 C 1458.554688 806.988281 1459.398438 807.042969 1460.246094 807.09375 C 1463.628906 807.308594 1466.773438 804.535156 1466.984375 801.152344 C 1469.515625 760.992188 1493.363281 382.226562 1495.890625 342.066406 C 1499.910156 278.234375 1503.953125 213.980469 1507.972656 150.148438 C 1508.90625 135.351562 1509.835938 120.554688 1510.769531 105.761719 C 1512.121094 97.78125 1502.027344 96.296875 1499.488281 102.929688 Z M 1499.488281 102.929688 " fill-opacity="1" fill-rule="nonzero"/></g></g></g><path fill="#5e17eb" d="M 0 567 L 1439.964844 567 L 1439.964844 810 L 0 810 Z M 0 567 " fill-opacity="1" fill-rule="nonzero"/></svg>