<svg xmlns="http://www.w3.org/2000/svg" xmlns:xlink="http://www.w3.org/1999/xlink" width="1640" zoomAndPan="magnify" viewBox="0 0 1230 693.000001" height="924" preserveAspectRatio="xMidYMid meet" version="1.0"><defs><clipPath id="8a935a769f"><path d="M 0.886719 0 L 1229.113281 0 L 1229.113281 692 L 0.886719 692 Z M 0.886719 0 " clip-rule="nonzero"/></clipPath><clipPath id="97e6e97d8e"><path d="M 0.886719 295 L 1229.113281 295 L 1229.113281 579 L 0.886719 579 Z M 0.886719 295 " clip-rule="nonzero"/></clipPath></defs><g clip-path="url(#8a935a769f)"><path fill="#ffffff" d="M 0.886719 0 L 1229.113281 0 L 1229.113281 692 L 0.886719 692 Z M 0.886719 0 " fill-opacity="1" fill-rule="nonzero"/><path fill="#ffffff" d="M 0.886719 0 L 1229.113281 0 L 1229.113281 692 L 0.886719 692 Z M 0.886719 0 " fill-opacity="1" fill-rule="nonzero"/></g><g clip-path="url(#97e6e97d8e)"><path fill="#f8fafc" d="M -1706.011719 578.828125 C -1501.363281 578.828125 -1395.941406 527.152344 -1296.71875 477.539062 C -1201.632812 429.996094 -1112.746094 386.585938 -928.773438 386.585938 C -744.796875 386.585938 -655.914062 432.0625 -560.824219 477.539062 C -459.535156 527.152344 -356.179688 578.828125 -151.535156 578.828125 C 53.109375 578.828125 158.535156 527.152344 257.753906 477.539062 C 352.84375 429.996094 441.730469 386.585938 625.703125 386.585938 C 809.675781 386.585938 898.5625 432.0625 993.652344 477.539062 C 1094.941406 527.152344 1198.296875 578.828125 1402.941406 578.828125 C 1607.585938 578.828125 1713.007812 527.152344 1812.230469 477.539062 C 1907.320312 429.996094 1996.203125 386.585938 2180.179688 386.585938 L 2180.179688 295.632812 C 1975.535156 295.632812 1870.109375 347.3125 1770.890625 396.921875 C 1675.800781 444.464844 1586.914062 487.875 1402.941406 487.875 C 1218.96875 487.875 1130.082031 442.398438 1034.992188 396.921875 C 933.703125 347.3125 830.347656 295.632812 625.703125 295.632812 C 421.058594 295.632812 315.636719 347.3125 216.414062 396.921875 C 121.324219 444.464844 32.4375 487.875 -151.535156 487.875 C -335.507812 487.875 -424.394531 442.398438 -519.480469 396.921875 C -620.769531 347.3125 -724.128906 295.632812 -928.773438 295.632812 C -1133.417969 295.632812 -1238.839844 347.3125 -1338.0625 396.921875 C -1433.148438 444.464844 -1522.035156 487.875 -1706.011719 487.875 Z M -1706.011719 578.828125 " fill-opacity="1" fill-rule="nonzero"/></g></svg>