<svg xmlns="http://www.w3.org/2000/svg" xmlns:xlink="http://www.w3.org/1999/xlink" width="5148" zoomAndPan="magnify" viewBox="0 0 3860.88 2834.999876" height="3780" preserveAspectRatio="xMidYMid meet" version="1.0"><defs><clipPath id="690a827c00"><path d="M 0 0.0429688 L 3860.761719 0.0429688 L 3860.761719 2834.953125 L 0 2834.953125 Z M 0 0.0429688 " clip-rule="nonzero"/></clipPath><clipPath id="89cfb8d363"><path d="M 0 1057 L 3859 1057 L 3859 2834.625 L 0 2834.625 Z M 0 1057 " clip-rule="nonzero"/></clipPath></defs><g clip-path="url(#690a827c00)"><path fill="#ffffff" d="M 0 0.0429688 L 3860.878906 0.0429688 L 3860.878906 2834.957031 L 0 2834.957031 Z M 0 0.0429688 " fill-opacity="1" fill-rule="nonzero"/><path fill="#5e17eb" d="M 0 0.0429688 L 3860.878906 0.0429688 L 3860.878906 2834.957031 L 0 2834.957031 Z M 0 0.0429688 " fill-opacity="1" fill-rule="nonzero"/></g><g clip-path="url(#89cfb8d363)"><path fill="#6621ef" d="M 3830.070312 1068.890625 C 3786.605469 1204.582031 3675.300781 1306.347656 3537.492188 1340.269531 C 3388.023438 1377.371094 3231.132812 1341.328125 3090.144531 1286.203125 C 3013.820312 1255.464844 2939.617188 1219.421875 2864.351562 1184.4375 C 2791.210938 1150.515625 2718.066406 1114.476562 2639.621094 1092.214844 C 2567.535156 1072.074219 2491.210938 1065.710938 2419.128906 1086.914062 C 2361.882812 1103.875 2311 1135.675781 2263.300781 1170.65625 C 2166.832031 1242.742188 2077.789062 1337.085938 1958 1367.828125 C 1835.035156 1399.632812 1708.886719 1355.109375 1595.460938 1310.585938 C 1479.914062 1265.003906 1361.1875 1210.941406 1233.980469 1209.878906 C 1096.171875 1208.820312 988.046875 1287.265625 885.21875 1368.890625 C 831.15625 1412.351562 777.09375 1455.816406 714.550781 1488.675781 C 653.066406 1520.476562 587.34375 1542.738281 519.5 1555.460938 C 383.8125 1580.902344 239.640625 1566.0625 112.433594 1510.9375 C 81.691406 1497.15625 52.011719 1481.257812 23.390625 1464.296875 C 17.03125 1460.054688 11.730469 1461.113281 6.429688 1464.296875 C 3.25 1467.476562 0.0703125 1471.714844 0.0703125 1479.136719 C 0.0703125 1622.242188 0.0703125 2613.402344 0.0703125 2757.570312 C 0.0703125 2777.710938 0.0703125 2797.851562 0.0703125 2817.992188 C 0.0703125 2826.472656 7.488281 2833.894531 15.96875 2833.894531 C 49.890625 2833.894531 84.875 2833.894531 118.796875 2833.894531 C 211.019531 2833.894531 304.304688 2833.894531 396.53125 2833.894531 C 534.339844 2833.894531 671.085938 2833.894531 808.894531 2833.894531 C 976.386719 2833.894531 1143.875 2833.894531 1312.425781 2833.894531 C 1495.816406 2833.894531 1678.144531 2833.894531 1861.535156 2833.894531 C 2047.046875 2833.894531 2233.617188 2833.894531 2419.128906 2833.894531 C 2590.859375 2833.894531 2763.648438 2833.894531 2935.378906 2833.894531 C 3081.667969 2833.894531 3227.953125 2833.894531 3373.183594 2833.894531 C 3478.128906 2833.894531 3583.074219 2833.894531 3688.019531 2833.894531 C 3737.84375 2833.894531 3787.667969 2834.953125 3836.429688 2833.894531 C 3838.550781 2833.894531 3840.671875 2833.894531 3842.789062 2833.894531 C 3851.269531 2833.894531 3858.691406 2826.472656 3858.691406 2817.992188 C 3858.691406 2717.289062 3858.691406 1767.472656 3858.691406 1666.765625 C 3858.691406 1506.699219 3858.691406 1345.566406 3858.691406 1185.5 C 3858.691406 1148.398438 3858.691406 1111.292969 3858.691406 1074.191406 C 3860.8125 1054.050781 3835.371094 1051.929688 3830.070312 1068.890625 Z M 3830.070312 1068.890625 " fill-opacity="1" fill-rule="nonzero"/></g></svg>