<svg xmlns="http://www.w3.org/2000/svg" xmlns:xlink="http://www.w3.org/1999/xlink" width="336" zoomAndPan="magnify" viewBox="0 0 252 143.999998" height="192" preserveAspectRatio="xMidYMid meet" version="1.0"><defs><clipPath id="43a9ac5369"><path d="M 128 4 L 252 4 L 252 144 L 128 144 Z M 128 4 " clip-rule="nonzero"/></clipPath><clipPath id="388eae17b2"><path d="M 113.300781 146.433594 L 260.667969 4.289062 L 326.273438 72.304688 L 178.90625 214.449219 Z M 113.300781 146.433594 " clip-rule="nonzero"/></clipPath><clipPath id="27047fe143"><path d="M 113.300781 146.433594 L 260.667969 4.289062 L 326.273438 72.304688 L 178.90625 214.449219 Z M 113.300781 146.433594 " clip-rule="nonzero"/></clipPath></defs><g clip-path="url(#43a9ac5369)"><g clip-path="url(#388eae17b2)"><g clip-path="url(#27047fe143)"><path fill="#5e17eb" d="M 260.320312 5.878906 C 263.660156 12.667969 263.15625 20.660156 259.140625 27.035156 C 254.796875 33.964844 247.472656 38.371094 240.050781 41.460938 C 236 43.101562 231.835938 44.460938 227.667969 45.898438 C 223.621094 47.296875 219.496094 48.617188 215.679688 50.65625 C 212.179688 52.546875 209.027344 55.117188 207.054688 58.585938 C 205.492188 61.34375 204.71875 64.433594 204.1875 67.53125 C 203.15625 73.84375 203.230469 80.730469 199.785156 86.324219 C 196.257812 92.070312 189.796875 95.019531 183.820312 97.5 C 177.722656 100.019531 171.191406 102.328125 166.289062 106.976562 C 160.984375 112.019531 159.742188 119.003906 158.820312 125.914062 C 158.359375 129.566406 157.894531 133.222656 156.714844 136.785156 C 155.539062 140.265625 153.847656 143.539062 151.722656 146.527344 C 147.472656 152.503906 141.414062 157.25 134.519531 159.835938 C 132.839844 160.441406 131.117188 160.925781 129.398438 161.335938 C 129 161.40625 128.835938 161.640625 128.75 161.960938 C 128.746094 162.199219 128.78125 162.476562 129.054688 162.761719 C 134.332031 168.230469 170.871094 206.113281 176.1875 211.625 C 176.929688 212.394531 177.671875 213.164062 178.414062 213.933594 C 178.726562 214.257812 179.285156 214.269531 179.609375 213.957031 C 180.90625 212.707031 182.242188 211.417969 183.539062 210.164062 C 187.0625 206.765625 190.628906 203.324219 194.15625 199.925781 C 199.421875 194.84375 204.648438 189.804688 209.914062 184.722656 C 216.316406 178.546875 222.71875 172.375 229.160156 166.160156 C 236.171875 159.398438 243.140625 152.675781 250.148438 145.914062 C 257.242188 139.074219 264.371094 132.195312 271.460938 125.355469 C 278.027344 119.027344 284.628906 112.65625 291.195312 106.324219 C 296.785156 100.929688 302.378906 95.539062 307.929688 90.183594 C 311.9375 86.3125 315.949219 82.445312 319.960938 78.574219 C 321.867188 76.738281 323.808594 74.941406 325.632812 73.105469 C 325.714844 73.027344 325.796875 72.949219 325.878906 72.871094 C 326.203125 72.558594 326.210938 72 325.898438 71.675781 C 322.1875 67.828125 287.167969 31.523438 283.457031 27.675781 C 277.554688 21.554688 271.613281 15.398438 265.710938 9.277344 C 264.34375 7.859375 262.976562 6.441406 261.609375 5.023438 C 260.945312 4.175781 259.898438 5.035156 260.320312 5.878906 Z M 260.320312 5.878906 " fill-opacity="1" fill-rule="nonzero"/></g></g></g></svg>