<svg xmlns="http://www.w3.org/2000/svg" xmlns:xlink="http://www.w3.org/1999/xlink" width="2640" zoomAndPan="magnify" viewBox="0 0 1980 693.000001" height="924" preserveAspectRatio="xMidYMid meet" version="1.0"><defs><g/><clipPath id="884513c1ad"><path d="M 1.425781 0 L 1978.574219 0 L 1978.574219 692 L 1.425781 692 Z M 1.425781 0 " clip-rule="nonzero"/></clipPath><clipPath id="1f5a31edfa"><path d="M 1.425781 138.785156 L 454.054688 138.785156 L 454.054688 551 L 1.425781 551 Z M 1.425781 138.785156 " clip-rule="nonzero"/></clipPath><clipPath id="a6a99d8dcf"><path d="M 249.488281 399.386719 L 454.359375 399.386719 L 454.359375 558.808594 L 249.488281 558.808594 Z M 249.488281 399.386719 " clip-rule="nonzero"/></clipPath></defs><g clip-path="url(#884513c1ad)"><path fill="#ffffff" d="M 1.425781 0 L 1978.574219 0 L 1978.574219 692 L 1.425781 692 Z M 1.425781 0 " fill-opacity="1" fill-rule="nonzero"/><path fill="#f8fafc" d="M 1.425781 0 L 1978.574219 0 L 1978.574219 692 L 1.425781 692 Z M 1.425781 0 " fill-opacity="1" fill-rule="nonzero"/></g><g clip-path="url(#1f5a31edfa)"><path fill="#1f2937" d="M 339.074219 434.375 C 375.628906 486.203125 412.871094 513.589844 454.351562 550.539062 C 358.679688 553.199219 297.003906 532.015625 269.121094 486.890625 C 268.039062 485.019531 266.953125 483.046875 265.871094 481.078125 C 253.851562 457.433594 251.289062 429.449219 278.1875 412.503906 C 310.796875 391.914062 317.890625 404.425781 339.074219 434.375 Z M 207.738281 338.511719 C 201.730469 338.808594 196.703125 334.175781 196.410156 328.164062 C 196.113281 322.15625 200.746094 317.132812 206.753906 316.835938 C 212.765625 316.539062 217.789062 321.171875 218.085938 327.179688 C 218.378906 333.191406 213.75 338.214844 207.738281 338.511719 Z M 392.871094 255.355469 C 359.566406 186.386719 289.023438 138.800781 207.246094 138.800781 C 150.59375 138.800781 99.164062 161.753906 61.921875 198.898438 C 24.582031 236.144531 1.425781 287.671875 1.425781 344.71875 C 1.425781 401.667969 24.582031 453.292969 61.921875 490.535156 C 99.164062 527.679688 150.496094 550.636719 207.246094 550.636719 C 223.503906 550.636719 239.269531 548.765625 254.34375 545.21875 C 213.652344 531.917969 171.875 504.332031 158.773438 463.246094 C 150.496094 437.332031 151.1875 404.128906 160.742188 363.535156 C 166.65625 338.609375 160.347656 324.71875 134.632812 314.667969 C 156.507812 305.308594 163.894531 306.785156 174.042969 307.082031 C 190.597656 284.222656 226.855469 280.773438 251.683594 293.878906 C 272.472656 304.816406 277.199219 325.113281 285.179688 345.308594 C 297.695312 376.738281 312.078125 407.28125 347.746094 379.792969 C 392.277344 345.605469 420.457031 312.597656 392.871094 255.355469 Z M 392.871094 255.355469 " fill-opacity="1" fill-rule="evenodd"/></g><g clip-path="url(#a6a99d8dcf)"><path fill="#f8fafc" d="M 249.488281 399.386719 L 454.371094 399.386719 L 454.371094 558.808594 L 249.488281 558.808594 Z M 249.488281 399.386719 " fill-opacity="1" fill-rule="nonzero"/></g><g fill="#1f2937" fill-opacity="1"><g transform="translate(454.358751, 452.977419)"><g><path d="M 243.890625 -196.0625 L 297.609375 -196.0625 L 235.265625 0 L 187.03125 0 L 150.96875 -118.8125 L 114.890625 0 L 66.65625 0 L 4.3125 -196.0625 L 58.03125 -196.0625 L 91.359375 -75.671875 L 127.046875 -196.0625 L 174.875 -196.0625 L 210.5625 -75.28125 Z M 243.890625 -196.0625 "/></g></g></g><g fill="#1f2937" fill-opacity="1"><g transform="translate(756.279293, 452.977419)"><g><path d="M 172.140625 -196.0625 L 222.71875 -196.0625 L 222.71875 0 L 172.140625 0 L 172.140625 -23.140625 C 156.972656 -4.054688 135.664062 5.484375 108.21875 5.484375 C 82.082031 5.484375 59.664062 -4.507812 40.96875 -24.5 C 22.28125 -44.5 12.9375 -69.003906 12.9375 -98.015625 C 12.9375 -127.035156 22.28125 -151.546875 40.96875 -171.546875 C 59.664062 -191.546875 82.082031 -201.546875 108.21875 -201.546875 C 135.664062 -201.546875 156.972656 -192.003906 172.140625 -172.921875 Z M 78.8125 -58.21875 C 89.007812 -47.894531 101.945312 -42.734375 117.625 -42.734375 C 133.3125 -42.734375 146.316406 -47.894531 156.640625 -58.21875 C 166.972656 -68.550781 172.140625 -81.820312 172.140625 -98.03125 C 172.140625 -114.238281 166.972656 -127.503906 156.640625 -137.828125 C 146.316406 -148.148438 133.3125 -153.3125 117.625 -153.3125 C 101.945312 -153.3125 89.007812 -148.148438 78.8125 -137.828125 C 68.613281 -127.503906 63.515625 -114.238281 63.515625 -98.03125 C 63.515625 -81.820312 68.613281 -68.550781 78.8125 -58.21875 Z M 78.8125 -58.21875 "/></g></g></g><g fill="#1f2937" fill-opacity="1"><g transform="translate(1001.736729, 452.977419)"><g><path d="M 48.234375 -219.578125 C 39.867188 -219.578125 32.613281 -222.648438 26.46875 -228.796875 C 20.320312 -234.941406 17.25 -242.195312 17.25 -250.5625 C 17.25 -258.925781 20.320312 -266.242188 26.46875 -272.515625 C 32.613281 -278.785156 39.867188 -281.921875 48.234375 -281.921875 C 56.859375 -281.921875 64.238281 -278.785156 70.375 -272.515625 C 76.519531 -266.242188 79.59375 -258.925781 79.59375 -250.5625 C 79.59375 -242.195312 76.519531 -234.941406 70.375 -228.796875 C 64.238281 -222.648438 56.859375 -219.578125 48.234375 -219.578125 Z M 23.140625 0 L 23.140625 -196.0625 L 73.71875 -196.0625 L 73.71875 0 Z M 23.140625 0 "/></g></g></g><g fill="#1f2937" fill-opacity="1"><g transform="translate(1098.58652, 452.977419)"><g><path d="M 135.28125 -147.4375 L 90.96875 -147.4375 L 90.96875 -65.875 C 90.96875 -59.070312 92.664062 -54.101562 96.0625 -50.96875 C 99.46875 -47.832031 104.4375 -46.066406 110.96875 -45.671875 C 117.5 -45.285156 125.601562 -45.351562 135.28125 -45.875 L 135.28125 0 C 100.507812 3.914062 76 0.648438 61.75 -9.796875 C 47.507812 -20.253906 40.390625 -38.945312 40.390625 -65.875 L 40.390625 -147.4375 L 6.28125 -147.4375 L 6.28125 -196.0625 L 40.390625 -196.0625 L 40.390625 -235.65625 L 90.96875 -250.953125 L 90.96875 -196.0625 L 135.28125 -196.0625 Z M 135.28125 -147.4375 "/></g></g></g><g fill="#1f2937" fill-opacity="1"><g transform="translate(1249.546733, 452.977419)"><g><path d="M 23.140625 0 L 23.140625 -286.234375 L 73.71875 -286.234375 L 73.71875 0 Z M 23.140625 0 "/></g></g></g><g fill="#1f2937" fill-opacity="1"><g transform="translate(1346.396523, 452.977419)"><g><path d="M 48.234375 -219.578125 C 39.867188 -219.578125 32.613281 -222.648438 26.46875 -228.796875 C 20.320312 -234.941406 17.25 -242.195312 17.25 -250.5625 C 17.25 -258.925781 20.320312 -266.242188 26.46875 -272.515625 C 32.613281 -278.785156 39.867188 -281.921875 48.234375 -281.921875 C 56.859375 -281.921875 64.238281 -278.785156 70.375 -272.515625 C 76.519531 -266.242188 79.59375 -258.925781 79.59375 -250.5625 C 79.59375 -242.195312 76.519531 -234.941406 70.375 -228.796875 C 64.238281 -222.648438 56.859375 -219.578125 48.234375 -219.578125 Z M 23.140625 0 L 23.140625 -196.0625 L 73.71875 -196.0625 L 73.71875 0 Z M 23.140625 0 "/></g></g></g><g fill="#1f2937" fill-opacity="1"><g transform="translate(1443.24626, 452.977419)"><g><path d="M 69.796875 -140.375 C 69.796875 -135.144531 73.257812 -130.894531 80.1875 -127.625 C 87.113281 -124.363281 95.539062 -121.488281 105.46875 -119 C 115.40625 -116.519531 125.335938 -113.382812 135.265625 -109.59375 C 145.203125 -105.800781 153.632812 -99.460938 160.5625 -90.578125 C 167.488281 -81.691406 170.953125 -70.582031 170.953125 -57.25 C 170.953125 -37.125 163.4375 -21.632812 148.40625 -10.78125 C 133.375 0.0625 114.617188 5.484375 92.140625 5.484375 C 51.890625 5.484375 24.441406 -10.066406 9.796875 -41.171875 L 53.71875 -65.875 C 59.46875 -48.882812 72.273438 -40.390625 92.140625 -40.390625 C 110.179688 -40.390625 119.203125 -46.007812 119.203125 -57.25 C 119.203125 -62.476562 115.738281 -66.722656 108.8125 -69.984375 C 101.882812 -73.253906 93.453125 -76.195312 83.515625 -78.8125 C 73.585938 -81.425781 63.65625 -84.691406 53.71875 -88.609375 C 43.78125 -92.535156 35.347656 -98.742188 28.421875 -107.234375 C 21.492188 -115.734375 18.03125 -126.390625 18.03125 -139.203125 C 18.03125 -158.546875 25.15625 -173.769531 39.40625 -184.875 C 53.65625 -195.988281 71.363281 -201.546875 92.53125 -201.546875 C 108.476562 -201.546875 122.988281 -197.953125 136.0625 -190.765625 C 149.132812 -183.578125 159.457031 -173.316406 167.03125 -159.984375 L 123.90625 -136.453125 C 117.632812 -149.785156 107.175781 -156.453125 92.53125 -156.453125 C 86 -156.453125 80.578125 -155.015625 76.265625 -152.140625 C 71.953125 -149.265625 69.796875 -145.34375 69.796875 -140.375 Z M 69.796875 -140.375 "/></g></g></g><g fill="#1f2937" fill-opacity="1"><g transform="translate(1625.57489, 452.977419)"><g><path d="M 135.28125 -147.4375 L 90.96875 -147.4375 L 90.96875 -65.875 C 90.96875 -59.070312 92.664062 -54.101562 96.0625 -50.96875 C 99.46875 -47.832031 104.4375 -46.066406 110.96875 -45.671875 C 117.5 -45.285156 125.601562 -45.351562 135.28125 -45.875 L 135.28125 0 C 100.507812 3.914062 76 0.648438 61.75 -9.796875 C 47.507812 -20.253906 40.390625 -38.945312 40.390625 -65.875 L 40.390625 -147.4375 L 6.28125 -147.4375 L 6.28125 -196.0625 L 40.390625 -196.0625 L 40.390625 -235.65625 L 90.96875 -250.953125 L 90.96875 -196.0625 L 135.28125 -196.0625 Z M 135.28125 -147.4375 "/></g></g></g><g fill="#1f2937" fill-opacity="1"><g transform="translate(1776.535049, 452.977419)"><g><path d="M 69.796875 -140.375 C 69.796875 -135.144531 73.257812 -130.894531 80.1875 -127.625 C 87.113281 -124.363281 95.539062 -121.488281 105.46875 -119 C 115.40625 -116.519531 125.335938 -113.382812 135.265625 -109.59375 C 145.203125 -105.800781 153.632812 -99.460938 160.5625 -90.578125 C 167.488281 -81.691406 170.953125 -70.582031 170.953125 -57.25 C 170.953125 -37.125 163.4375 -21.632812 148.40625 -10.78125 C 133.375 0.0625 114.617188 5.484375 92.140625 5.484375 C 51.890625 5.484375 24.441406 -10.066406 9.796875 -41.171875 L 53.71875 -65.875 C 59.46875 -48.882812 72.273438 -40.390625 92.140625 -40.390625 C 110.179688 -40.390625 119.203125 -46.007812 119.203125 -57.25 C 119.203125 -62.476562 115.738281 -66.722656 108.8125 -69.984375 C 101.882812 -73.253906 93.453125 -76.195312 83.515625 -78.8125 C 73.585938 -81.425781 63.65625 -84.691406 53.71875 -88.609375 C 43.78125 -92.535156 35.347656 -98.742188 28.421875 -107.234375 C 21.492188 -115.734375 18.03125 -126.390625 18.03125 -139.203125 C 18.03125 -158.546875 25.15625 -173.769531 39.40625 -184.875 C 53.65625 -195.988281 71.363281 -201.546875 92.53125 -201.546875 C 108.476562 -201.546875 122.988281 -197.953125 136.0625 -190.765625 C 149.132812 -183.578125 159.457031 -173.316406 167.03125 -159.984375 L 123.90625 -136.453125 C 117.632812 -149.785156 107.175781 -156.453125 92.53125 -156.453125 C 86 -156.453125 80.578125 -155.015625 76.265625 -152.140625 C 71.953125 -149.265625 69.796875 -145.34375 69.796875 -140.375 Z M 69.796875 -140.375 "/></g></g></g></svg>