<svg xmlns="http://www.w3.org/2000/svg" xmlns:xlink="http://www.w3.org/1999/xlink" width="1920" zoomAndPan="magnify" viewBox="0 0 1440 809.999993" height="1080" preserveAspectRatio="xMidYMid meet" version="1.0"><defs><g/><clipPath id="d977f6c525"><path d="M 0 230.730469 L 381 230.730469 L 381 578 L 0 578 Z M 0 230.730469 " clip-rule="nonzero"/></clipPath><clipPath id="476a191661"><path d="M 214.730469 452.410156 L 381 452.410156 L 381 579.394531 L 214.730469 579.394531 Z M 214.730469 452.410156 " clip-rule="nonzero"/></clipPath></defs><g clip-path="url(#d977f6c525)"><path fill="#1f2937" d="M 284.066406 479.410156 C 314.816406 523.011719 346.148438 546.054688 381.046875 577.136719 C 300.558594 579.375 248.671875 561.554688 225.214844 523.589844 C 224.300781 522.015625 223.390625 520.359375 222.476562 518.699219 C 212.363281 498.808594 210.210938 475.265625 232.839844 461.007812 C 260.277344 443.683594 266.242188 454.210938 284.066406 479.410156 Z M 173.574219 398.757812 C 168.515625 399.007812 164.289062 395.109375 164.039062 390.054688 C 163.792969 385 167.6875 380.769531 172.742188 380.523438 C 177.800781 380.273438 182.027344 384.167969 182.277344 389.226562 C 182.523438 394.28125 178.628906 398.511719 173.574219 398.757812 Z M 329.324219 328.800781 C 301.304688 270.777344 241.957031 230.738281 173.15625 230.738281 C 125.496094 230.738281 82.226562 250.054688 50.894531 281.304688 C 19.480469 312.636719 0 355.988281 0 403.980469 C 0 451.890625 19.480469 495.324219 50.894531 526.660156 C 82.226562 557.90625 125.414062 577.222656 173.15625 577.222656 C 186.835938 577.222656 200.097656 575.644531 212.78125 572.664062 C 178.546875 561.472656 143.398438 538.261719 132.375 503.699219 C 125.414062 481.898438 125.992188 453.964844 134.035156 419.8125 C 139.007812 398.839844 133.703125 387.152344 112.066406 378.699219 C 130.46875 370.824219 136.6875 372.066406 145.222656 372.316406 C 159.148438 353.085938 189.652344 350.183594 210.542969 361.210938 C 228.03125 370.410156 232.011719 387.484375 238.722656 404.476562 C 249.25 430.917969 261.351562 456.617188 291.359375 433.488281 C 328.824219 404.726562 352.53125 376.957031 329.324219 328.800781 Z M 329.324219 328.800781 " fill-opacity="1" fill-rule="evenodd"/></g><g clip-path="url(#476a191661)"><path fill="#f8fafc" d="M 214.730469 452.410156 L 380.902344 452.410156 L 380.902344 579.394531 L 214.730469 579.394531 Z M 214.730469 452.410156 " fill-opacity="1" fill-rule="nonzero"/></g><g fill="#1f2937" fill-opacity="1"><g transform="translate(381.05404, 509.779522)"><g><path d="M 122.15625 -135.46875 L 76.71875 -135.46875 L 76.71875 -65.828125 C 76.71875 -55.347656 79.625 -47.601562 85.4375 -42.59375 C 91.257812 -37.582031 99.238281 -35.078125 109.375 -35.078125 C 114.332031 -35.078125 118.59375 -35.535156 122.15625 -36.453125 L 122.15625 0 C 116.050781 1.382812 108.96875 2.078125 100.90625 2.078125 C 81.4375 2.078125 65.941406 -3.738281 54.421875 -15.375 C 42.910156 -27.007812 37.15625 -43.597656 37.15625 -65.140625 L 37.15625 -135.46875 L 4.3125 -135.46875 L 4.3125 -172.96875 L 37.15625 -172.96875 L 37.15625 -219.4375 L 76.71875 -219.4375 L 76.71875 -172.96875 L 122.15625 -172.96875 Z M 122.15625 -135.46875 "/></g></g></g><g fill="#1f2937" fill-opacity="1"><g transform="translate(485.634809, 509.779522)"><g><path d="M 37.84375 -150.671875 C 55.007812 -167.953125 76.257812 -176.59375 101.59375 -176.59375 C 126.9375 -176.59375 148.25 -167.953125 165.53125 -150.671875 C 182.8125 -133.390625 191.453125 -111.960938 191.453125 -86.390625 C 191.453125 -60.816406 182.8125 -39.445312 165.53125 -22.28125 C 148.25 -5.125 126.9375 3.453125 101.59375 3.453125 C 76.257812 3.453125 55.007812 -5.125 37.84375 -22.28125 C 20.675781 -39.445312 12.09375 -60.816406 12.09375 -86.390625 C 12.09375 -111.960938 20.675781 -133.390625 37.84375 -150.671875 Z M 137.890625 -123.71875 C 128.097656 -133.738281 116 -138.75 101.59375 -138.75 C 87.195312 -138.75 75.160156 -133.738281 65.484375 -123.71875 C 55.804688 -113.695312 50.96875 -101.253906 50.96875 -86.390625 C 50.96875 -71.648438 55.832031 -59.296875 65.5625 -49.328125 C 75.300781 -39.367188 87.3125 -34.390625 101.59375 -34.390625 C 116 -34.390625 128.097656 -39.398438 137.890625 -49.421875 C 147.679688 -59.441406 152.578125 -71.765625 152.578125 -86.390625 C 152.578125 -101.253906 147.679688 -113.695312 137.890625 -123.71875 Z M 137.890625 -123.71875 "/></g></g></g><g fill="#1f2937" fill-opacity="1"><g transform="translate(661.404485, 509.779522)"><g><path d="M 37.84375 -150.671875 C 55.007812 -167.953125 76.257812 -176.59375 101.59375 -176.59375 C 126.9375 -176.59375 148.25 -167.953125 165.53125 -150.671875 C 182.8125 -133.390625 191.453125 -111.960938 191.453125 -86.390625 C 191.453125 -60.816406 182.8125 -39.445312 165.53125 -22.28125 C 148.25 -5.125 126.9375 3.453125 101.59375 3.453125 C 76.257812 3.453125 55.007812 -5.125 37.84375 -22.28125 C 20.675781 -39.445312 12.09375 -60.816406 12.09375 -86.390625 C 12.09375 -111.960938 20.675781 -133.390625 37.84375 -150.671875 Z M 137.890625 -123.71875 C 128.097656 -133.738281 116 -138.75 101.59375 -138.75 C 87.195312 -138.75 75.160156 -133.738281 65.484375 -123.71875 C 55.804688 -113.695312 50.96875 -101.253906 50.96875 -86.390625 C 50.96875 -71.648438 55.832031 -59.296875 65.5625 -49.328125 C 75.300781 -39.367188 87.3125 -34.390625 101.59375 -34.390625 C 116 -34.390625 128.097656 -39.398438 137.890625 -49.421875 C 147.679688 -59.441406 152.578125 -71.765625 152.578125 -86.390625 C 152.578125 -101.253906 147.679688 -113.695312 137.890625 -123.71875 Z M 137.890625 -123.71875 "/></g></g></g><g fill="#1f2937" fill-opacity="1"><g transform="translate(837.174185, 509.779522)"><g><path d="M 60.125 -247.78125 L 60.125 0 L 20.90625 0 L 20.90625 -247.78125 Z M 60.125 -247.78125 "/></g></g></g><g fill="#1f2937" fill-opacity="1"><g transform="translate(890.436743, 509.779522)"><g><path d="M 121.8125 -176.59375 C 144.738281 -176.59375 164.207031 -167.863281 180.21875 -150.40625 C 196.226562 -132.957031 204.234375 -111.734375 204.234375 -86.734375 C 204.234375 -70.378906 200.578125 -55.289062 193.265625 -41.46875 C 185.953125 -27.644531 175.988281 -16.703125 163.375 -8.640625 C 150.757812 -0.578125 136.90625 3.453125 121.8125 3.453125 C 107.988281 3.453125 95.835938 0.457031 85.359375 -5.53125 C 74.878906 -11.519531 66.46875 -20.046875 60.125 -31.109375 L 60.125 0 L 20.90625 0 L 20.90625 -247.78125 L 60.125 -247.78125 L 60.125 -141.859375 C 66.46875 -153.035156 74.878906 -161.617188 85.359375 -167.609375 C 95.835938 -173.597656 107.988281 -176.59375 121.8125 -176.59375 Z M 113.171875 -34.046875 C 127.804688 -34.046875 140.191406 -39.140625 150.328125 -49.328125 C 160.460938 -59.523438 165.53125 -71.992188 165.53125 -86.734375 C 165.53125 -101.253906 160.460938 -113.609375 150.328125 -123.796875 C 140.191406 -133.992188 127.804688 -139.09375 113.171875 -139.09375 C 97.972656 -139.09375 85.332031 -134.082031 75.25 -124.0625 C 65.164062 -114.039062 60.125 -101.597656 60.125 -86.734375 C 60.125 -71.648438 65.164062 -59.097656 75.25 -49.078125 C 85.332031 -39.054688 97.972656 -34.046875 113.171875 -34.046875 Z M 113.171875 -34.046875 "/></g></g></g><g fill="#1f2937" fill-opacity="1"><g transform="translate(1079.338363, 509.779522)"><g><path d="M 22.96875 -245.875 C 27.925781 -250.832031 33.859375 -253.3125 40.765625 -253.3125 C 47.679688 -253.3125 53.644531 -250.832031 58.65625 -245.875 C 63.664062 -240.925781 66.171875 -235.050781 66.171875 -228.25 C 66.171875 -221.226562 63.664062 -215.238281 58.65625 -210.28125 C 53.644531 -205.332031 47.679688 -202.859375 40.765625 -202.859375 C 33.859375 -202.859375 27.925781 -205.332031 22.96875 -210.28125 C 18.019531 -215.238281 15.546875 -221.226562 15.546875 -228.25 C 15.546875 -235.050781 18.019531 -240.925781 22.96875 -245.875 Z M 20.90625 -172.96875 L 60.125 -172.96875 L 60.125 0 L 20.90625 0 Z M 20.90625 -172.96875 "/></g></g></g><g fill="#1f2937" fill-opacity="1"><g transform="translate(1132.600921, 509.779522)"><g><path d="M 106.78125 -176.59375 C 110.582031 -176.59375 116.054688 -175.898438 123.203125 -174.515625 L 123.203125 -138.40625 C 116.515625 -140.019531 110.695312 -140.828125 105.75 -140.828125 C 92.726562 -140.828125 81.867188 -136.503906 73.171875 -127.859375 C 64.472656 -119.222656 60.125 -107.414062 60.125 -92.4375 L 60.125 0 L 20.90625 0 L 20.90625 -172.96875 L 60.125 -172.96875 L 60.125 -149.984375 C 71.070312 -167.722656 86.625 -176.59375 106.78125 -176.59375 Z M 106.78125 -176.59375 "/></g></g></g><g fill="#1f2937" fill-opacity="1"><g transform="translate(1235.453809, 509.779522)"><g><path d="M 156.03125 -247.78125 L 195.765625 -247.78125 L 195.765625 0 L 156.03125 0 L 156.03125 -30.40625 C 149.695312 -19.46875 141.34375 -11.085938 130.96875 -5.265625 C 120.601562 0.546875 108.566406 3.453125 94.859375 3.453125 C 79.765625 3.453125 65.882812 -0.546875 53.21875 -8.546875 C 40.550781 -16.554688 30.53125 -27.5 23.15625 -41.375 C 15.78125 -55.257812 12.09375 -70.378906 12.09375 -86.734375 C 12.09375 -103.097656 15.78125 -118.191406 23.15625 -132.015625 C 30.53125 -145.835938 40.550781 -156.722656 53.21875 -164.671875 C 65.882812 -172.617188 79.765625 -176.59375 94.859375 -176.59375 C 108.566406 -176.59375 120.601562 -173.65625 130.96875 -167.78125 C 141.34375 -161.90625 149.695312 -153.492188 156.03125 -142.546875 Z M 103.328125 -34.046875 C 118.304688 -34.046875 130.832031 -39.082031 140.90625 -49.15625 C 150.988281 -59.238281 156.03125 -71.765625 156.03125 -86.734375 C 156.03125 -101.597656 150.988281 -114.039062 140.90625 -124.0625 C 130.832031 -134.082031 118.304688 -139.09375 103.328125 -139.09375 C 88.703125 -139.09375 76.316406 -133.992188 66.171875 -123.796875 C 56.035156 -113.609375 50.96875 -101.253906 50.96875 -86.734375 C 50.96875 -71.992188 56.035156 -59.523438 66.171875 -49.328125 C 76.316406 -39.140625 88.703125 -34.046875 103.328125 -34.046875 Z M 103.328125 -34.046875 "/></g></g></g><g fill="#5e17eb" fill-opacity="1"><g transform="translate(918.80118, 709.111532)"><g><path d="M 91.28125 -80.78125 C 92.382812 -78.851562 92.992188 -76.984375 93.109375 -75.171875 C 93.253906 -72.679688 92.414062 -70.144531 90.59375 -67.5625 C 90.144531 -66.695312 89.304688 -65.351562 88.078125 -63.53125 C 86.859375 -61.707031 85.804688 -59.859375 84.921875 -57.984375 C 84.046875 -56.109375 83.4375 -54 83.09375 -51.65625 C 82.65625 -47.800781 81.160156 -39.566406 78.609375 -26.953125 L 76.453125 -17.109375 L 73.421875 -1.46875 C 67.523438 24.632812 60.972656 39.894531 53.765625 44.3125 C 51.660156 45.28125 49.617188 45.820312 47.640625 45.9375 C 43.992188 46.164062 40.15625 45.195312 36.125 43.03125 C 32.09375 40.863281 28.539062 37.796875 25.46875 33.828125 C 23.675781 31.617188 21.84375 28.035156 19.96875 23.078125 C 18.09375 18.128906 17.628906 15.296875 18.578125 14.578125 C 18.890625 14.222656 19.460938 14.019531 20.296875 13.96875 C 21.453125 13.894531 22.710938 14.191406 24.078125 14.859375 C 25.453125 15.523438 26.332031 16.347656 26.71875 17.328125 C 27.488281 19.097656 29.039062 21.40625 31.375 24.25 C 33.707031 27.101562 35.378906 28.582031 36.390625 28.6875 C 39.097656 29.851562 41.363281 30.378906 43.1875 30.265625 C 44.6875 30.171875 46.070312 29.585938 47.34375 28.515625 C 49.851562 26.210938 51.953125 23.304688 53.640625 19.796875 C 55.335938 16.285156 57.125 10.734375 59 3.140625 L 60.546875 -4.171875 C 63.628906 -18.972656 65.953125 -28.582031 67.515625 -33 C 68.191406 -35.695312 68.894531 -37.816406 69.625 -39.359375 L 65.390625 -35.109375 C 63.515625 -33.179688 61.550781 -31.320312 59.5 -29.53125 C 57.445312 -27.738281 55.296875 -26.273438 53.046875 -25.140625 C 51.984375 -23.597656 49.132812 -22.679688 44.5 -22.390625 C 41.1875 -22.191406 37.84375 -22.488281 34.46875 -23.28125 C 30.875 -24.882812 28.632812 -26.15625 27.75 -27.09375 C 26.875 -28.039062 25.578125 -30.285156 23.859375 -33.828125 C 23.117188 -35.117188 22.664062 -37.164062 22.5 -39.96875 C 22.0625 -47.09375 23.25 -54.816406 26.0625 -63.140625 C 28.820312 -69.785156 33.375 -76.953125 39.71875 -84.640625 C 46.0625 -92.328125 51.671875 -97.070312 56.546875 -98.875 C 58.460938 -99.988281 60.253906 -100.59375 61.921875 -100.6875 C 63.742188 -100.800781 65.664062 -100.585938 67.6875 -100.046875 C 70.351562 -99.878906 72.453125 -99.421875 73.984375 -98.671875 C 75.523438 -97.929688 78.128906 -96.1875 81.796875 -93.4375 C 86.003906 -89.695312 89.164062 -85.476562 91.28125 -80.78125 Z M 65.453125 -54.546875 C 68.035156 -58.523438 69.773438 -62.742188 70.671875 -67.203125 C 71.566406 -71.660156 71.71875 -76.03125 71.125 -80.3125 C 70.8125 -82.625 70.378906 -84.21875 69.828125 -85.09375 C 69.285156 -85.96875 68.347656 -86.367188 67.015625 -86.296875 C 63.878906 -86.097656 60.332031 -84.382812 56.375 -81.15625 C 52.414062 -77.925781 48.675781 -73.796875 45.15625 -68.765625 C 42.882812 -65.316406 41.0625 -61.222656 39.6875 -56.484375 C 38.03125 -50.734375 37.347656 -45.453125 37.640625 -40.640625 C 37.867188 -37.003906 38.660156 -34.976562 40.015625 -34.5625 C 45.140625 -35.039062 49.722656 -36.816406 53.765625 -39.890625 C 57.816406 -42.960938 61.710938 -47.847656 65.453125 -54.546875 Z M 65.453125 -54.546875 "/></g></g></g><g fill="#5e17eb" fill-opacity="1"><g transform="translate(997.250482, 704.349039)"><g><path d="M 84.125 -5.609375 C 79.925781 -9.171875 76.601562 -14.613281 74.15625 -21.9375 C 73.769531 -22.914062 73.5 -24.644531 73.34375 -27.125 C 73.195312 -29.601562 73.09375 -31.34375 73.03125 -32.34375 C 72.1875 -29.800781 70.503906 -27.457031 67.984375 -25.3125 C 64.398438 -21.269531 60.765625 -18.226562 57.078125 -16.1875 C 51.515625 -12.019531 46.914062 -9.828125 43.28125 -9.609375 C 39.957031 -9.398438 36.703125 -11.03125 33.515625 -14.5 C 31.242188 -16.1875 29.515625 -17.90625 28.328125 -19.65625 C 27.148438 -21.414062 26.484375 -23.617188 26.328125 -26.265625 C 26.210938 -28.085938 26.335938 -30.085938 26.703125 -32.265625 C 26.660156 -38.410156 27.171875 -44.335938 28.234375 -50.046875 C 29.296875 -55.753906 31.546875 -63.117188 34.984375 -72.140625 C 39.640625 -82.890625 43.023438 -90.070312 45.140625 -93.6875 C 45.953125 -94.070312 47.019531 -94.300781 48.34375 -94.375 C 49.988281 -94.476562 51.378906 -94.066406 52.515625 -93.140625 C 53.660156 -92.210938 54.363281 -90.925781 54.625 -89.28125 C 55.164062 -88.644531 55.472656 -87.75 55.546875 -86.59375 C 55.796875 -82.457031 53.722656 -75.519531 49.328125 -65.78125 C 43.828125 -49.832031 41.253906 -38.878906 41.609375 -32.921875 C 41.828125 -29.453125 42.945312 -27.441406 44.96875 -26.890625 C 45.8125 -26.441406 46.734375 -26.25 47.734375 -26.3125 C 51.867188 -26.5625 56.660156 -29.675781 62.109375 -35.65625 C 67.566406 -41.644531 72.5625 -51.003906 77.09375 -63.734375 C 79.082031 -69.503906 80.144531 -75.382812 80.28125 -81.375 C 80.082031 -81.863281 79.953125 -82.601562 79.890625 -83.59375 C 79.710938 -86.570312 81.054688 -89.0625 83.921875 -91.0625 C 84.515625 -92.09375 85.375 -92.929688 86.5 -93.578125 C 87.632812 -94.234375 88.390625 -94.242188 88.765625 -93.609375 L 92.71875 -94.09375 C 93.195312 -94.289062 93.71875 -93.863281 94.28125 -92.8125 C 94.84375 -91.769531 95.382812 -91.097656 95.90625 -90.796875 C 97.125 -89.867188 97.8125 -88.082031 97.96875 -85.4375 C 98.300781 -79.976562 96.410156 -71.472656 92.296875 -59.921875 C 89.546875 -53.109375 87.742188 -47.890625 86.890625 -44.265625 C 86.035156 -40.640625 85.625 -37.175781 85.65625 -33.875 C 86.039062 -27.582031 88.757812 -22.503906 93.8125 -18.640625 C 95.539062 -17.585938 96.609375 -16.410156 97.015625 -15.109375 C 97.421875 -13.804688 97.613281 -11.992188 97.59375 -9.671875 C 97.34375 -8.160156 96.457031 -6.898438 94.9375 -5.890625 C 93.425781 -4.878906 91.757812 -4.316406 89.9375 -4.203125 C 87.789062 -4.078125 85.851562 -4.546875 84.125 -5.609375 Z M 84.125 -5.609375 "/></g></g></g><g fill="#5e17eb" fill-opacity="1"><g transform="translate(1079.423678, 699.360476)"><g><path d="M 45.046875 -111.875 C 43.816406 -112.96875 42.695312 -114.894531 41.6875 -117.65625 C 40.6875 -120.414062 40.601562 -121.820312 41.4375 -121.875 C 42.75 -122.125 44.191406 -123.664062 45.765625 -126.5 C 47.335938 -129.332031 47.988281 -131.65625 47.71875 -133.46875 C 47.675781 -134.125 47.882812 -134.753906 48.34375 -135.359375 C 48.800781 -135.972656 49.359375 -136.382812 50.015625 -136.59375 C 51.285156 -137.5 52.421875 -137.984375 53.421875 -138.046875 C 56.222656 -138.222656 58.90625 -136.394531 61.46875 -132.5625 C 62.601562 -130.46875 63.222656 -128.585938 63.328125 -126.921875 C 63.410156 -125.441406 63.082031 -123.890625 62.34375 -122.265625 C 61.613281 -120.640625 60.25 -118.523438 58.25 -115.921875 C 55.664062 -111.929688 53.128906 -109.863281 50.640625 -109.71875 C 48.992188 -109.613281 47.128906 -110.332031 45.046875 -111.875 Z M 27.078125 -9.609375 C 24.617188 -11.796875 23.257812 -15.039062 23 -19.34375 C 22.851562 -21.65625 23.144531 -23.660156 23.875 -25.359375 C 23.832031 -26.191406 23.9375 -27.195312 24.1875 -28.375 C 24.445312 -29.5625 24.566406 -30.316406 24.546875 -30.640625 C 24.316406 -31.617188 24.816406 -34.394531 26.046875 -38.96875 C 28.617188 -45.75 31.878906 -57.648438 35.828125 -74.671875 C 35.773438 -75.503906 36.0625 -76.226562 36.6875 -76.84375 C 37.320312 -77.46875 38.296875 -77.90625 39.609375 -78.15625 C 40.921875 -78.5625 41.820312 -78.78125 42.3125 -78.8125 C 43.300781 -78.875 44.191406 -78.554688 44.984375 -77.859375 C 45.773438 -77.160156 46.894531 -75.863281 48.34375 -73.96875 C 49.394531 -73.019531 49.976562 -71.550781 50.09375 -69.5625 C 50.289062 -66.425781 49.445312 -62.5625 47.5625 -57.96875 C 45.695312 -53.019531 44.539062 -48.789062 44.09375 -45.28125 C 42.382812 -40.695312 41.0625 -36.460938 40.125 -32.578125 C 39.851562 -31.578125 39.476562 -29.566406 39 -26.546875 C 38.519531 -23.523438 37.757812 -21.066406 36.71875 -19.171875 C 36 -14.484375 35.28125 -11.203125 34.5625 -9.328125 C 33.851562 -7.453125 33 -6.484375 32 -6.421875 C 30.84375 -6.359375 29.203125 -7.421875 27.078125 -9.609375 Z M 27.078125 -9.609375 "/></g></g></g><g fill="#5e17eb" fill-opacity="1"><g transform="translate(1116.165758, 697.129941)"><g><path d="M 90.140625 -0.75 C 86.066406 0.5 83.144531 -1.144531 81.375 -5.6875 C 78.664062 -12.007812 77.097656 -18.726562 76.671875 -25.84375 C 76.546875 -27.820312 76.546875 -29.234375 76.671875 -30.078125 L 76.84375 -35.3125 L 67.625 -27.015625 C 62.613281 -22.066406 57.570312 -18.273438 52.5 -15.640625 C 47.425781 -13.015625 42.734375 -11.566406 38.421875 -11.296875 C 35.585938 -11.628906 32.828125 -12.664062 30.140625 -14.40625 C 27.460938 -16.15625 25.46875 -18.320312 24.15625 -20.90625 C 23.40625 -22.1875 22.953125 -24.15625 22.796875 -26.8125 C 22.421875 -32.9375 23.632812 -40.273438 26.4375 -48.828125 C 29.25 -57.378906 32.96875 -64.539062 37.59375 -70.3125 C 44.0625 -81.5 51.675781 -87.359375 60.4375 -87.890625 C 64.582031 -88.140625 68.796875 -87.15625 73.078125 -84.9375 C 77.316406 -83.519531 79.769531 -82.832031 80.4375 -82.875 C 81.425781 -82.9375 82.144531 -83.394531 82.59375 -84.25 C 83.039062 -85.113281 83.445312 -86.628906 83.8125 -88.796875 C 85.175781 -96.535156 86.53125 -103.019531 87.875 -108.25 C 90.84375 -119.394531 93.445312 -128.359375 95.6875 -135.140625 C 97.9375 -141.921875 100.734375 -149.394531 104.078125 -157.5625 C 105.503906 -161.144531 106.804688 -163.507812 107.984375 -164.65625 C 109.171875 -165.800781 110.515625 -166.34375 112.015625 -166.28125 C 115.648438 -166.5 118.613281 -164.179688 120.90625 -159.328125 C 121.46875 -158.203125 121.785156 -157.054688 121.859375 -155.890625 C 121.929688 -154.742188 121.523438 -153.144531 120.640625 -151.09375 C 116.785156 -143.375 112.226562 -130.882812 106.96875 -113.625 C 101.71875 -96.363281 97.722656 -81.425781 94.984375 -68.8125 C 93.835938 -63.257812 93.035156 -55.316406 92.578125 -44.984375 C 92.117188 -34.660156 92.097656 -26.101562 92.515625 -19.3125 C 92.691406 -16.34375 92.988281 -14.207031 93.40625 -12.90625 C 94.40625 -10.132812 94.972656 -7.671875 95.109375 -5.515625 C 95.210938 -3.859375 94.863281 -2.71875 94.0625 -2.09375 C 93.257812 -1.46875 91.953125 -1.019531 90.140625 -0.75 Z M 46.515625 -25.734375 C 50.273438 -26.796875 54.765625 -29.5625 59.984375 -34.03125 C 60.929688 -34.757812 63.222656 -36.644531 66.859375 -39.6875 C 70.492188 -42.726562 73.207031 -45.878906 75 -49.140625 C 76.789062 -52.410156 77.984375 -56.054688 78.578125 -60.078125 C 78.566406 -63.066406 78.128906 -65.488281 77.265625 -67.34375 C 76.410156 -69.207031 74.851562 -70.988281 72.59375 -72.6875 C 70.851562 -73.738281 68.75 -74.191406 66.28125 -74.046875 C 61.800781 -73.773438 57.769531 -71.703125 54.1875 -67.828125 C 49.957031 -63.585938 46.296875 -58.210938 43.203125 -51.703125 C 40.109375 -45.203125 37.898438 -37.765625 36.578125 -29.390625 C 36.285156 -26.210938 38.039062 -24.738281 41.84375 -24.96875 C 43.832031 -25.082031 45.390625 -25.335938 46.515625 -25.734375 Z M 46.515625 -25.734375 "/></g></g></g><g fill="#5e17eb" fill-opacity="1"><g transform="translate(1204.048891, 691.79474)"><g><path d="M 67.984375 -12.84375 C 64.066406 -8.957031 59.210938 -6.835938 53.421875 -6.484375 C 49.273438 -6.234375 45.28125 -6.988281 41.4375 -8.75 C 37.601562 -10.507812 34.335938 -13.046875 31.640625 -16.359375 C 29.335938 -18.890625 27.585938 -21.78125 26.390625 -25.03125 C 25.191406 -28.28125 24.445312 -32.300781 24.15625 -37.09375 C 24.050781 -38.75 24.015625 -42.070312 24.046875 -47.0625 C 24.179688 -53.21875 25.820312 -59.710938 28.96875 -66.546875 C 32.125 -73.378906 36.191406 -79.5625 41.171875 -85.09375 C 46.160156 -90.625 51.160156 -94.539062 56.171875 -96.84375 C 58.710938 -98.664062 61.0625 -99.640625 63.21875 -99.765625 C 64.382812 -99.835938 65.546875 -99.828125 66.703125 -99.734375 C 67.867188 -99.640625 69.125 -99.550781 70.46875 -99.46875 C 74.125 -99.1875 76.929688 -98.648438 78.890625 -97.859375 C 80.859375 -97.066406 82.554688 -95.800781 83.984375 -94.0625 C 88.378906 -90.164062 90.742188 -85.484375 91.078125 -80.015625 C 90.660156 -76.003906 88.367188 -71.300781 84.203125 -65.90625 C 80.046875 -60.507812 74.921875 -56.046875 68.828125 -52.515625 C 65.910156 -51.335938 62.550781 -50.632812 58.75 -50.40625 C 53.613281 -50.09375 49.40625 -50.921875 46.125 -52.890625 C 44.601562 -53.285156 43.429688 -53.457031 42.609375 -53.40625 C 41.117188 -53.320312 40.054688 -52.265625 39.421875 -50.234375 C 38.796875 -48.203125 38.316406 -44.519531 37.984375 -39.1875 C 37.890625 -38.007812 37.910156 -36.347656 38.046875 -34.203125 C 38.554688 -25.765625 41.648438 -21.300781 47.328125 -20.8125 C 51.179688 -20.21875 53.929688 -19.972656 55.578125 -20.078125 C 57.566406 -20.191406 59.769531 -20.988281 62.1875 -22.46875 L 66.734375 -25.46875 C 67.691406 -26.03125 68.554688 -26.75 69.328125 -27.625 C 70.109375 -28.507812 70.8125 -29.304688 71.4375 -30.015625 C 71.75 -30.359375 72.210938 -30.921875 72.828125 -31.703125 C 73.441406 -32.492188 74.03125 -33.03125 74.59375 -33.3125 C 75.15625 -33.59375 75.6875 -33.75 76.1875 -33.78125 C 76.851562 -33.820312 77.617188 -33.492188 78.484375 -32.796875 C 79.359375 -32.097656 80.054688 -31.597656 80.578125 -31.296875 C 82.066406 -31.390625 82.457031 -30.375 81.75 -28.25 C 81.050781 -26.132812 79.421875 -23.628906 76.859375 -20.734375 C 74.296875 -17.835938 71.335938 -15.207031 67.984375 -12.84375 Z M 64.546875 -65.46875 C 67.285156 -66.800781 70.007812 -69.039062 72.71875 -72.1875 C 75.4375 -75.332031 76.738281 -77.898438 76.625 -79.890625 C 76.5 -81.878906 75.65625 -83.488281 74.09375 -84.71875 C 72.53125 -85.957031 70.421875 -86.5 67.765625 -86.34375 C 65.785156 -86.21875 64.304688 -85.957031 63.328125 -85.5625 C 61.054688 -84.757812 58.429688 -82.816406 55.453125 -79.734375 C 52.484375 -76.648438 49.929688 -73.546875 47.796875 -70.421875 C 45.660156 -67.304688 44.859375 -65.515625 45.390625 -65.046875 C 46.304688 -63.609375 49.582031 -63.0625 55.21875 -63.40625 C 59.019531 -63.632812 62.128906 -64.320312 64.546875 -65.46875 Z M 64.546875 -65.46875 "/></g></g></g><g fill="#5e17eb" fill-opacity="1"><g transform="translate(1275.050454, 687.484384)"><g><path d="M 40.03125 -1.421875 C 36.976562 -2.410156 33.976562 -3.9375 31.03125 -6 C 28.082031 -8.0625 26.0625 -9.890625 24.96875 -11.484375 C 24.945312 -11.816406 24.910156 -12.394531 24.859375 -13.21875 C 24.816406 -14.039062 25.035156 -14.585938 25.515625 -14.859375 C 25.992188 -15.140625 26.894531 -15.320312 28.21875 -15.40625 C 31.03125 -15.570312 35.519531 -15.519531 41.6875 -15.25 C 45.320312 -15.46875 49.429688 -16.171875 54.015625 -17.359375 C 58.597656 -18.546875 61.097656 -19.734375 61.515625 -20.921875 C 62.015625 -20.953125 62.257812 -21.050781 62.25 -21.21875 C 62.238281 -21.550781 61.53125 -22.335938 60.125 -23.578125 C 59.789062 -23.554688 59.023438 -23.800781 57.828125 -24.3125 C 56.628906 -24.820312 55.863281 -25.066406 55.53125 -25.046875 C 55.488281 -25.710938 54.691406 -26.535156 53.140625 -27.515625 C 51.597656 -28.503906 49.890625 -29.359375 48.015625 -30.078125 C 42.972656 -33.753906 39.398438 -36.484375 37.296875 -38.265625 C 35.203125 -40.046875 34.378906 -41.367188 34.828125 -42.234375 L 34.75 -43.46875 C 33.582031 -43.394531 32.195312 -44.929688 30.59375 -48.078125 C 28.988281 -51.222656 28.101562 -54.203125 27.9375 -57.015625 C 27.757812 -59.992188 28.789062 -64.207031 31.03125 -69.65625 C 33.269531 -75.101562 35.945312 -79.582031 39.0625 -83.09375 C 43.425781 -87.6875 49.144531 -92.609375 56.21875 -97.859375 C 63.289062 -103.109375 68.945312 -106.523438 73.1875 -108.109375 C 75.914062 -109.429688 78.691406 -110.175781 81.515625 -110.34375 C 84.160156 -110.507812 86.429688 -110.066406 88.328125 -109.015625 C 90.546875 -107.828125 92.765625 -106.050781 94.984375 -103.6875 C 97.210938 -101.332031 98.71875 -99.179688 99.5 -97.234375 C 99.71875 -93.597656 99.554688 -90.054688 99.015625 -86.609375 C 98.484375 -83.171875 97.472656 -81.410156 95.984375 -81.328125 C 95.816406 -81.316406 95.570312 -81.21875 95.25 -81.03125 C 94.925781 -80.84375 94.785156 -80.421875 94.828125 -79.765625 C 94.859375 -79.097656 94.578125 -78.207031 93.984375 -77.09375 C 93.390625 -75.976562 92.546875 -74.890625 91.453125 -73.828125 C 87.960938 -70.953125 85.0625 -69.445312 82.75 -69.3125 C 80.925781 -69.195312 79.71875 -70.035156 79.125 -71.828125 C 78.769531 -72.140625 78.40625 -72.613281 78.03125 -73.25 C 77.65625 -73.894531 77.21875 -74.203125 76.71875 -74.171875 C 76.550781 -74.160156 76.242188 -74.4375 75.796875 -75 C 75.359375 -75.5625 75.109375 -76.332031 75.046875 -77.3125 C 75.015625 -77.8125 75.1875 -78.359375 75.5625 -78.953125 C 75.9375 -79.554688 76.203125 -79.945312 76.359375 -80.125 C 77.359375 -80.1875 78.894531 -82.234375 80.96875 -86.265625 C 83.039062 -90.296875 84.039062 -92.972656 83.96875 -94.296875 C 83.90625 -95.285156 83.75 -95.851562 83.5 -96 C 83.25 -96.15625 82.457031 -96.195312 81.125 -96.125 C 68.570312 -89.539062 60.8125 -84.664062 57.84375 -81.5 C 57.414062 -80.476562 57.085938 -79.789062 56.859375 -79.4375 C 56.628906 -79.09375 56.179688 -78.898438 55.515625 -78.859375 C 55.421875 -80.347656 51.375 -74.457031 43.375 -61.1875 C 43.070312 -60.832031 42.765625 -59.816406 42.453125 -58.140625 C 42.140625 -56.472656 42.015625 -55.054688 42.078125 -53.890625 C 41.828125 -52.546875 41.707031 -51.789062 41.71875 -51.625 C 41.757812 -50.957031 42.09375 -50.3125 42.71875 -49.6875 C 43.34375 -49.0625 44.171875 -48.40625 45.203125 -47.71875 C 46.234375 -47.039062 47.269531 -46.316406 48.3125 -45.546875 C 57.3125 -39.609375 63.601562 -35.125 67.1875 -32.09375 C 70.78125 -29.070312 72.972656 -26.507812 73.765625 -24.40625 C 76.117188 -21.226562 77.378906 -18.316406 77.546875 -15.671875 C 77.660156 -13.679688 77.015625 -11.894531 75.609375 -10.3125 C 74.210938 -8.738281 72.066406 -7.203125 69.171875 -5.703125 C 67.398438 -4.753906 64.378906 -3.859375 60.109375 -3.015625 C 55.847656 -2.171875 51.644531 -1.625 47.5 -1.375 C 45.1875 -1.238281 42.695312 -1.253906 40.03125 -1.421875 Z M 40.03125 -1.421875 "/></g></g></g></svg>