<svg xmlns="http://www.w3.org/2000/svg" xmlns:xlink="http://www.w3.org/1999/xlink" width="336" zoomAndPan="magnify" viewBox="0 0 252 143.999998" height="192" preserveAspectRatio="xMidYMid meet" version="1.0"><defs><g/><clipPath id="35792e9f6a"><path d="M 1.328125 44.582031 L 56.402344 44.582031 L 56.402344 99.652344 L 1.328125 99.652344 Z M 1.328125 44.582031 " clip-rule="nonzero"/></clipPath><clipPath id="22850c0505"><path d="M 28.867188 44.582031 C 13.65625 44.582031 1.328125 56.910156 1.328125 72.117188 C 1.328125 87.324219 13.65625 99.652344 28.867188 99.652344 C 44.074219 99.652344 56.402344 87.324219 56.402344 72.117188 C 56.402344 56.910156 44.074219 44.582031 28.867188 44.582031 Z M 28.867188 44.582031 " clip-rule="nonzero"/></clipPath><clipPath id="ce82e8d5ec"><path d="M 0 56.726562 L 62.476562 56.726562 L 62.476562 89 L 0 89 Z M 0 56.726562 " clip-rule="nonzero"/></clipPath></defs><g clip-path="url(#35792e9f6a)"><g clip-path="url(#22850c0505)"><path fill="#5e17eb" d="M 1.328125 44.582031 L 56.402344 44.582031 L 56.402344 99.652344 L 1.328125 99.652344 Z M 1.328125 44.582031 " fill-opacity="1" fill-rule="nonzero"/></g></g><g clip-path="url(#ce82e8d5ec)"><path fill="#ffffff" d="M 1.175781 56.863281 C 1.160156 56.792969 1.238281 56.742188 1.296875 56.78125 C 2.261719 57.382812 7.726562 60.617188 14.894531 61.546875 C 22.597656 62.542969 21.15625 66.257812 27.453125 69.222656 C 27.785156 69.378906 28.15625 69.417969 28.507812 69.335938 C 30.109375 68.960938 35.027344 67.96875 38.175781 68.960938 C 41.191406 69.914062 40.207031 71.617188 39.667969 72.207031 C 39.574219 72.304688 39.53125 72.441406 39.542969 72.578125 C 39.582031 73.027344 39.632812 74.003906 39.332031 74.289062 C 39.300781 74.316406 39.253906 74.296875 39.246094 74.257812 C 39.191406 73.929688 38.953125 72.75 38.453125 72.625 C 37.871094 72.476562 34.894531 73.945312 34.894531 73.945312 C 34.894531 73.945312 44.144531 75.558594 48.9375 78.140625 C 53.6875 80.703125 55.945312 84.457031 62.359375 86.988281 C 62.410156 87.007812 62.40625 87.085938 62.351562 87.097656 C 61.839844 87.230469 60.226562 87.535156 58.359375 86.859375 L 59.46875 88 C 59.53125 88.066406 59.480469 88.171875 59.390625 88.167969 C 58.726562 88.132812 56.703125 87.902344 53.382812 86.457031 L 55.054688 88.222656 C 55.109375 88.277344 55.054688 88.367188 54.984375 88.347656 C 53.449219 87.921875 45.359375 85.632812 39.804688 82.875 C 35.019531 80.503906 29.976562 80.007812 27.96875 79.90625 C 27.371094 79.875 26.777344 80.019531 26.261719 80.320312 C 24.648438 81.257812 21.074219 83.628906 19.710938 86.9375 C 19.699219 86.972656 19.683594 87.003906 19.671875 87.039062 C 17.933594 91.425781 17.121094 84.40625 17.121094 84.40625 C 17.121094 84.40625 13.097656 86.105469 14.132812 82.53125 C 14.132812 82.53125 10.054688 82.980469 11.957031 80.367188 C 11.957031 80.367188 5.878906 81.691406 6.632812 80.105469 C 6.660156 80.042969 6.695312 79.976562 6.75 79.90625 C 8.355469 77.871094 16.949219 76.007812 19.292969 75.53125 C 19.554688 75.480469 19.660156 75.15625 19.472656 74.960938 C 18.34375 73.757812 14.824219 70.367188 8.289062 67.046875 C 2.351562 64.03125 1.5 61.9375 1.382812 61.363281 C 1.367188 61.285156 1.429688 61.210938 1.511719 61.222656 L 3.511719 61.496094 C 3.511719 61.496094 0.644531 59.949219 0.0234375 58.5 C 0 58.445312 0.0507812 58.386719 0.109375 58.402344 L 2.183594 58.929688 C 2.183594 58.929688 1.394531 58.054688 1.175781 56.863281 " fill-opacity="1" fill-rule="nonzero"/></g><g fill="#5e17eb" fill-opacity="1"><g transform="translate(69.57654, 86.945635)"><g><path d="M 11.0625 0.46875 C 8.65625 0.46875 6.765625 -0.285156 5.390625 -1.796875 C 4.015625 -3.316406 3.328125 -5.488281 3.328125 -8.3125 L 3.328125 -19.5625 L 1.515625 -19.5625 C 1.203125 -19.5625 0.941406 -19.664062 0.734375 -19.875 C 0.523438 -20.082031 0.421875 -20.34375 0.421875 -20.65625 L 0.421875 -21.703125 C 0.421875 -22.429688 0.785156 -22.796875 1.515625 -22.796875 L 2.421875 -22.796875 C 3.878906 -22.796875 5.128906 -23.226562 6.171875 -24.09375 C 7.210938 -24.96875 7.894531 -26.132812 8.21875 -27.59375 C 8.375 -28.414062 8.800781 -28.828125 9.5 -28.828125 L 10.59375 -28.828125 C 11.445312 -28.828125 11.875 -28.414062 11.875 -27.59375 L 11.875 -22.796875 L 16.765625 -22.796875 C 17.078125 -22.796875 17.335938 -22.691406 17.546875 -22.484375 C 17.753906 -22.273438 17.859375 -22.015625 17.859375 -21.703125 L 17.859375 -20.65625 C 17.859375 -20.34375 17.753906 -20.082031 17.546875 -19.875 C 17.335938 -19.664062 17.078125 -19.5625 16.765625 -19.5625 L 11.875 -19.5625 L 11.875 -8.171875 C 11.875 -7.378906 12.078125 -6.753906 12.484375 -6.296875 C 12.898438 -5.835938 13.410156 -5.609375 14.015625 -5.609375 C 15.367188 -5.609375 16.410156 -6.191406 17.140625 -7.359375 C 17.359375 -7.640625 17.609375 -7.804688 17.890625 -7.859375 C 18.179688 -7.910156 18.429688 -7.851562 18.640625 -7.6875 C 18.847656 -7.53125 18.953125 -7.3125 18.953125 -7.03125 C 18.953125 -5.03125 18.242188 -3.28125 16.828125 -1.78125 C 15.421875 -0.28125 13.5 0.46875 11.0625 0.46875 Z M 11.0625 0.46875 "/></g></g></g><g fill="#5e17eb" fill-opacity="1"><g transform="translate(88.710794, 86.945635)"><g><path d="M 14.15625 0.46875 C 10.476562 0.46875 7.363281 -0.660156 4.8125 -2.921875 C 2.269531 -5.179688 1 -8.019531 1 -11.4375 C 1 -14.863281 2.265625 -17.691406 4.796875 -19.921875 C 7.328125 -22.148438 10.332031 -23.265625 13.8125 -23.265625 C 17.425781 -23.265625 20.5 -22.140625 23.03125 -19.890625 C 25.5625 -17.648438 26.828125 -14.800781 26.828125 -11.34375 C 26.828125 -7.925781 25.59375 -5.101562 23.125 -2.875 C 20.65625 -0.644531 17.664062 0.46875 14.15625 0.46875 Z M 15.140625 -1.859375 C 17.171875 -1.859375 18.1875 -3.800781 18.1875 -7.6875 C 18.1875 -9.113281 17.988281 -10.804688 17.59375 -12.765625 C 17.195312 -14.734375 16.53125 -16.585938 15.59375 -18.328125 C 14.664062 -20.066406 13.628906 -20.9375 12.484375 -20.9375 C 11.378906 -20.9375 10.585938 -20.445312 10.109375 -19.46875 C 9.640625 -18.488281 9.40625 -17 9.40625 -15 C 9.40625 -13.957031 9.53125 -12.722656 9.78125 -11.296875 C 10.03125 -9.878906 10.375 -8.445312 10.8125 -7 C 11.257812 -5.5625 11.867188 -4.34375 12.640625 -3.34375 C 13.421875 -2.351562 14.253906 -1.859375 15.140625 -1.859375 Z M 15.140625 -1.859375 "/></g></g></g><g fill="#5e17eb" fill-opacity="1"><g transform="translate(116.581278, 86.945635)"><g><path d="M 14.15625 0.46875 C 10.476562 0.46875 7.363281 -0.660156 4.8125 -2.921875 C 2.269531 -5.179688 1 -8.019531 1 -11.4375 C 1 -14.863281 2.265625 -17.691406 4.796875 -19.921875 C 7.328125 -22.148438 10.332031 -23.265625 13.8125 -23.265625 C 17.425781 -23.265625 20.5 -22.140625 23.03125 -19.890625 C 25.5625 -17.648438 26.828125 -14.800781 26.828125 -11.34375 C 26.828125 -7.925781 25.59375 -5.101562 23.125 -2.875 C 20.65625 -0.644531 17.664062 0.46875 14.15625 0.46875 Z M 15.140625 -1.859375 C 17.171875 -1.859375 18.1875 -3.800781 18.1875 -7.6875 C 18.1875 -9.113281 17.988281 -10.804688 17.59375 -12.765625 C 17.195312 -14.734375 16.53125 -16.585938 15.59375 -18.328125 C 14.664062 -20.066406 13.628906 -20.9375 12.484375 -20.9375 C 11.378906 -20.9375 10.585938 -20.445312 10.109375 -19.46875 C 9.640625 -18.488281 9.40625 -17 9.40625 -15 C 9.40625 -13.957031 9.53125 -12.722656 9.78125 -11.296875 C 10.03125 -9.878906 10.375 -8.445312 10.8125 -7 C 11.257812 -5.5625 11.867188 -4.34375 12.640625 -3.34375 C 13.421875 -2.351562 14.253906 -1.859375 15.140625 -1.859375 Z M 15.140625 -1.859375 "/></g></g></g><g fill="#5e17eb" fill-opacity="1"><g transform="translate(144.451762, 86.945635)"><g><path d="M 2.09375 0 C 1.363281 0 1 -0.300781 1 -0.90625 L 1 -1.09375 C 1 -1.46875 1.304688 -2.039062 1.921875 -2.8125 C 2.535156 -3.59375 2.84375 -4.378906 2.84375 -5.171875 L 2.84375 -26.875 C 2.84375 -27.695312 2.535156 -28.492188 1.921875 -29.265625 C 1.304688 -30.046875 1 -30.59375 1 -30.90625 L 1 -31.109375 C 1 -31.453125 1.347656 -31.8125 2.046875 -32.1875 L 9.21875 -35.703125 C 9.875 -35.992188 10.398438 -36.019531 10.796875 -35.78125 C 11.191406 -35.539062 11.390625 -35.1875 11.390625 -34.71875 L 11.390625 -5.171875 C 11.390625 -4.378906 11.738281 -3.59375 12.4375 -2.8125 C 13.132812 -2.039062 13.484375 -1.46875 13.484375 -1.09375 L 13.484375 -0.90625 C 13.484375 -0.300781 13.101562 0 12.34375 0 Z M 2.09375 0 "/></g></g></g><g fill="#5e17eb" fill-opacity="1"><g transform="translate(158.838061, 86.945635)"><g><path d="M 16.1875 -23.265625 C 19.132812 -23.265625 21.738281 -22.257812 24 -20.25 C 26.269531 -18.238281 27.40625 -15.429688 27.40625 -11.828125 C 27.40625 -8.179688 26.300781 -5.21875 24.09375 -2.9375 C 21.894531 -0.664062 19.257812 0.46875 16.1875 0.46875 C 13.84375 0.46875 11.929688 -0.222656 10.453125 -1.609375 L 10.453125 -1.1875 C 10.453125 -0.363281 10.039062 0.046875 9.21875 0.046875 L 2.046875 0 C 1.316406 0 0.953125 -0.300781 0.953125 -0.90625 L 0.953125 -1.09375 C 0.953125 -1.46875 1.265625 -2.039062 1.890625 -2.8125 C 2.523438 -3.59375 2.84375 -4.394531 2.84375 -5.21875 L 2.84375 -26.828125 C 2.84375 -27.648438 2.453125 -28.414062 1.671875 -29.125 C 0.898438 -29.84375 0.515625 -30.390625 0.515625 -30.765625 L 0.515625 -30.953125 C 0.515625 -31.460938 0.941406 -31.910156 1.796875 -32.296875 L 9.109375 -35.65625 C 9.710938 -35.976562 10.234375 -36.039062 10.671875 -35.84375 C 11.117188 -35.65625 11.34375 -35.226562 11.34375 -34.5625 L 11.34375 -21.84375 C 12.582031 -22.789062 14.195312 -23.265625 16.1875 -23.265625 Z M 15.4375 -1.859375 C 17.84375 -1.859375 19.046875 -3.847656 19.046875 -7.828125 C 19.046875 -9.734375 18.894531 -11.632812 18.59375 -13.53125 C 18.289062 -15.425781 17.75 -17.132812 16.96875 -18.65625 C 16.195312 -20.175781 15.273438 -20.9375 14.203125 -20.9375 C 13.347656 -20.9375 12.65625 -20.5625 12.125 -19.8125 C 11.601562 -19.070312 11.34375 -18.054688 11.34375 -16.765625 L 11.34375 -7.546875 C 11.34375 -6.085938 11.757812 -4.773438 12.59375 -3.609375 C 13.4375 -2.441406 14.382812 -1.859375 15.4375 -1.859375 Z M 15.4375 -1.859375 "/></g></g></g><g fill="#5e17eb" fill-opacity="1"><g transform="translate(187.230821, 86.945635)"><g><path d="M 7.546875 -25.59375 C 5.929688 -25.59375 4.617188 -26.039062 3.609375 -26.9375 C 2.597656 -27.84375 2.09375 -28.976562 2.09375 -30.34375 C 2.09375 -31.707031 2.597656 -32.835938 3.609375 -33.734375 C 4.617188 -34.640625 5.929688 -35.09375 7.546875 -35.09375 C 9.128906 -35.09375 10.425781 -34.640625 11.4375 -33.734375 C 12.457031 -32.835938 12.96875 -31.707031 12.96875 -30.34375 C 12.96875 -28.976562 12.457031 -27.84375 11.4375 -26.9375 C 10.425781 -26.039062 9.128906 -25.59375 7.546875 -25.59375 Z M 2.46875 0 C 1.707031 0 1.328125 -0.300781 1.328125 -0.90625 L 1.328125 -1.09375 C 1.328125 -1.46875 1.644531 -2.050781 2.28125 -2.84375 C 2.914062 -3.632812 3.234375 -4.425781 3.234375 -5.21875 L 3.234375 -14.25 C 3.234375 -15.070312 2.914062 -15.867188 2.28125 -16.640625 C 1.644531 -17.421875 1.328125 -17.953125 1.328125 -18.234375 L 1.328125 -18.421875 C 1.328125 -18.804688 1.691406 -19.171875 2.421875 -19.515625 L 9.59375 -23.03125 C 10.257812 -23.3125 10.78125 -23.34375 11.15625 -23.125 C 11.539062 -22.90625 11.734375 -22.539062 11.734375 -22.03125 L 11.734375 -5.21875 C 11.734375 -4.425781 12.085938 -3.632812 12.796875 -2.84375 C 13.503906 -2.050781 13.859375 -1.46875 13.859375 -1.09375 L 13.859375 -0.90625 C 13.859375 -0.300781 13.460938 0 12.671875 0 Z M 2.46875 0 "/></g></g></g><g fill="#5e17eb" fill-opacity="1"><g transform="translate(201.949477, 86.945635)"><g><path d="M 17.09375 -23.265625 C 18.457031 -23.265625 19.539062 -22.820312 20.34375 -21.9375 C 21.15625 -21.050781 21.5625 -19.925781 21.5625 -18.5625 C 21.5625 -15.59375 20.34375 -14.109375 17.90625 -14.109375 C 16.914062 -14.109375 16.164062 -14.335938 15.65625 -14.796875 C 15.15625 -15.253906 14.863281 -15.765625 14.78125 -16.328125 C 14.707031 -16.898438 14.539062 -17.414062 14.28125 -17.875 C 14.03125 -18.332031 13.65625 -18.5625 13.15625 -18.5625 C 11.976562 -18.5625 11.390625 -17.046875 11.390625 -14.015625 L 11.390625 -5.171875 C 11.390625 -4.378906 11.804688 -3.59375 12.640625 -2.8125 C 13.484375 -2.039062 13.90625 -1.46875 13.90625 -1.09375 L 13.90625 -0.90625 C 13.90625 -0.300781 13.523438 0 12.765625 0 L 2.5625 0 C 1.800781 0 1.421875 -0.300781 1.421875 -0.90625 L 1.421875 -1.09375 C 1.421875 -1.46875 1.738281 -2.039062 2.375 -2.8125 C 3.007812 -3.59375 3.328125 -4.378906 3.328125 -5.171875 L 3.328125 -14.625 C 3.328125 -15.257812 3.132812 -15.796875 2.75 -16.234375 C 2.375 -16.679688 1.992188 -17.0625 1.609375 -17.375 C 1.234375 -17.695312 1.046875 -18.046875 1.046875 -18.421875 L 1.046875 -18.5625 C 1.046875 -19.101562 1.410156 -19.5625 2.140625 -19.9375 L 8.828125 -23.078125 C 9.460938 -23.296875 9.90625 -23.3125 10.15625 -23.125 C 10.414062 -22.9375 10.546875 -22.570312 10.546875 -22.03125 L 10.546875 -18.5625 C 11.617188 -21.695312 13.800781 -23.265625 17.09375 -23.265625 Z M 17.09375 -23.265625 "/></g></g></g><g fill="#5e17eb" fill-opacity="1"><g transform="translate(223.505178, 86.945635)"><g><path d="M 25.265625 -5.171875 C 25.265625 -4.378906 25.578125 -3.59375 26.203125 -2.8125 C 26.835938 -2.039062 27.15625 -1.46875 27.15625 -1.09375 L 27.15625 -0.90625 C 27.15625 -0.300781 26.789062 0 26.0625 0 L 19.28125 0 C 18.457031 0 18.046875 -0.394531 18.046875 -1.1875 L 18.046875 -1.609375 C 16.554688 -0.222656 14.625 0.46875 12.25 0.46875 C 9.175781 0.46875 6.539062 -0.582031 4.34375 -2.6875 C 2.144531 -4.789062 1.046875 -7.691406 1.046875 -11.390625 C 1.046875 -14.847656 2.148438 -17.691406 4.359375 -19.921875 C 6.578125 -22.148438 9.222656 -23.265625 12.296875 -23.265625 C 14.222656 -23.265625 15.851562 -22.820312 17.1875 -21.9375 L 17.1875 -28.25 C 17.1875 -28.882812 16.976562 -29.429688 16.5625 -29.890625 C 16.15625 -30.347656 15.738281 -30.742188 15.3125 -31.078125 C 14.882812 -31.410156 14.671875 -31.765625 14.671875 -32.140625 L 14.671875 -32.296875 C 14.671875 -32.890625 15.035156 -33.300781 15.765625 -33.53125 L 23.171875 -35.75 C 24.566406 -36.195312 25.265625 -35.816406 25.265625 -34.609375 Z M 14.15625 -1.859375 C 15.007812 -1.816406 15.726562 -2.160156 16.3125 -2.890625 C 16.894531 -3.617188 17.1875 -4.601562 17.1875 -5.84375 L 17.1875 -15 C 17.1875 -16.519531 16.75 -17.890625 15.875 -19.109375 C 15.007812 -20.328125 14.023438 -20.9375 12.921875 -20.9375 C 10.578125 -20.9375 9.328125 -18.988281 9.171875 -15.09375 C 9.097656 -13.613281 9.226562 -11.890625 9.5625 -9.921875 C 9.894531 -7.960938 10.460938 -6.132812 11.265625 -4.4375 C 12.078125 -2.75 13.039062 -1.890625 14.15625 -1.859375 Z M 14.15625 -1.859375 "/></g></g></g></svg>