<svg xmlns="http://www.w3.org/2000/svg" xmlns:xlink="http://www.w3.org/1999/xlink" width="1920" zoomAndPan="magnify" viewBox="0 0 1440 809.999993" height="1080" preserveAspectRatio="xMidYMid meet" version="1.0"><defs><g/><clipPath id="2e0701d630"><path d="M 0 230.730469 L 381 230.730469 L 381 578 L 0 578 Z M 0 230.730469 " clip-rule="nonzero"/></clipPath><clipPath id="8afecf57d8"><path d="M 214.730469 452.410156 L 381 452.410156 L 381 579.394531 L 214.730469 579.394531 Z M 214.730469 452.410156 " clip-rule="nonzero"/></clipPath></defs><g clip-path="url(#2e0701d630)"><path fill="#1f2937" d="M 284.066406 479.410156 C 314.816406 523.011719 346.148438 546.054688 381.046875 577.136719 C 300.558594 579.375 248.671875 561.554688 225.214844 523.589844 C 224.300781 522.015625 223.390625 520.359375 222.476562 518.699219 C 212.363281 498.808594 210.210938 475.265625 232.839844 461.007812 C 260.277344 443.683594 266.242188 454.210938 284.066406 479.410156 Z M 173.574219 398.757812 C 168.515625 399.007812 164.289062 395.109375 164.039062 390.054688 C 163.792969 385 167.6875 380.769531 172.742188 380.523438 C 177.800781 380.273438 182.027344 384.167969 182.277344 389.226562 C 182.523438 394.28125 178.628906 398.511719 173.574219 398.757812 Z M 329.324219 328.800781 C 301.304688 270.777344 241.957031 230.738281 173.15625 230.738281 C 125.496094 230.738281 82.226562 250.054688 50.894531 281.304688 C 19.480469 312.636719 0 355.988281 0 403.980469 C 0 451.890625 19.480469 495.324219 50.894531 526.660156 C 82.226562 557.90625 125.414062 577.222656 173.15625 577.222656 C 186.835938 577.222656 200.097656 575.644531 212.78125 572.664062 C 178.546875 561.472656 143.398438 538.261719 132.375 503.699219 C 125.414062 481.898438 125.992188 453.964844 134.035156 419.8125 C 139.007812 398.839844 133.703125 387.152344 112.066406 378.699219 C 130.46875 370.824219 136.6875 372.066406 145.222656 372.316406 C 159.148438 353.085938 189.652344 350.183594 210.542969 361.210938 C 228.03125 370.410156 232.011719 387.484375 238.722656 404.476562 C 249.25 430.917969 261.351562 456.617188 291.359375 433.488281 C 328.824219 404.726562 352.53125 376.957031 329.324219 328.800781 Z M 329.324219 328.800781 " fill-opacity="1" fill-rule="evenodd"/></g><g clip-path="url(#8afecf57d8)"><path fill="#ffffff" d="M 214.730469 452.410156 L 380.902344 452.410156 L 380.902344 579.394531 L 214.730469 579.394531 Z M 214.730469 452.410156 " fill-opacity="1" fill-rule="nonzero"/></g><g fill="#1f2937" fill-opacity="1"><g transform="translate(381.05404, 509.779522)"><g><path d="M 122.15625 -135.46875 L 76.71875 -135.46875 L 76.71875 -65.828125 C 76.71875 -55.347656 79.625 -47.601562 85.4375 -42.59375 C 91.257812 -37.582031 99.238281 -35.078125 109.375 -35.078125 C 114.332031 -35.078125 118.59375 -35.535156 122.15625 -36.453125 L 122.15625 0 C 116.050781 1.382812 108.96875 2.078125 100.90625 2.078125 C 81.4375 2.078125 65.941406 -3.738281 54.421875 -15.375 C 42.910156 -27.007812 37.15625 -43.597656 37.15625 -65.140625 L 37.15625 -135.46875 L 4.3125 -135.46875 L 4.3125 -172.96875 L 37.15625 -172.96875 L 37.15625 -219.4375 L 76.71875 -219.4375 L 76.71875 -172.96875 L 122.15625 -172.96875 Z M 122.15625 -135.46875 "/></g></g></g><g fill="#1f2937" fill-opacity="1"><g transform="translate(485.634809, 509.779522)"><g><path d="M 37.84375 -150.671875 C 55.007812 -167.953125 76.257812 -176.59375 101.59375 -176.59375 C 126.9375 -176.59375 148.25 -167.953125 165.53125 -150.671875 C 182.8125 -133.390625 191.453125 -111.960938 191.453125 -86.390625 C 191.453125 -60.816406 182.8125 -39.445312 165.53125 -22.28125 C 148.25 -5.125 126.9375 3.453125 101.59375 3.453125 C 76.257812 3.453125 55.007812 -5.125 37.84375 -22.28125 C 20.675781 -39.445312 12.09375 -60.816406 12.09375 -86.390625 C 12.09375 -111.960938 20.675781 -133.390625 37.84375 -150.671875 Z M 137.890625 -123.71875 C 128.097656 -133.738281 116 -138.75 101.59375 -138.75 C 87.195312 -138.75 75.160156 -133.738281 65.484375 -123.71875 C 55.804688 -113.695312 50.96875 -101.253906 50.96875 -86.390625 C 50.96875 -71.648438 55.832031 -59.296875 65.5625 -49.328125 C 75.300781 -39.367188 87.3125 -34.390625 101.59375 -34.390625 C 116 -34.390625 128.097656 -39.398438 137.890625 -49.421875 C 147.679688 -59.441406 152.578125 -71.765625 152.578125 -86.390625 C 152.578125 -101.253906 147.679688 -113.695312 137.890625 -123.71875 Z M 137.890625 -123.71875 "/></g></g></g><g fill="#1f2937" fill-opacity="1"><g transform="translate(661.404485, 509.779522)"><g><path d="M 37.84375 -150.671875 C 55.007812 -167.953125 76.257812 -176.59375 101.59375 -176.59375 C 126.9375 -176.59375 148.25 -167.953125 165.53125 -150.671875 C 182.8125 -133.390625 191.453125 -111.960938 191.453125 -86.390625 C 191.453125 -60.816406 182.8125 -39.445312 165.53125 -22.28125 C 148.25 -5.125 126.9375 3.453125 101.59375 3.453125 C 76.257812 3.453125 55.007812 -5.125 37.84375 -22.28125 C 20.675781 -39.445312 12.09375 -60.816406 12.09375 -86.390625 C 12.09375 -111.960938 20.675781 -133.390625 37.84375 -150.671875 Z M 137.890625 -123.71875 C 128.097656 -133.738281 116 -138.75 101.59375 -138.75 C 87.195312 -138.75 75.160156 -133.738281 65.484375 -123.71875 C 55.804688 -113.695312 50.96875 -101.253906 50.96875 -86.390625 C 50.96875 -71.648438 55.832031 -59.296875 65.5625 -49.328125 C 75.300781 -39.367188 87.3125 -34.390625 101.59375 -34.390625 C 116 -34.390625 128.097656 -39.398438 137.890625 -49.421875 C 147.679688 -59.441406 152.578125 -71.765625 152.578125 -86.390625 C 152.578125 -101.253906 147.679688 -113.695312 137.890625 -123.71875 Z M 137.890625 -123.71875 "/></g></g></g><g fill="#1f2937" fill-opacity="1"><g transform="translate(837.174185, 509.779522)"><g><path d="M 60.125 -247.78125 L 60.125 0 L 20.90625 0 L 20.90625 -247.78125 Z M 60.125 -247.78125 "/></g></g></g><g fill="#1f2937" fill-opacity="1"><g transform="translate(890.436743, 509.779522)"><g><path d="M 121.8125 -176.59375 C 144.738281 -176.59375 164.207031 -167.863281 180.21875 -150.40625 C 196.226562 -132.957031 204.234375 -111.734375 204.234375 -86.734375 C 204.234375 -70.378906 200.578125 -55.289062 193.265625 -41.46875 C 185.953125 -27.644531 175.988281 -16.703125 163.375 -8.640625 C 150.757812 -0.578125 136.90625 3.453125 121.8125 3.453125 C 107.988281 3.453125 95.835938 0.457031 85.359375 -5.53125 C 74.878906 -11.519531 66.46875 -20.046875 60.125 -31.109375 L 60.125 0 L 20.90625 0 L 20.90625 -247.78125 L 60.125 -247.78125 L 60.125 -141.859375 C 66.46875 -153.035156 74.878906 -161.617188 85.359375 -167.609375 C 95.835938 -173.597656 107.988281 -176.59375 121.8125 -176.59375 Z M 113.171875 -34.046875 C 127.804688 -34.046875 140.191406 -39.140625 150.328125 -49.328125 C 160.460938 -59.523438 165.53125 -71.992188 165.53125 -86.734375 C 165.53125 -101.253906 160.460938 -113.609375 150.328125 -123.796875 C 140.191406 -133.992188 127.804688 -139.09375 113.171875 -139.09375 C 97.972656 -139.09375 85.332031 -134.082031 75.25 -124.0625 C 65.164062 -114.039062 60.125 -101.597656 60.125 -86.734375 C 60.125 -71.648438 65.164062 -59.097656 75.25 -49.078125 C 85.332031 -39.054688 97.972656 -34.046875 113.171875 -34.046875 Z M 113.171875 -34.046875 "/></g></g></g><g fill="#1f2937" fill-opacity="1"><g transform="translate(1079.338363, 509.779522)"><g><path d="M 22.96875 -245.875 C 27.925781 -250.832031 33.859375 -253.3125 40.765625 -253.3125 C 47.679688 -253.3125 53.644531 -250.832031 58.65625 -245.875 C 63.664062 -240.925781 66.171875 -235.050781 66.171875 -228.25 C 66.171875 -221.226562 63.664062 -215.238281 58.65625 -210.28125 C 53.644531 -205.332031 47.679688 -202.859375 40.765625 -202.859375 C 33.859375 -202.859375 27.925781 -205.332031 22.96875 -210.28125 C 18.019531 -215.238281 15.546875 -221.226562 15.546875 -228.25 C 15.546875 -235.050781 18.019531 -240.925781 22.96875 -245.875 Z M 20.90625 -172.96875 L 60.125 -172.96875 L 60.125 0 L 20.90625 0 Z M 20.90625 -172.96875 "/></g></g></g><g fill="#1f2937" fill-opacity="1"><g transform="translate(1132.600921, 509.779522)"><g><path d="M 106.78125 -176.59375 C 110.582031 -176.59375 116.054688 -175.898438 123.203125 -174.515625 L 123.203125 -138.40625 C 116.515625 -140.019531 110.695312 -140.828125 105.75 -140.828125 C 92.726562 -140.828125 81.867188 -136.503906 73.171875 -127.859375 C 64.472656 -119.222656 60.125 -107.414062 60.125 -92.4375 L 60.125 0 L 20.90625 0 L 20.90625 -172.96875 L 60.125 -172.96875 L 60.125 -149.984375 C 71.070312 -167.722656 86.625 -176.59375 106.78125 -176.59375 Z M 106.78125 -176.59375 "/></g></g></g><g fill="#1f2937" fill-opacity="1"><g transform="translate(1235.453809, 509.779522)"><g><path d="M 156.03125 -247.78125 L 195.765625 -247.78125 L 195.765625 0 L 156.03125 0 L 156.03125 -30.40625 C 149.695312 -19.46875 141.34375 -11.085938 130.96875 -5.265625 C 120.601562 0.546875 108.566406 3.453125 94.859375 3.453125 C 79.765625 3.453125 65.882812 -0.546875 53.21875 -8.546875 C 40.550781 -16.554688 30.53125 -27.5 23.15625 -41.375 C 15.78125 -55.257812 12.09375 -70.378906 12.09375 -86.734375 C 12.09375 -103.097656 15.78125 -118.191406 23.15625 -132.015625 C 30.53125 -145.835938 40.550781 -156.722656 53.21875 -164.671875 C 65.882812 -172.617188 79.765625 -176.59375 94.859375 -176.59375 C 108.566406 -176.59375 120.601562 -173.65625 130.96875 -167.78125 C 141.34375 -161.90625 149.695312 -153.492188 156.03125 -142.546875 Z M 103.328125 -34.046875 C 118.304688 -34.046875 130.832031 -39.082031 140.90625 -49.15625 C 150.988281 -59.238281 156.03125 -71.765625 156.03125 -86.734375 C 156.03125 -101.597656 150.988281 -114.039062 140.90625 -124.0625 C 130.832031 -134.082031 118.304688 -139.09375 103.328125 -139.09375 C 88.703125 -139.09375 76.316406 -133.992188 66.171875 -123.796875 C 56.035156 -113.609375 50.96875 -101.253906 50.96875 -86.734375 C 50.96875 -71.992188 56.035156 -59.523438 66.171875 -49.328125 C 76.316406 -39.140625 88.703125 -34.046875 103.328125 -34.046875 Z M 103.328125 -34.046875 "/></g></g></g></svg>