<svg xmlns="http://www.w3.org/2000/svg" xmlns:xlink="http://www.w3.org/1999/xlink" width="1920" zoomAndPan="magnify" viewBox="0 0 1440 809.999993" height="1080" preserveAspectRatio="xMidYMid meet" version="1.0"><defs><g/><clipPath id="00be34e0bc"><path d="M 0 260.863281 L 288.277344 260.863281 L 288.277344 549.136719 L 0 549.136719 Z M 0 260.863281 " clip-rule="nonzero"/></clipPath><clipPath id="82b430397b"><path d="M 144.136719 260.863281 C 64.53125 260.863281 0 325.394531 0 405 C 0 484.605469 64.53125 549.136719 144.136719 549.136719 C 223.742188 549.136719 288.277344 484.605469 288.277344 405 C 288.277344 325.394531 223.742188 260.863281 144.136719 260.863281 Z M 144.136719 260.863281 " clip-rule="nonzero"/></clipPath><clipPath id="ec3e596b5c"><path d="M 0.554688 301.84375 L 290.511719 301.84375 L 290.511719 493 L 0.554688 493 Z M 0.554688 301.84375 " clip-rule="nonzero"/></clipPath></defs><g fill="#ffffff" fill-opacity="1"><g transform="translate(321.495192, 505.078752)"><g><path d="M 134.429688 -42.695312 C 121.449219 -38.078125 110.484375 -34.90625 101.253906 -34.90625 C 84.8125 -34.90625 75.867188 -44.714844 75.867188 -63.464844 L 75.867188 -119.71875 L 134.71875 -119.71875 L 134.71875 -158.660156 L 75.867188 -158.660156 L 75.867188 -201.933594 L 34.617188 -192.988281 L 34.617188 -158.660156 L 6.347656 -158.660156 L 6.347656 -119.71875 L 34.617188 -119.71875 L 34.617188 -61.15625 C 34.617188 -15.578125 62.3125 3.460938 94.042969 3.460938 C 113.082031 3.460938 132.699219 -3.460938 141.351562 -9.230469 Z M 134.429688 -42.695312 "/></g></g></g><g fill="#ffffff" fill-opacity="1"><g transform="translate(464.578817, 505.078752)"><g><path d="M 95.195312 -162.125 C 49.617188 -162.125 12.691406 -127.21875 12.691406 -79.332031 C 12.691406 -31.730469 49.039062 3.460938 95.195312 3.460938 C 141.640625 3.460938 177.988281 -31.445312 177.988281 -79.332031 C 177.988281 -127.21875 141.066406 -162.125 95.195312 -162.125 Z M 95.195312 -122.890625 C 118.273438 -122.890625 136.160156 -105.292969 136.160156 -79.332031 C 136.160156 -53.078125 118.273438 -35.769531 95.195312 -35.769531 C 72.117188 -35.769531 54.234375 -53.078125 54.234375 -79.332031 C 54.234375 -105.292969 72.117188 -122.890625 95.195312 -122.890625 Z M 95.195312 -122.890625 "/></g></g></g><g fill="#ffffff" fill-opacity="1"><g transform="translate(646.318148, 505.078752)"><g><path d="M 95.195312 -162.125 C 49.617188 -162.125 12.691406 -127.21875 12.691406 -79.332031 C 12.691406 -31.730469 49.039062 3.460938 95.195312 3.460938 C 141.640625 3.460938 177.988281 -31.445312 177.988281 -79.332031 C 177.988281 -127.21875 141.066406 -162.125 95.195312 -162.125 Z M 95.195312 -122.890625 C 118.273438 -122.890625 136.160156 -105.292969 136.160156 -79.332031 C 136.160156 -53.078125 118.273438 -35.769531 95.195312 -35.769531 C 72.117188 -35.769531 54.234375 -53.078125 54.234375 -79.332031 C 54.234375 -105.292969 72.117188 -122.890625 95.195312 -122.890625 Z M 95.195312 -122.890625 "/></g></g></g><g fill="#ffffff" fill-opacity="1"><g transform="translate(828.057447, 505.078752)"><g><path d="M 16.730469 0 L 57.984375 0 L 57.984375 -222.125 L 16.730469 -222.125 Z M 16.730469 0 "/></g></g></g><g fill="#ffffff" fill-opacity="1"><g transform="translate(893.829751, 505.078752)"><g><path d="M 107.890625 -162.125 C 85.675781 -162.125 68.65625 -151.738281 57.695312 -136.449219 L 57.695312 -222.125 L 16.441406 -222.125 L 16.441406 0 L 57.695312 0 L 57.695312 -21.347656 C 68.945312 -6.347656 85.390625 3.460938 107.890625 3.460938 C 149.140625 3.460938 180.296875 -30.578125 180.296875 -79.332031 C 180.296875 -128.371094 148.566406 -162.125 107.890625 -162.125 Z M 98.371094 -35.769531 C 75.292969 -35.769531 57.695312 -53.078125 57.695312 -79.332031 C 57.695312 -105.292969 75.292969 -122.890625 98.371094 -122.890625 C 121.449219 -122.890625 138.46875 -105.292969 138.46875 -79.332031 C 138.46875 -53.078125 121.160156 -35.769531 98.371094 -35.769531 Z M 98.371094 -35.769531 "/></g></g></g><g fill="#ffffff" fill-opacity="1"><g transform="translate(1077.876812, 505.078752)"><g><path d="M 37.214844 -231.933594 C 22.789062 -231.933594 11.539062 -221.835938 11.539062 -207.703125 C 11.539062 -193.566406 22.789062 -183.183594 37.214844 -183.183594 C 52.214844 -183.183594 62.886719 -193.566406 62.886719 -207.703125 C 62.886719 -221.835938 52.214844 -231.933594 37.214844 -231.933594 Z M 16.441406 0 L 57.695312 0 L 57.695312 -158.660156 L 16.441406 -158.660156 Z M 16.441406 0 "/></g></g></g><g fill="#ffffff" fill-opacity="1"><g transform="translate(1143.649116, 505.078752)"><g><path d="M 107.3125 -162.125 C 84.8125 -162.125 67.503906 -151.738281 57.695312 -130.96875 L 57.695312 -158.660156 L 16.441406 -158.660156 L 16.441406 0 L 57.695312 0 L 57.695312 -70.675781 C 57.695312 -108.179688 80.195312 -119.71875 106.449219 -119.71875 C 111.0625 -119.71875 113.371094 -119.429688 116.542969 -119.140625 L 116.542969 -161.546875 C 113.949219 -161.835938 111.0625 -162.125 107.3125 -162.125 Z M 107.3125 -162.125 "/></g></g></g><g fill="#ffffff" fill-opacity="1"><g transform="translate(1257.596736, 505.078752)"><g><path d="M 137.3125 -222.125 L 137.3125 -136.449219 C 126.351562 -151.738281 109.621094 -162.125 87.121094 -162.125 C 46.445312 -162.125 15 -128.371094 15 -79.332031 C 15 -30.578125 46.15625 3.460938 87.40625 3.460938 C 109.621094 3.460938 126.351562 -6.347656 137.3125 -21.347656 L 137.3125 0 L 178.566406 0 L 178.566406 -222.125 Z M 96.640625 -35.769531 C 73.851562 -35.769531 56.542969 -53.078125 56.542969 -79.332031 C 56.542969 -105.292969 73.5625 -122.890625 96.640625 -122.890625 C 119.71875 -122.890625 137.3125 -105.292969 137.3125 -79.332031 C 137.3125 -53.078125 119.71875 -35.769531 96.640625 -35.769531 Z M 96.640625 -35.769531 "/></g></g></g><g clip-path="url(#00be34e0bc)"><g clip-path="url(#82b430397b)"><path fill="#ffffff" d="M 0 260.863281 L 288.277344 260.863281 L 288.277344 549.136719 L 0 549.136719 Z M 0 260.863281 " fill-opacity="1" fill-rule="nonzero"/></g></g><g clip-path="url(#ec3e596b5c)"><path fill="#5e17eb" d="M -2.652344 300.40625 C -2.730469 299.984375 -2.265625 299.671875 -1.902344 299.898438 C 3.964844 303.554688 37.140625 323.214844 80.675781 328.851562 C 127.464844 334.90625 118.722656 357.476562 156.972656 375.476562 C 158.972656 376.417969 161.226562 376.660156 163.375 376.160156 C 173.09375 373.898438 202.960938 367.851562 222.09375 373.886719 C 240.410156 379.664062 234.4375 390.019531 231.15625 393.59375 C 230.59375 394.207031 230.324219 395.03125 230.398438 395.859375 C 230.644531 398.582031 230.941406 404.523438 229.105469 406.242188 C 228.929688 406.410156 228.632812 406.300781 228.589844 406.058594 C 228.25 404.078125 226.8125 396.910156 223.773438 396.132812 C 220.238281 395.234375 202.167969 404.171875 202.167969 404.171875 C 202.167969 404.171875 258.351562 413.964844 287.457031 429.652344 C 316.316406 445.207031 330.019531 468 368.976562 483.375 C 369.296875 483.503906 369.273438 483.96875 368.933594 484.054688 C 365.816406 484.847656 356.015625 486.714844 344.6875 482.589844 L 351.417969 489.535156 C 351.796875 489.925781 351.5 490.578125 350.957031 490.546875 C 346.917969 490.332031 334.625 488.925781 314.464844 480.160156 L 324.621094 490.886719 C 324.933594 491.21875 324.613281 491.753906 324.175781 491.632812 C 314.867188 489.0625 265.722656 475.140625 231.988281 458.40625 C 202.914062 443.988281 172.296875 440.988281 160.101562 440.371094 C 156.46875 440.1875 152.859375 441.0625 149.714844 442.890625 C 139.929688 448.574219 118.214844 462.988281 109.945312 483.082031 C 109.863281 483.28125 109.78125 483.484375 109.703125 483.6875 C 99.152344 510.335938 94.210938 467.707031 94.210938 467.707031 C 94.210938 467.707031 69.769531 478.03125 76.050781 456.308594 C 76.050781 456.308594 51.285156 459.03125 62.847656 443.167969 C 62.847656 443.167969 25.914062 451.207031 30.496094 441.566406 C 30.671875 441.195312 30.890625 440.785156 31.210938 440.378906 C 40.953125 427.996094 93.152344 416.691406 107.390625 413.804688 C 108.992188 413.480469 109.621094 411.519531 108.5 410.328125 C 101.644531 403.027344 80.261719 382.429688 40.570312 362.269531 C 4.484375 343.941406 -0.664062 331.222656 -1.390625 327.730469 C -1.492188 327.253906 -1.09375 326.820312 -0.609375 326.886719 L 11.542969 328.546875 C 11.542969 328.546875 -5.878906 319.15625 -9.632812 310.355469 C -9.78125 310.015625 -9.476562 309.65625 -9.117188 309.746094 L 3.480469 312.953125 C 3.480469 312.953125 -1.308594 307.640625 -2.652344 300.40625 " fill-opacity="1" fill-rule="nonzero"/></g></svg>