<svg xmlns="http://www.w3.org/2000/svg" xmlns:xlink="http://www.w3.org/1999/xlink" width="1920" zoomAndPan="magnify" viewBox="0 0 1440 809.999993" height="1080" preserveAspectRatio="xMidYMid meet" version="1.0"><defs><g/><clipPath id="13f7ad5776"><path d="M 0 207.835938 L 430.859375 207.835938 L 430.859375 600 L 0 600 Z M 0 207.835938 " clip-rule="nonzero"/></clipPath><clipPath id="32955220b5"><path d="M 242.855469 458.550781 L 430.964844 458.550781 L 430.964844 602.164062 L 242.855469 602.164062 Z M 242.855469 458.550781 " clip-rule="nonzero"/></clipPath></defs><rect x="-144" width="1728" fill="#ffffff" y="-80.999999" height="971.999992" fill-opacity="1"/><rect x="-144" width="1728" fill="#ffffff" y="-80.999999" height="971.999992" fill-opacity="1"/><g clip-path="url(#13f7ad5776)"><path fill="#1f2937" d="M 321.265625 489.085938 C 356.046875 538.398438 391.480469 564.457031 430.949219 599.613281 C 339.921875 602.144531 281.234375 581.988281 254.707031 539.054688 C 253.675781 537.273438 252.644531 535.398438 251.613281 533.523438 C 240.175781 511.023438 237.738281 484.398438 263.332031 468.277344 C 294.359375 448.683594 301.109375 460.589844 321.265625 489.085938 Z M 196.304688 397.871094 C 190.585938 398.152344 185.804688 393.75 185.523438 388.03125 C 185.242188 382.3125 189.648438 377.53125 195.367188 377.25 C 201.082031 376.96875 205.863281 381.375 206.144531 387.09375 C 206.425781 392.8125 202.019531 397.589844 196.304688 397.871094 Z M 372.449219 318.75 C 340.765625 253.128906 273.644531 207.851562 195.835938 207.851562 C 141.929688 207.851562 92.996094 229.695312 57.558594 265.035156 C 22.03125 300.472656 0 349.5 0 403.777344 C 0 457.964844 22.03125 507.085938 57.558594 542.523438 C 92.996094 577.863281 141.835938 599.707031 195.835938 599.707031 C 211.300781 599.707031 226.300781 597.925781 240.644531 594.550781 C 201.925781 581.894531 162.179688 555.648438 149.710938 516.554688 C 141.835938 491.898438 142.492188 460.308594 151.585938 421.683594 C 157.210938 397.964844 151.210938 384.75 126.742188 375.1875 C 147.554688 366.28125 154.585938 367.6875 164.242188 367.96875 C 179.992188 346.21875 214.488281 342.9375 238.113281 355.40625 C 257.894531 365.8125 262.394531 385.125 269.988281 404.339844 C 281.890625 434.246094 295.578125 463.308594 329.515625 437.152344 C 371.886719 404.621094 398.699219 373.21875 372.449219 318.75 Z M 372.449219 318.75 " fill-opacity="1" fill-rule="evenodd"/></g><g clip-path="url(#32955220b5)"><path fill="#ffffff" d="M 242.855469 458.550781 L 430.792969 458.550781 L 430.792969 602.164062 L 242.855469 602.164062 Z M 242.855469 458.550781 " fill-opacity="1" fill-rule="nonzero"/></g><g fill="#1f2937" fill-opacity="1"><g transform="translate(430.963785, 509.81041)"><g><path d="M 88.3125 0 C 72.257812 0 59.394531 -3.910156 49.71875 -11.734375 C 40.039062 -19.554688 35.203125 -33.453125 35.203125 -53.421875 L 35.203125 -120.125 L 8.953125 -120.125 L 8.953125 -153.15625 L 35.203125 -153.15625 L 39.828125 -194.234375 L 74.734375 -194.234375 L 74.734375 -153.15625 L 116.109375 -153.15625 L 116.109375 -120.125 L 74.734375 -120.125 L 74.734375 -53.109375 C 74.734375 -45.703125 76.328125 -40.609375 79.515625 -37.828125 C 82.703125 -35.046875 88.207031 -33.65625 96.03125 -33.65625 L 115.1875 -33.65625 L 115.1875 0 Z M 88.3125 0 "/></g></g></g><g fill="#1f2937" fill-opacity="1"><g transform="translate(536.878121, 509.81041)"><g><path d="M 93.5625 3.703125 C 78.738281 3.703125 65.410156 0.304688 53.578125 -6.484375 C 41.742188 -13.273438 32.375 -22.691406 25.46875 -34.734375 C 18.570312 -46.773438 15.125 -60.722656 15.125 -76.578125 C 15.125 -92.429688 18.625 -106.378906 25.625 -118.421875 C 32.625 -130.460938 42.039062 -139.878906 53.875 -146.671875 C 65.71875 -153.472656 79.050781 -156.875 93.875 -156.875 C 108.488281 -156.875 121.710938 -153.472656 133.546875 -146.671875 C 145.390625 -139.878906 154.757812 -130.460938 161.65625 -118.421875 C 168.550781 -106.378906 172 -92.429688 172 -76.578125 C 172 -60.722656 168.550781 -46.773438 161.65625 -34.734375 C 154.757812 -22.691406 145.335938 -13.273438 133.390625 -6.484375 C 121.453125 0.304688 108.175781 3.703125 93.5625 3.703125 Z M 93.5625 -30.578125 C 103.851562 -30.578125 112.804688 -34.4375 120.421875 -42.15625 C 128.046875 -49.875 131.859375 -61.347656 131.859375 -76.578125 C 131.859375 -91.816406 128.046875 -103.296875 120.421875 -111.015625 C 112.804688 -118.734375 103.957031 -122.59375 93.875 -122.59375 C 83.375 -122.59375 74.363281 -118.734375 66.84375 -111.015625 C 59.332031 -103.296875 55.578125 -91.816406 55.578125 -76.578125 C 55.578125 -61.347656 59.332031 -49.875 66.84375 -42.15625 C 74.363281 -34.4375 83.269531 -30.578125 93.5625 -30.578125 Z M 93.5625 -30.578125 "/></g></g></g><g fill="#1f2937" fill-opacity="1"><g transform="translate(699.918495, 509.81041)"><g><path d="M 93.5625 3.703125 C 78.738281 3.703125 65.410156 0.304688 53.578125 -6.484375 C 41.742188 -13.273438 32.375 -22.691406 25.46875 -34.734375 C 18.570312 -46.773438 15.125 -60.722656 15.125 -76.578125 C 15.125 -92.429688 18.625 -106.378906 25.625 -118.421875 C 32.625 -130.460938 42.039062 -139.878906 53.875 -146.671875 C 65.71875 -153.472656 79.050781 -156.875 93.875 -156.875 C 108.488281 -156.875 121.710938 -153.472656 133.546875 -146.671875 C 145.390625 -139.878906 154.757812 -130.460938 161.65625 -118.421875 C 168.550781 -106.378906 172 -92.429688 172 -76.578125 C 172 -60.722656 168.550781 -46.773438 161.65625 -34.734375 C 154.757812 -22.691406 145.335938 -13.273438 133.390625 -6.484375 C 121.453125 0.304688 108.175781 3.703125 93.5625 3.703125 Z M 93.5625 -30.578125 C 103.851562 -30.578125 112.804688 -34.4375 120.421875 -42.15625 C 128.046875 -49.875 131.859375 -61.347656 131.859375 -76.578125 C 131.859375 -91.816406 128.046875 -103.296875 120.421875 -111.015625 C 112.804688 -118.734375 103.957031 -122.59375 93.875 -122.59375 C 83.375 -122.59375 74.363281 -118.734375 66.84375 -111.015625 C 59.332031 -103.296875 55.578125 -91.816406 55.578125 -76.578125 C 55.578125 -61.347656 59.332031 -49.875 66.84375 -42.15625 C 74.363281 -34.4375 83.269531 -30.578125 93.5625 -30.578125 Z M 93.5625 -30.578125 "/></g></g></g><g fill="#1f2937" fill-opacity="1"><g transform="translate(862.958883, 509.81041)"><g><path d="M 20.078125 0 L 20.078125 -222.328125 L 59.59375 -222.328125 L 59.59375 0 Z M 20.078125 0 "/></g></g></g><g fill="#1f2937" fill-opacity="1"><g transform="translate(918.84935, 509.81041)"><g><path d="M 110.859375 3.703125 C 99.328125 3.703125 89.238281 1.539062 80.59375 -2.78125 C 71.945312 -7.101562 64.945312 -13.175781 59.59375 -21 L 55.28125 0 L 20.078125 0 L 20.078125 -222.328125 L 59.59375 -222.328125 L 59.59375 -131.234375 C 64.539062 -138.023438 71.078125 -143.992188 79.203125 -149.140625 C 87.335938 -154.296875 97.890625 -156.875 110.859375 -156.875 C 125.265625 -156.875 138.128906 -153.375 149.453125 -146.375 C 160.773438 -139.375 169.726562 -129.800781 176.3125 -117.65625 C 182.90625 -105.507812 186.203125 -91.710938 186.203125 -76.265625 C 186.203125 -60.828125 182.90625 -47.085938 176.3125 -35.046875 C 169.726562 -23.003906 160.773438 -13.535156 149.453125 -6.640625 C 138.128906 0.253906 125.265625 3.703125 110.859375 3.703125 Z M 102.515625 -30.875 C 115.078125 -30.875 125.472656 -35.09375 133.703125 -43.53125 C 141.941406 -51.976562 146.0625 -62.890625 146.0625 -76.265625 C 146.0625 -89.648438 141.941406 -100.664062 133.703125 -109.3125 C 125.472656 -117.957031 115.078125 -122.28125 102.515625 -122.28125 C 89.753906 -122.28125 79.304688 -118.007812 71.171875 -109.46875 C 63.046875 -100.925781 58.984375 -89.960938 58.984375 -76.578125 C 58.984375 -63.203125 63.046875 -52.238281 71.171875 -43.6875 C 79.304688 -35.144531 89.753906 -30.875 102.515625 -30.875 Z M 102.515625 -30.875 "/></g></g></g><g fill="#1f2937" fill-opacity="1"><g transform="translate(1096.094092, 509.81041)"><g><path d="M 41.375 -176.9375 C 34.175781 -176.9375 28.257812 -179.097656 23.625 -183.421875 C 18.988281 -187.742188 16.671875 -193.203125 16.671875 -199.796875 C 16.671875 -206.378906 18.988281 -211.78125 23.625 -216 C 28.257812 -220.21875 34.175781 -222.328125 41.375 -222.328125 C 48.582031 -222.328125 54.5 -220.21875 59.125 -216 C 63.757812 -211.78125 66.078125 -206.378906 66.078125 -199.796875 C 66.078125 -193.203125 63.757812 -187.742188 59.125 -183.421875 C 54.5 -179.097656 48.582031 -176.9375 41.375 -176.9375 Z M 21.609375 0 L 21.609375 -153.15625 L 61.140625 -153.15625 L 61.140625 0 Z M 21.609375 0 "/></g></g></g><g fill="#1f2937" fill-opacity="1"><g transform="translate(1154.454833, 509.81041)"><g><path d="M 20.078125 0 L 20.078125 -153.15625 L 55.28125 -153.15625 L 58.984375 -124.4375 C 64.535156 -134.320312 72.097656 -142.195312 81.671875 -148.0625 C 91.242188 -153.9375 102.515625 -156.875 115.484375 -156.875 L 115.484375 -115.1875 L 104.375 -115.1875 C 95.726562 -115.1875 88.003906 -113.847656 81.203125 -111.171875 C 74.410156 -108.492188 69.109375 -103.859375 65.296875 -97.265625 C 61.492188 -90.679688 59.59375 -81.519531 59.59375 -69.78125 L 59.59375 0 Z M 20.078125 0 "/></g></g></g><g fill="#1f2937" fill-opacity="1"><g transform="translate(1252.649478, 509.81041)"><g><path d="M 90.484375 3.703125 C 76.066406 3.703125 63.195312 0.203125 51.875 -6.796875 C 40.550781 -13.796875 31.59375 -23.367188 25 -35.515625 C 18.414062 -47.660156 15.125 -61.453125 15.125 -76.890625 C 15.125 -92.328125 18.414062 -106.066406 25 -118.109375 C 31.59375 -130.148438 40.550781 -139.617188 51.875 -146.515625 C 63.195312 -153.421875 76.066406 -156.875 90.484375 -156.875 C 102.003906 -156.875 112.085938 -154.710938 120.734375 -150.390625 C 129.378906 -146.066406 136.378906 -139.992188 141.734375 -132.171875 L 141.734375 -222.328125 L 181.265625 -222.328125 L 181.265625 0 L 146.0625 0 L 141.734375 -21.921875 C 136.796875 -15.128906 130.257812 -9.160156 122.125 -4.015625 C 114 1.128906 103.453125 3.703125 90.484375 3.703125 Z M 98.8125 -30.875 C 111.570312 -30.875 122.019531 -35.144531 130.15625 -43.6875 C 138.289062 -52.238281 142.359375 -63.203125 142.359375 -76.578125 C 142.359375 -89.960938 138.289062 -100.925781 130.15625 -109.46875 C 122.019531 -118.007812 111.570312 -122.28125 98.8125 -122.28125 C 86.257812 -122.28125 75.863281 -118.0625 67.625 -109.625 C 59.394531 -101.1875 55.28125 -90.273438 55.28125 -76.890625 C 55.28125 -63.503906 59.394531 -52.488281 67.625 -43.84375 C 75.863281 -35.195312 86.257812 -30.875 98.8125 -30.875 Z M 98.8125 -30.875 "/></g></g></g></svg>