<svg xmlns="http://www.w3.org/2000/svg" xmlns:xlink="http://www.w3.org/1999/xlink" width="1920" zoomAndPan="magnify" viewBox="0 0 1440 809.999993" height="1080" preserveAspectRatio="xMidYMid meet" version="1.0"><defs><g/><clipPath id="454faaf455"><path d="M 0 230.667969 L 381 230.667969 L 381 578 L 0 578 Z M 0 230.667969 " clip-rule="nonzero"/></clipPath><clipPath id="ad66c4e8ac"><path d="M 215.171875 450.964844 L 381.054688 450.964844 L 381.054688 585.089844 L 215.171875 585.089844 Z M 215.171875 450.964844 " clip-rule="nonzero"/></clipPath></defs><rect x="-144" width="1728" fill="#ffffff" y="-80.999999" height="971.999992" fill-opacity="1"/><rect x="-144" width="1728" fill="#ffffff" y="-80.999999" height="971.999992" fill-opacity="1"/><g clip-path="url(#454faaf455)"><path fill="#1f2937" d="M 284.066406 479.347656 C 314.816406 522.949219 346.148438 545.992188 381.046875 577.078125 C 300.558594 579.3125 248.671875 561.492188 225.214844 523.527344 C 224.300781 521.953125 223.390625 520.296875 222.476562 518.636719 C 212.363281 498.746094 210.210938 475.203125 232.839844 460.945312 C 260.277344 443.621094 266.242188 454.148438 284.066406 479.347656 Z M 173.574219 398.695312 C 168.515625 398.945312 164.289062 395.050781 164.039062 389.992188 C 163.792969 384.9375 167.6875 380.710938 172.742188 380.460938 C 177.800781 380.210938 182.027344 384.109375 182.277344 389.164062 C 182.523438 394.21875 178.628906 398.449219 173.574219 398.695312 Z M 329.324219 328.738281 C 301.304688 270.714844 241.957031 230.675781 173.15625 230.675781 C 125.496094 230.675781 82.226562 249.992188 50.894531 281.242188 C 19.480469 312.574219 0 355.925781 0 403.917969 C 0 451.828125 19.480469 495.261719 50.894531 526.597656 C 82.226562 557.84375 125.414062 577.160156 173.15625 577.160156 C 186.835938 577.160156 200.097656 575.585938 212.78125 572.601562 C 178.546875 561.410156 143.398438 538.199219 132.375 503.636719 C 125.414062 481.835938 125.992188 453.902344 134.035156 419.75 C 139.007812 398.777344 133.703125 387.089844 112.066406 378.636719 C 130.46875 370.761719 136.6875 372.003906 145.222656 372.253906 C 159.148438 353.023438 189.652344 350.121094 210.542969 361.148438 C 228.03125 370.347656 232.011719 387.421875 238.722656 404.414062 C 249.25 430.859375 261.351562 456.554688 291.359375 433.425781 C 328.824219 404.664062 352.53125 376.894531 329.324219 328.738281 Z M 329.324219 328.738281 " fill-opacity="1" fill-rule="evenodd"/></g><g clip-path="url(#ad66c4e8ac)"><path fill="#ffffff" d="M 215.171875 450.964844 L 381.253906 450.964844 L 381.253906 585.089844 L 215.171875 585.089844 Z M 215.171875 450.964844 " fill-opacity="1" fill-rule="nonzero"/></g><g fill="#1f2937" fill-opacity="1"><g transform="translate(381.05404, 476.340685)"><g><path d="M 174.171875 -230.90625 L 174.171875 -187.375 L 111.828125 -187.375 L 111.828125 0 L 66.3125 0 L 66.3125 -187.375 L 4.28125 -187.375 L 4.28125 -230.90625 Z M 174.171875 -230.90625 "/></g></g></g><g fill="#1f2937" fill-opacity="1"><g transform="translate(533.457917, 476.340685)"><g><path d="M 159.984375 -20.609375 C 143.054688 -3.785156 122.382812 4.625 97.96875 4.625 C 73.5625 4.625 52.945312 -3.785156 36.125 -20.609375 C 19.300781 -37.441406 10.890625 -58.0625 10.890625 -82.46875 C 10.890625 -106.875 19.300781 -127.488281 36.125 -144.3125 C 52.945312 -161.144531 73.5625 -169.5625 97.96875 -169.5625 C 122.382812 -169.5625 143.054688 -161.144531 159.984375 -144.3125 C 176.921875 -127.488281 185.390625 -106.875 185.390625 -82.46875 C 185.390625 -58.0625 176.921875 -37.441406 159.984375 -20.609375 Z M 66.140625 -49.8125 C 74.609375 -41.238281 85.21875 -36.953125 97.96875 -36.953125 C 110.726562 -36.953125 121.394531 -41.238281 129.96875 -49.8125 C 138.539062 -58.382812 142.828125 -69.269531 142.828125 -82.46875 C 142.828125 -95.664062 138.539062 -106.550781 129.96875 -115.125 C 121.394531 -123.695312 110.726562 -127.984375 97.96875 -127.984375 C 85.21875 -127.984375 74.609375 -123.695312 66.140625 -115.125 C 57.671875 -106.550781 53.4375 -95.664062 53.4375 -82.46875 C 53.4375 -69.269531 57.671875 -58.382812 66.140625 -49.8125 Z M 66.140625 -49.8125 "/></g></g></g><g fill="#1f2937" fill-opacity="1"><g transform="translate(703.675284, 476.340685)"><g><path d="M 159.984375 -20.609375 C 143.054688 -3.785156 122.382812 4.625 97.96875 4.625 C 73.5625 4.625 52.945312 -3.785156 36.125 -20.609375 C 19.300781 -37.441406 10.890625 -58.0625 10.890625 -82.46875 C 10.890625 -106.875 19.300781 -127.488281 36.125 -144.3125 C 52.945312 -161.144531 73.5625 -169.5625 97.96875 -169.5625 C 122.382812 -169.5625 143.054688 -161.144531 159.984375 -144.3125 C 176.921875 -127.488281 185.390625 -106.875 185.390625 -82.46875 C 185.390625 -58.0625 176.921875 -37.441406 159.984375 -20.609375 Z M 66.140625 -49.8125 C 74.609375 -41.238281 85.21875 -36.953125 97.96875 -36.953125 C 110.726562 -36.953125 121.394531 -41.238281 129.96875 -49.8125 C 138.539062 -58.382812 142.828125 -69.269531 142.828125 -82.46875 C 142.828125 -95.664062 138.539062 -106.550781 129.96875 -115.125 C 121.394531 -123.695312 110.726562 -127.984375 97.96875 -127.984375 C 85.21875 -127.984375 74.609375 -123.695312 66.140625 -115.125 C 57.671875 -106.550781 53.4375 -95.664062 53.4375 -82.46875 C 53.4375 -69.269531 57.671875 -58.382812 66.140625 -49.8125 Z M 66.140625 -49.8125 "/></g></g></g><g fill="#1f2937" fill-opacity="1"><g transform="translate(873.892635, 476.340685)"><g><path d="M 19.46875 0 L 19.46875 -240.8125 L 62.015625 -240.8125 L 62.015625 0 Z M 19.46875 0 "/></g></g></g><g fill="#1f2937" fill-opacity="1"><g transform="translate(929.641839, 476.340685)"><g><path d="M 160.984375 -119.75 C 181.210938 -108.09375 191.328125 -90.5 191.328125 -66.96875 C 191.328125 -47.394531 184.398438 -31.335938 170.546875 -18.796875 C 156.691406 -6.265625 139.648438 0 119.421875 0 L 21.4375 0 L 21.4375 -230.90625 L 112.484375 -230.90625 C 132.273438 -230.90625 148.929688 -224.800781 162.453125 -212.59375 C 175.984375 -200.394531 182.75 -184.835938 182.75 -165.921875 C 182.75 -146.796875 175.492188 -131.40625 160.984375 -119.75 Z M 112.484375 -188.359375 L 66.96875 -188.359375 L 66.96875 -137.5625 L 112.484375 -137.5625 C 119.523438 -137.5625 125.410156 -139.976562 130.140625 -144.8125 C 134.867188 -149.65625 137.234375 -155.703125 137.234375 -162.953125 C 137.234375 -170.210938 134.921875 -176.257812 130.296875 -181.09375 C 125.679688 -185.9375 119.742188 -188.359375 112.484375 -188.359375 Z M 119.421875 -42.546875 C 127.109375 -42.546875 133.484375 -45.128906 138.546875 -50.296875 C 143.609375 -55.472656 146.140625 -62.019531 146.140625 -69.9375 C 146.140625 -77.632812 143.609375 -84.066406 138.546875 -89.234375 C 133.484375 -94.398438 127.109375 -96.984375 119.421875 -96.984375 L 66.96875 -96.984375 L 66.96875 -42.546875 Z M 119.421875 -42.546875 "/></g></g></g><g fill="#1f2937" fill-opacity="1"><g transform="translate(1103.48793, 476.340685)"><g><path d="M 40.578125 -184.734375 C 33.535156 -184.734375 27.429688 -187.316406 22.265625 -192.484375 C 17.097656 -197.648438 14.515625 -203.75 14.515625 -210.78125 C 14.515625 -217.820312 17.097656 -223.984375 22.265625 -229.265625 C 27.429688 -234.546875 33.535156 -237.1875 40.578125 -237.1875 C 47.828125 -237.1875 54.035156 -234.546875 59.203125 -229.265625 C 64.378906 -223.984375 66.96875 -217.820312 66.96875 -210.78125 C 66.96875 -203.75 64.378906 -197.648438 59.203125 -192.484375 C 54.035156 -187.316406 47.828125 -184.734375 40.578125 -184.734375 Z M 19.46875 0 L 19.46875 -164.9375 L 62.015625 -164.9375 L 62.015625 0 Z M 19.46875 0 "/></g></g></g><g fill="#1f2937" fill-opacity="1"><g transform="translate(1159.237133, 476.340685)"><g><path d="M 62.015625 -136.5625 C 65.972656 -147.125 72.515625 -155.039062 81.640625 -160.3125 C 90.765625 -165.59375 100.9375 -168.234375 112.15625 -168.234375 L 112.15625 -120.734375 C 99.175781 -122.273438 87.570312 -119.632812 77.34375 -112.8125 C 67.125 -106 62.015625 -94.675781 62.015625 -78.84375 L 62.015625 0 L 19.46875 0 L 19.46875 -164.9375 L 62.015625 -164.9375 Z M 62.015625 -136.5625 "/></g></g></g><g fill="#1f2937" fill-opacity="1"><g transform="translate(1250.943214, 476.340685)"><g><path d="M 144.484375 -230.90625 L 187.046875 -230.90625 L 187.046875 0 L 144.484375 0 L 144.484375 -19.46875 C 131.953125 -3.40625 114.140625 4.625 91.046875 4.625 C 68.835938 4.625 49.867188 -3.785156 34.140625 -20.609375 C 18.421875 -37.441406 10.5625 -58.0625 10.5625 -82.46875 C 10.5625 -106.875 18.421875 -127.488281 34.140625 -144.3125 C 49.867188 -161.144531 68.835938 -169.5625 91.046875 -169.5625 C 114.140625 -169.5625 131.953125 -161.53125 144.484375 -145.46875 Z M 66.140625 -48.984375 C 74.828125 -40.296875 85.765625 -35.953125 98.953125 -35.953125 C 112.148438 -35.953125 123.035156 -40.296875 131.609375 -48.984375 C 140.191406 -57.671875 144.484375 -68.832031 144.484375 -82.46875 C 144.484375 -96.101562 140.191406 -107.265625 131.609375 -115.953125 C 123.035156 -124.640625 112.148438 -128.984375 98.953125 -128.984375 C 85.765625 -128.984375 74.828125 -124.640625 66.140625 -115.953125 C 57.453125 -107.265625 53.109375 -96.101562 53.109375 -82.46875 C 53.109375 -68.832031 57.453125 -57.671875 66.140625 -48.984375 Z M 66.140625 -48.984375 "/></g></g></g><g fill="#4b5563" fill-opacity="1"><g transform="translate(546.04516, 591.554702)"><g><path d="M 31.46875 -47.203125 C 37.90625 -47.203125 43.390625 -44.851562 47.921875 -40.15625 C 52.460938 -35.46875 54.734375 -29.75 54.734375 -23 C 54.734375 -16.25 52.460938 -10.523438 47.921875 -5.828125 C 43.390625 -1.140625 37.90625 1.203125 31.46875 1.203125 C 23.863281 1.203125 18.066406 -1.832031 14.078125 -7.90625 L 14.078125 0 L 6.078125 0 L 6.078125 -64.40625 L 14.078125 -64.40625 L 14.078125 -38.09375 C 18.066406 -44.164062 23.863281 -47.203125 31.46875 -47.203125 Z M 30.453125 -6.53125 C 35.054688 -6.53125 38.921875 -8.109375 42.046875 -11.265625 C 45.171875 -14.429688 46.734375 -18.34375 46.734375 -23 C 46.734375 -27.65625 45.171875 -31.5625 42.046875 -34.71875 C 38.921875 -37.882812 35.054688 -39.46875 30.453125 -39.46875 C 25.785156 -39.46875 21.890625 -37.882812 18.765625 -34.71875 C 15.640625 -31.5625 14.078125 -27.65625 14.078125 -23 C 14.078125 -18.34375 15.640625 -14.429688 18.765625 -11.265625 C 21.890625 -8.109375 25.785156 -6.53125 30.453125 -6.53125 Z M 30.453125 -6.53125 "/></g></g></g><g fill="#4b5563" fill-opacity="1"><g transform="translate(604.276255, 591.554702)"><g><path d="M 38.1875 -46 L 46.734375 -46 L 27.96875 2.859375 C 26.007812 8.066406 23.265625 12.035156 19.734375 14.765625 C 16.203125 17.492188 12.140625 18.707031 7.546875 18.40625 L 7.546875 10.953125 C 13.191406 11.378906 17.332031 8.25 19.96875 1.5625 L 20.796875 -0.1875 L 0.734375 -46 L 9.296875 -46 L 24.9375 -9.9375 Z M 38.1875 -46 "/></g></g></g><g fill="#4b5563" fill-opacity="1"><g transform="translate(651.652264, 591.554702)"><g/></g></g><g fill="#4b5563" fill-opacity="1"><g transform="translate(674.650333, 591.554702)"><g><path d="M 69 -31.921875 L 69 -28.0625 C 69 -19.65625 66.113281 -12.675781 60.34375 -7.125 C 54.582031 -1.570312 46.945312 1.203125 37.4375 1.203125 C 27.625 1.203125 19.515625 -2.03125 13.109375 -8.5 C 6.703125 -14.976562 3.5 -22.878906 3.5 -32.203125 C 3.5 -41.523438 6.703125 -49.421875 13.109375 -55.890625 C 19.515625 -62.359375 27.566406 -65.59375 37.265625 -65.59375 C 43.210938 -65.59375 48.671875 -64.164062 53.640625 -61.3125 C 58.609375 -58.46875 62.441406 -54.710938 65.140625 -50.046875 L 57.78125 -45.71875 C 55.9375 -49.21875 53.160156 -52.023438 49.453125 -54.140625 C 45.742188 -56.253906 41.648438 -57.3125 37.171875 -57.3125 C 29.804688 -57.3125 23.757812 -54.90625 19.03125 -50.09375 C 14.3125 -45.28125 11.953125 -39.316406 11.953125 -32.203125 C 11.953125 -25.085938 14.328125 -19.132812 19.078125 -14.34375 C 23.835938 -9.5625 29.988281 -7.171875 37.53125 -7.171875 C 43.976562 -7.171875 49.191406 -8.75 53.171875 -11.90625 C 57.160156 -15.070312 59.582031 -19.171875 60.4375 -24.203125 L 36.796875 -24.203125 L 36.796875 -31.921875 Z M 69 -31.921875 "/></g></g></g><g fill="#4b5563" fill-opacity="1"><g transform="translate(747.140228, 591.554702)"><g><path d="M 44.15625 -46 L 52.15625 -46 L 52.15625 0 L 44.15625 0 L 44.15625 -7.90625 C 40.175781 -1.832031 34.378906 1.203125 26.765625 1.203125 C 20.328125 1.203125 14.835938 -1.140625 10.296875 -5.828125 C 5.765625 -10.523438 3.5 -16.25 3.5 -23 C 3.5 -29.75 5.765625 -35.46875 10.296875 -40.15625 C 14.835938 -44.851562 20.328125 -47.203125 26.765625 -47.203125 C 34.378906 -47.203125 40.175781 -44.164062 44.15625 -38.09375 Z M 27.78125 -6.53125 C 32.445312 -6.53125 36.34375 -8.109375 39.46875 -11.265625 C 42.59375 -14.429688 44.15625 -18.34375 44.15625 -23 C 44.15625 -27.65625 42.59375 -31.5625 39.46875 -34.71875 C 36.34375 -37.882812 32.445312 -39.46875 27.78125 -39.46875 C 23.1875 -39.46875 19.320312 -37.882812 16.1875 -34.71875 C 13.0625 -31.5625 11.5 -27.65625 11.5 -23 C 11.5 -18.34375 13.0625 -14.429688 16.1875 -11.265625 C 19.320312 -8.109375 23.1875 -6.53125 27.78125 -6.53125 Z M 27.78125 -6.53125 "/></g></g></g><g fill="#4b5563" fill-opacity="1"><g transform="translate(805.371334, 591.554702)"><g><path d="M 15.359375 -7.640625 L 39.84375 -7.640625 L 39.84375 0 L 4.421875 0 L 4.421875 -5.34375 L 27.875 -38.359375 L 5.34375 -38.359375 L 5.34375 -46 L 38.921875 -46 L 38.921875 -40.65625 Z M 15.359375 -7.640625 "/></g></g></g><g fill="#4b5563" fill-opacity="1"><g transform="translate(848.69967, 591.554702)"><g><path d="M 11.6875 -19.3125 C 12.476562 -15.207031 14.359375 -12.019531 17.328125 -9.75 C 20.304688 -7.476562 23.976562 -6.34375 28.34375 -6.34375 C 34.40625 -6.34375 38.816406 -8.582031 41.578125 -13.0625 L 48.390625 -9.203125 C 43.910156 -2.265625 37.164062 1.203125 28.15625 1.203125 C 20.851562 1.203125 14.914062 -1.082031 10.34375 -5.65625 C 5.78125 -10.226562 3.5 -16.007812 3.5 -23 C 3.5 -29.925781 5.734375 -35.691406 10.203125 -40.296875 C 14.679688 -44.898438 20.476562 -47.203125 27.59375 -47.203125 C 34.34375 -47.203125 39.847656 -44.820312 44.109375 -40.0625 C 48.378906 -35.3125 50.515625 -29.59375 50.515625 -22.90625 C 50.515625 -21.738281 50.421875 -20.539062 50.234375 -19.3125 Z M 27.59375 -39.65625 C 23.300781 -39.65625 19.742188 -38.441406 16.921875 -36.015625 C 14.109375 -33.597656 12.363281 -30.363281 11.6875 -26.3125 L 42.40625 -26.3125 C 41.738281 -30.664062 40.023438 -33.976562 37.265625 -36.25 C 34.503906 -38.519531 31.28125 -39.65625 27.59375 -39.65625 Z M 27.59375 -39.65625 "/></g></g></g><g fill="#4b5563" fill-opacity="1"><g transform="translate(902.331168, 591.554702)"><g><path d="M 6.078125 0 L 6.078125 -67.15625 L 14.078125 -67.15625 L 14.078125 0 Z M 6.078125 0 "/></g></g></g><g fill="#4b5563" fill-opacity="1"><g transform="translate(922.569448, 591.554702)"><g><path d="M 6.078125 0 L 6.078125 -67.15625 L 14.078125 -67.15625 L 14.078125 0 Z M 6.078125 0 "/></g></g></g><g fill="#4b5563" fill-opacity="1"><g transform="translate(942.807728, 591.554702)"><g><path d="M 44.15625 -46 L 52.15625 -46 L 52.15625 0 L 44.15625 0 L 44.15625 -7.90625 C 40.175781 -1.832031 34.378906 1.203125 26.765625 1.203125 C 20.328125 1.203125 14.835938 -1.140625 10.296875 -5.828125 C 5.765625 -10.523438 3.5 -16.25 3.5 -23 C 3.5 -29.75 5.765625 -35.46875 10.296875 -40.15625 C 14.835938 -44.851562 20.328125 -47.203125 26.765625 -47.203125 C 34.378906 -47.203125 40.175781 -44.164062 44.15625 -38.09375 Z M 27.78125 -6.53125 C 32.445312 -6.53125 36.34375 -8.109375 39.46875 -11.265625 C 42.59375 -14.429688 44.15625 -18.34375 44.15625 -23 C 44.15625 -27.65625 42.59375 -31.5625 39.46875 -34.71875 C 36.34375 -37.882812 32.445312 -39.46875 27.78125 -39.46875 C 23.1875 -39.46875 19.320312 -37.882812 16.1875 -34.71875 C 13.0625 -31.5625 11.5 -27.65625 11.5 -23 C 11.5 -18.34375 13.0625 -14.429688 16.1875 -11.265625 C 19.320312 -8.109375 23.1875 -6.53125 27.78125 -6.53125 Z M 27.78125 -6.53125 "/></g></g></g><g fill="#4b5563" fill-opacity="1"><g transform="translate(1001.038835, 591.554702)"><g/></g></g><g fill="#4b5563" fill-opacity="1"><g transform="translate(1024.036926, 591.554702)"><g><path d="M 48.109375 -64.40625 L 48.109375 -56.296875 L 29.078125 -56.296875 L 29.078125 0 L 20.609375 0 L 20.609375 -56.296875 L 1.65625 -56.296875 L 1.65625 -64.40625 Z M 48.109375 -64.40625 "/></g></g></g><g fill="#4b5563" fill-opacity="1"><g transform="translate(1073.712751, 591.554702)"><g><path d="M 11.6875 -19.3125 C 12.476562 -15.207031 14.359375 -12.019531 17.328125 -9.75 C 20.304688 -7.476562 23.976562 -6.34375 28.34375 -6.34375 C 34.40625 -6.34375 38.816406 -8.582031 41.578125 -13.0625 L 48.390625 -9.203125 C 43.910156 -2.265625 37.164062 1.203125 28.15625 1.203125 C 20.851562 1.203125 14.914062 -1.082031 10.34375 -5.65625 C 5.78125 -10.226562 3.5 -16.007812 3.5 -23 C 3.5 -29.925781 5.734375 -35.691406 10.203125 -40.296875 C 14.679688 -44.898438 20.476562 -47.203125 27.59375 -47.203125 C 34.34375 -47.203125 39.847656 -44.820312 44.109375 -40.0625 C 48.378906 -35.3125 50.515625 -29.59375 50.515625 -22.90625 C 50.515625 -21.738281 50.421875 -20.539062 50.234375 -19.3125 Z M 27.59375 -39.65625 C 23.300781 -39.65625 19.742188 -38.441406 16.921875 -36.015625 C 14.109375 -33.597656 12.363281 -30.363281 11.6875 -26.3125 L 42.40625 -26.3125 C 41.738281 -30.664062 40.023438 -33.976562 37.265625 -36.25 C 34.503906 -38.519531 31.28125 -39.65625 27.59375 -39.65625 Z M 27.59375 -39.65625 "/></g></g></g><g fill="#4b5563" fill-opacity="1"><g transform="translate(1127.344249, 591.554702)"><g><path d="M 44.15625 -46 L 52.15625 -46 L 52.15625 0 L 44.15625 0 L 44.15625 -7.90625 C 40.175781 -1.832031 34.378906 1.203125 26.765625 1.203125 C 20.328125 1.203125 14.835938 -1.140625 10.296875 -5.828125 C 5.765625 -10.523438 3.5 -16.25 3.5 -23 C 3.5 -29.75 5.765625 -35.46875 10.296875 -40.15625 C 14.835938 -44.851562 20.328125 -47.203125 26.765625 -47.203125 C 34.378906 -47.203125 40.175781 -44.164062 44.15625 -38.09375 Z M 27.78125 -6.53125 C 32.445312 -6.53125 36.34375 -8.109375 39.46875 -11.265625 C 42.59375 -14.429688 44.15625 -18.34375 44.15625 -23 C 44.15625 -27.65625 42.59375 -31.5625 39.46875 -34.71875 C 36.34375 -37.882812 32.445312 -39.46875 27.78125 -39.46875 C 23.1875 -39.46875 19.320312 -37.882812 16.1875 -34.71875 C 13.0625 -31.5625 11.5 -27.65625 11.5 -23 C 11.5 -18.34375 13.0625 -14.429688 16.1875 -11.265625 C 19.320312 -8.109375 23.1875 -6.53125 27.78125 -6.53125 Z M 27.78125 -6.53125 "/></g></g></g><g fill="#4b5563" fill-opacity="1"><g transform="translate(1185.575355, 591.554702)"><g><path d="M 55.75 -47.203125 C 60.90625 -47.203125 65.078125 -45.53125 68.265625 -42.1875 C 71.453125 -38.84375 73.046875 -34.316406 73.046875 -28.609375 L 73.046875 0 L 65.046875 0 L 65.046875 -28.34375 C 65.046875 -31.894531 64.125 -34.648438 62.28125 -36.609375 C 60.445312 -38.578125 57.992188 -39.5625 54.921875 -39.5625 C 51.484375 -39.5625 48.738281 -38.410156 46.6875 -36.109375 C 44.632812 -33.804688 43.609375 -30.296875 43.609375 -25.578125 L 43.609375 0 L 35.609375 0 L 35.609375 -28.34375 C 35.609375 -31.894531 34.734375 -34.648438 32.984375 -36.609375 C 31.234375 -38.578125 28.859375 -39.5625 25.859375 -39.5625 C 22.484375 -39.5625 19.675781 -38.394531 17.4375 -36.0625 C 15.195312 -33.726562 14.078125 -30.234375 14.078125 -25.578125 L 14.078125 0 L 6.078125 0 L 6.078125 -46 L 14.078125 -46 L 14.078125 -39.84375 C 17.203125 -44.75 21.769531 -47.203125 27.78125 -47.203125 C 33.976562 -47.203125 38.488281 -44.59375 41.3125 -39.375 C 44.5 -44.59375 49.3125 -47.203125 55.75 -47.203125 Z M 55.75 -47.203125 "/></g></g></g></svg>