<svg xmlns="http://www.w3.org/2000/svg" xmlns:xlink="http://www.w3.org/1999/xlink" width="1920" zoomAndPan="magnify" viewBox="0 0 1440 809.999993" height="1080" preserveAspectRatio="xMidYMid meet" version="1.0"><defs><g/><clipPath id="24756ed7af"><path d="M 0 230.667969 L 381 230.667969 L 381 578 L 0 578 Z M 0 230.667969 " clip-rule="nonzero"/></clipPath><clipPath id="1be6046e93"><path d="M 208.695312 449.914062 L 381.054688 449.914062 L 381.054688 584.035156 L 208.695312 584.035156 Z M 208.695312 449.914062 " clip-rule="nonzero"/></clipPath></defs><g clip-path="url(#24756ed7af)"><path fill="#1f2937" d="M 284.066406 479.347656 C 314.816406 522.949219 346.148438 545.992188 381.046875 577.078125 C 300.558594 579.3125 248.671875 561.492188 225.214844 523.527344 C 224.300781 521.953125 223.390625 520.296875 222.476562 518.636719 C 212.363281 498.746094 210.210938 475.203125 232.839844 460.945312 C 260.277344 443.621094 266.242188 454.148438 284.066406 479.347656 Z M 173.574219 398.695312 C 168.515625 398.945312 164.289062 395.050781 164.039062 389.992188 C 163.792969 384.9375 167.6875 380.710938 172.742188 380.460938 C 177.800781 380.210938 182.027344 384.109375 182.277344 389.164062 C 182.523438 394.21875 178.628906 398.449219 173.574219 398.695312 Z M 329.324219 328.738281 C 301.304688 270.714844 241.957031 230.675781 173.15625 230.675781 C 125.496094 230.675781 82.226562 249.992188 50.894531 281.242188 C 19.480469 312.574219 0 355.925781 0 403.917969 C 0 451.828125 19.480469 495.261719 50.894531 526.597656 C 82.226562 557.84375 125.414062 577.160156 173.15625 577.160156 C 186.835938 577.160156 200.097656 575.585938 212.78125 572.601562 C 178.546875 561.410156 143.398438 538.199219 132.375 503.636719 C 125.414062 481.835938 125.992188 453.902344 134.035156 419.75 C 139.007812 398.777344 133.703125 387.089844 112.066406 378.636719 C 130.46875 370.761719 136.6875 372.003906 145.222656 372.253906 C 159.148438 353.023438 189.652344 350.121094 210.542969 361.148438 C 228.03125 370.347656 232.011719 387.421875 238.722656 404.414062 C 249.25 430.859375 261.351562 456.554688 291.359375 433.425781 C 328.824219 404.664062 352.53125 376.894531 329.324219 328.738281 Z M 329.324219 328.738281 " fill-opacity="1" fill-rule="evenodd"/></g><g clip-path="url(#1be6046e93)"><path fill="#ffffff" d="M 208.695312 449.914062 L 381.066406 449.914062 L 381.066406 584.035156 L 208.695312 584.035156 Z M 208.695312 449.914062 " fill-opacity="1" fill-rule="nonzero"/></g><g fill="#1f2937" fill-opacity="1"><g transform="translate(381.05404, 497.351918)"><g><path d="M 113.8125 -124.03125 L 76.53125 -124.03125 L 76.53125 -55.421875 C 76.53125 -49.703125 77.957031 -45.519531 80.8125 -42.875 C 83.675781 -40.238281 87.851562 -38.753906 93.34375 -38.421875 C 98.84375 -38.097656 105.664062 -38.15625 113.8125 -38.59375 L 113.8125 0 C 84.5625 3.300781 63.941406 0.554688 51.953125 -8.234375 C 39.972656 -17.035156 33.984375 -32.765625 33.984375 -55.421875 L 33.984375 -124.03125 L 5.28125 -124.03125 L 5.28125 -164.9375 L 33.984375 -164.9375 L 33.984375 -198.25 L 76.53125 -211.125 L 76.53125 -164.9375 L 113.8125 -164.9375 Z M 113.8125 -124.03125 "/></g></g></g><g fill="#1f2937" fill-opacity="1"><g transform="translate(482.326602, 497.351918)"><g><path d="M 159.984375 -20.609375 C 143.054688 -3.785156 122.382812 4.625 97.96875 4.625 C 73.5625 4.625 52.945312 -3.785156 36.125 -20.609375 C 19.300781 -37.441406 10.890625 -58.0625 10.890625 -82.46875 C 10.890625 -106.875 19.300781 -127.488281 36.125 -144.3125 C 52.945312 -161.144531 73.5625 -169.5625 97.96875 -169.5625 C 122.382812 -169.5625 143.054688 -161.144531 159.984375 -144.3125 C 176.921875 -127.488281 185.390625 -106.875 185.390625 -82.46875 C 185.390625 -58.0625 176.921875 -37.441406 159.984375 -20.609375 Z M 66.140625 -49.8125 C 74.609375 -41.238281 85.21875 -36.953125 97.96875 -36.953125 C 110.726562 -36.953125 121.394531 -41.238281 129.96875 -49.8125 C 138.539062 -58.382812 142.828125 -69.269531 142.828125 -82.46875 C 142.828125 -95.664062 138.539062 -106.550781 129.96875 -115.125 C 121.394531 -123.695312 110.726562 -127.984375 97.96875 -127.984375 C 85.21875 -127.984375 74.609375 -123.695312 66.140625 -115.125 C 57.671875 -106.550781 53.4375 -95.664062 53.4375 -82.46875 C 53.4375 -69.269531 57.671875 -58.382812 66.140625 -49.8125 Z M 66.140625 -49.8125 "/></g></g></g><g fill="#1f2937" fill-opacity="1"><g transform="translate(652.543954, 497.351918)"><g><path d="M 159.984375 -20.609375 C 143.054688 -3.785156 122.382812 4.625 97.96875 4.625 C 73.5625 4.625 52.945312 -3.785156 36.125 -20.609375 C 19.300781 -37.441406 10.890625 -58.0625 10.890625 -82.46875 C 10.890625 -106.875 19.300781 -127.488281 36.125 -144.3125 C 52.945312 -161.144531 73.5625 -169.5625 97.96875 -169.5625 C 122.382812 -169.5625 143.054688 -161.144531 159.984375 -144.3125 C 176.921875 -127.488281 185.390625 -106.875 185.390625 -82.46875 C 185.390625 -58.0625 176.921875 -37.441406 159.984375 -20.609375 Z M 66.140625 -49.8125 C 74.609375 -41.238281 85.21875 -36.953125 97.96875 -36.953125 C 110.726562 -36.953125 121.394531 -41.238281 129.96875 -49.8125 C 138.539062 -58.382812 142.828125 -69.269531 142.828125 -82.46875 C 142.828125 -95.664062 138.539062 -106.550781 129.96875 -115.125 C 121.394531 -123.695312 110.726562 -127.984375 97.96875 -127.984375 C 85.21875 -127.984375 74.609375 -123.695312 66.140625 -115.125 C 57.671875 -106.550781 53.4375 -95.664062 53.4375 -82.46875 C 53.4375 -69.269531 57.671875 -58.382812 66.140625 -49.8125 Z M 66.140625 -49.8125 "/></g></g></g><g fill="#1f2937" fill-opacity="1"><g transform="translate(822.761305, 497.351918)"><g><path d="M 19.46875 0 L 19.46875 -240.8125 L 62.015625 -240.8125 L 62.015625 0 Z M 19.46875 0 "/></g></g></g><g fill="#1f2937" fill-opacity="1"><g transform="translate(878.510509, 497.351918)"><g><path d="M 115.453125 -169.5625 C 137.671875 -169.5625 156.640625 -161.144531 172.359375 -144.3125 C 188.085938 -127.488281 195.953125 -106.875 195.953125 -82.46875 C 195.953125 -58.0625 188.085938 -37.441406 172.359375 -20.609375 C 156.640625 -3.785156 137.671875 4.625 115.453125 4.625 C 92.359375 4.625 74.546875 -3.40625 62.015625 -19.46875 L 62.015625 0 L 19.46875 0 L 19.46875 -230.90625 L 62.015625 -230.90625 L 62.015625 -145.46875 C 74.546875 -161.53125 92.359375 -169.5625 115.453125 -169.5625 Z M 74.875 -48.984375 C 83.457031 -40.296875 94.34375 -35.953125 107.53125 -35.953125 C 120.726562 -35.953125 131.671875 -40.296875 140.359375 -48.984375 C 149.046875 -57.671875 153.390625 -68.832031 153.390625 -82.46875 C 153.390625 -96.101562 149.046875 -107.265625 140.359375 -115.953125 C 131.671875 -124.640625 120.726562 -128.984375 107.53125 -128.984375 C 94.34375 -128.984375 83.457031 -124.640625 74.875 -115.953125 C 66.300781 -107.265625 62.015625 -96.101562 62.015625 -82.46875 C 62.015625 -68.832031 66.300781 -57.671875 74.875 -48.984375 Z M 74.875 -48.984375 "/></g></g></g><g fill="#1f2937" fill-opacity="1"><g transform="translate(1059.284072, 497.351918)"><g><path d="M 40.578125 -184.734375 C 33.535156 -184.734375 27.429688 -187.316406 22.265625 -192.484375 C 17.097656 -197.648438 14.515625 -203.75 14.515625 -210.78125 C 14.515625 -217.820312 17.097656 -223.984375 22.265625 -229.265625 C 27.429688 -234.546875 33.535156 -237.1875 40.578125 -237.1875 C 47.828125 -237.1875 54.035156 -234.546875 59.203125 -229.265625 C 64.378906 -223.984375 66.96875 -217.820312 66.96875 -210.78125 C 66.96875 -203.75 64.378906 -197.648438 59.203125 -192.484375 C 54.035156 -187.316406 47.828125 -184.734375 40.578125 -184.734375 Z M 19.46875 0 L 19.46875 -164.9375 L 62.015625 -164.9375 L 62.015625 0 Z M 19.46875 0 "/></g></g></g><g fill="#1f2937" fill-opacity="1"><g transform="translate(1115.033275, 497.351918)"><g><path d="M 62.015625 -136.5625 C 65.972656 -147.125 72.515625 -155.039062 81.640625 -160.3125 C 90.765625 -165.59375 100.9375 -168.234375 112.15625 -168.234375 L 112.15625 -120.734375 C 99.175781 -122.273438 87.570312 -119.632812 77.34375 -112.8125 C 67.125 -106 62.015625 -94.675781 62.015625 -78.84375 L 62.015625 0 L 19.46875 0 L 19.46875 -164.9375 L 62.015625 -164.9375 Z M 62.015625 -136.5625 "/></g></g></g><g fill="#1f2937" fill-opacity="1"><g transform="translate(1206.739356, 497.351918)"><g><path d="M 144.484375 -230.90625 L 187.046875 -230.90625 L 187.046875 0 L 144.484375 0 L 144.484375 -19.46875 C 131.953125 -3.40625 114.140625 4.625 91.046875 4.625 C 68.835938 4.625 49.867188 -3.785156 34.140625 -20.609375 C 18.421875 -37.441406 10.5625 -58.0625 10.5625 -82.46875 C 10.5625 -106.875 18.421875 -127.488281 34.140625 -144.3125 C 49.867188 -161.144531 68.835938 -169.5625 91.046875 -169.5625 C 114.140625 -169.5625 131.953125 -161.53125 144.484375 -145.46875 Z M 66.140625 -48.984375 C 74.828125 -40.296875 85.765625 -35.953125 98.953125 -35.953125 C 112.148438 -35.953125 123.035156 -40.296875 131.609375 -48.984375 C 140.191406 -57.671875 144.484375 -68.832031 144.484375 -82.46875 C 144.484375 -96.101562 140.191406 -107.265625 131.609375 -115.953125 C 123.035156 -124.640625 112.148438 -128.984375 98.953125 -128.984375 C 85.765625 -128.984375 74.828125 -124.640625 66.140625 -115.953125 C 57.453125 -107.265625 53.109375 -96.101562 53.109375 -82.46875 C 53.109375 -68.832031 57.453125 -57.671875 66.140625 -48.984375 Z M 66.140625 -48.984375 "/></g></g></g></svg>