<svg width="577" height="247" viewBox="0 0 577 247" fill="none" xmlns="http://www.w3.org/2000/svg">
<g clip-path="url(#clip0_1653_1409)">
<path d="M516.831 74.4911C517.09 70.6543 520.343 66.2248 526.242 66.2248C532.746 66.2248 535.484 70.3168 535.652 74.4911H516.831ZM526.073 57.0158C515.291 57.0158 505.362 65.7143 505.362 79.0976C505.362 93.2507 515.547 101.517 527.098 101.517C537.451 101.517 544.125 95.4655 546.265 88.2202L536.768 85.4085C535.397 89.1588 532.491 91.8017 527.185 91.8017C521.536 91.8017 516.831 87.792 516.576 82.251H546.693L546.866 78.7559C546.866 65.2862 539.078 57.0158 526.073 57.0158Z" fill="#151C24"/>
<mask id="mask0_1653_1409" style="mask-type:luminance" maskUnits="userSpaceOnUse" x="0" y="0" width="303" height="175">
<path d="M0 0H302.509V174.209H0V0Z" fill="white"/>
</mask>
<g mask="url(#mask0_1653_1409)">
<path d="M270.054 150.048C270.161 142.046 275.961 136.043 283.63 136.043C291.95 136.043 297.141 141.403 297.232 150.048H270.054ZM302.444 153.741L302.505 151.23C302.505 139.353 295.058 131.676 283.54 131.676C274.17 131.676 264.476 139.58 264.476 152.811C264.476 167.515 274.911 174.209 284.614 174.209C292.559 174.209 299.023 170.142 301.9 163.325L301.995 163.098L297.602 161.583L297.52 161.773C295.182 167.046 290.723 169.833 284.618 169.833C275.866 169.833 269.959 163.46 269.864 153.951H302.435L302.448 153.733L302.444 153.741ZM61.2398 0L-0.090332 106.276V129.547L74.6683 0H61.2398Z" fill="#151C24"/>
</g>
<path d="M236.675 91.1595V74.8863H241.998C246.51 74.8863 248.404 75.2444 250.297 76.323C252.553 77.6692 253.727 79.921 253.727 83.1526C253.727 86.026 252.734 88.1872 250.746 89.5334C248.943 90.7931 246.959 91.1554 242.719 91.1554L236.675 91.1595ZM236.675 49.6347H241.006C244.526 49.6347 247.049 49.9928 248.766 50.8038C250.931 51.8824 252.372 54.4882 252.372 57.5428C252.372 63.1167 248.943 65.7226 241.636 65.7226H236.675V49.6347ZM259.955 97.3674C263.833 94.7574 266.18 89.8174 266.18 84.2476C266.18 79.6616 264.644 75.9772 261.849 73.4578C259.955 71.7494 258.329 71.0331 254.719 70.2221C257.967 69.1435 259.317 68.3367 261.038 66.6283C263.565 63.9318 264.825 60.515 264.825 56.3819C264.825 51.0796 262.746 46.4936 259.049 43.7108C255.892 41.3766 251.113 40.2939 243.715 40.2939H224.317V100.241H246.514C253.101 100.241 256.798 99.434 259.955 97.3674ZM574.983 57.1846C572.455 57.1846 570.022 57.905 568.215 59.1606C566.503 60.4162 565.683 61.68 564.514 64.7346V58.6213H553.054V100.237H564.514V80.1927C564.514 76.2366 564.877 74.4417 566.227 72.5563C567.853 70.218 570.739 68.7813 573.9 68.7813L576.333 68.9624V57.2793C575.703 57.1887 575.251 57.1887 574.979 57.1887M427.051 138.97V132.425H422.164V173.513H427.051V152.086C427.051 146.29 428.08 143.116 430.982 139.963C433.098 137.69 435.696 136.591 439.154 136.5H440.887V131.721H438.886C435.778 131.721 432.645 132.73 430.496 134.426C428.977 135.685 428.117 136.793 427.051 138.97Z" fill="#151C24"/>
<path d="M450.862 75.5202C450.862 69.7693 453.114 66.8011 457.444 66.8011C461.594 66.8011 463.764 69.7693 463.764 75.5202V100.241H475.224V75.1621C475.224 69.8598 477.661 66.8011 481.902 66.8011C486.232 66.8011 488.303 69.4976 488.303 75.1621V100.241H499.76V73.0091C499.76 66.7188 498.949 63.8413 496.421 61.0543C494.075 58.539 490.555 57.1887 486.315 57.1887C480.362 57.1887 476.48 59.35 473.681 64.113C471.696 59.6176 467.728 57.1887 462.314 57.1887C456.992 57.1887 453.472 59.2594 450.858 63.8371V58.6213H439.397V100.237H450.858V75.5161" fill="#151C24"/>
<mask id="mask1_1653_1409" style="mask-type:luminance" maskUnits="userSpaceOnUse" x="0" y="0" width="434" height="247">
<path d="M0 0H433.794V246.296H0V0Z" fill="white"/>
</mask>
<g mask="url(#mask1_1653_1409)">
<path d="M413.174 66.2207C419.678 66.2207 422.416 70.3127 422.584 74.487H403.763C404.022 70.6502 407.27 66.2207 413.174 66.2207ZM414.026 101.513C424.379 101.513 431.052 95.4614 433.193 88.2161L423.696 85.4044C422.325 89.1547 419.419 91.7976 414.112 91.7976C408.464 91.7976 403.759 87.7879 403.504 82.2469H433.625L433.794 78.7518C433.794 65.2821 426.005 57.0117 413.001 57.0117C402.219 57.0117 392.294 65.7102 392.294 79.0935C392.294 93.2466 402.474 101.513 414.026 101.513ZM129.194 0L-0.090332 223.095V246.292L129.194 23.1974L156.438 70.2098L54.5255 246.288H67.9664L129.214 140.461L156.438 187.436L122.45 246.288H135.883L169.879 187.428L135.933 128.856L169.879 70.2098L129.194 0Z" fill="#151C24"/>
</g>
<path d="M333.998 93.226C330.659 93.226 329.037 91.6082 328.494 88.0143H317.486C317.934 96.6429 323.978 101.673 333.903 101.673C343.643 101.673 350.143 96.2806 350.143 88.1913C350.143 81.4524 346.442 77.7638 337.06 74.8863C331.285 73.0914 331.194 73.0914 329.93 72.0993C329.21 71.56 328.757 70.4814 328.757 69.4029C328.757 67.1552 330.56 65.632 333.355 65.632C336.422 65.632 338.682 67.4269 338.682 69.9463V70.6667H349.509C349.237 62.2152 343.466 57.1846 333.899 57.1846C324.159 57.1846 317.749 62.4869 317.749 70.395C317.749 76.9611 321.808 80.9995 330.832 83.7001C336.966 85.5855 338.592 86.7587 338.592 89.274C338.592 91.6082 336.702 93.226 333.998 93.226ZM371.793 93.2301C368.454 93.2301 366.832 91.6123 366.289 88.0184H355.281C355.729 96.647 361.773 101.678 371.698 101.678C381.438 101.678 387.938 96.2847 387.938 88.1955C387.938 81.4565 384.237 77.7679 374.855 74.8904C369.08 73.0955 368.989 73.0955 367.725 72.1034C367.005 71.5641 366.552 70.4856 366.552 69.407C366.552 67.1593 368.355 65.6361 371.15 65.6361C374.217 65.6361 376.473 67.431 376.473 69.9504V70.6708H387.3C387.033 62.2193 381.257 57.1887 371.69 57.1887C361.95 57.1887 355.54 62.491 355.54 70.3991C355.54 76.9652 359.599 81.0036 368.623 83.7042C374.757 85.5896 376.383 86.7629 376.383 89.2781C376.383 91.6123 374.489 93.2301 371.784 93.2301M463.376 207.212C461.857 208.472 460.997 209.579 459.935 211.757V205.216H455.052V246.304H459.935V224.877C459.935 219.081 460.964 215.907 463.866 212.753C465.978 210.477 468.575 209.378 472.033 209.291H473.771V204.512H471.77C468.662 204.512 465.525 205.52 463.376 207.212ZM371.616 173.221V169.273L371.455 169.014L371.155 169.117C369.516 169.681 367.795 169.965 366.066 169.961C362.279 169.961 360.274 167.585 360.274 163.094V136.657H371.064V132.421H360.274V122.561H355.396V132.421H349.328V136.653H355.396V163.399C355.396 170.253 359.2 174.184 365.828 174.184C368.503 174.184 370.134 173.74 371.463 173.275L371.611 173.217M359.665 241.899C358.029 242.462 356.311 242.747 354.581 242.743C350.794 242.743 348.789 240.368 348.789 235.873V209.435H359.578V205.208H348.789V195.336H343.91V205.195H337.842V209.423H343.91V236.169C343.91 243.023 347.714 246.955 354.346 246.955C356.265 246.996 358.171 246.687 359.978 246.045L360.126 245.991V242.044L359.961 241.784L359.661 241.883M387.786 204.495C385.109 204.457 382.457 205.011 380.019 206.117C377.582 207.224 375.419 208.856 373.686 210.897V205.195H368.8V246.284H373.686V221.147C373.686 217.294 374.468 215.248 376.906 212.733C379.244 210.316 381.718 208.814 386.79 208.814L387.576 208.826C392.359 208.97 397.464 211.901 397.439 219.727V246.28H402.33V219.595C402.437 215.075 401.161 211.424 398.534 208.748C395.908 206.072 391.898 204.487 387.782 204.487M413.198 132.404H408.332V157.405C408.332 161.592 407.657 163.893 405.85 165.898C403.759 168.178 400.181 169.652 396.731 169.652C389.795 169.652 385.139 164.733 385.139 157.409L385.143 132.408H380.265V157.409C380.265 167.458 386.921 174.209 396.834 174.209C401.433 174.209 405.747 172.501 408.966 169.397C412.095 166.474 413.198 163.337 413.198 157.409V132.408M338.703 173.493H343.589V146.804C343.696 142.284 342.42 138.633 339.798 135.957C337.176 133.281 333.166 131.696 329.045 131.696C323.455 131.696 318.589 133.907 314.946 138.102V132.4H310.063V173.489H314.946V148.352C314.946 144.499 315.728 142.453 318.165 139.938C320.503 137.521 322.973 136.023 328.049 136.023L328.835 136.035C333.619 136.179 338.728 139.11 338.703 146.936V173.493ZM415.059 222.827C415.166 214.824 420.966 208.822 428.631 208.822C436.951 208.822 442.146 214.182 442.233 222.827H415.059ZM428.541 204.454C419.171 204.454 409.477 212.358 409.477 225.589C409.477 240.294 419.912 246.988 429.611 246.988C437.556 246.988 444.02 242.92 446.901 236.103L446.996 235.881L442.599 234.366L442.513 234.555C440.175 239.829 435.716 242.616 429.611 242.616C420.859 242.616 414.952 236.243 414.857 226.734H447.428L447.44 226.52L447.502 224.008C447.502 212.132 440.059 204.454 428.541 204.454ZM245.147 173.505L266.669 114.633L261.293 114.476L242.97 165.095L225.363 114.637L219.818 114.554L240.763 173.505H245.147ZM254.554 212.572C253.031 214.749 250.82 216.348 248.276 217.113C246.168 217.866 243.805 218.171 240.105 218.171L231.036 218.113V191.878H238.425C242.702 191.878 245.25 192.141 247.832 192.849C253.422 194.438 256.896 199.086 256.896 204.973C256.921 207.686 256.102 210.337 254.554 212.564V212.572ZM255.97 191.668C252.393 188.815 247.263 187.432 240.29 187.432L226.038 187.37L225.976 246.3H231.04L231.101 222.625H241.088C247.84 222.625 252.101 221.543 255.349 219.011C259.457 215.874 261.816 210.732 261.816 204.899C261.816 199.42 259.737 194.722 255.97 191.668ZM462.528 136.052C470.844 136.052 476.039 141.412 476.13 150.057H448.955C449.062 142.054 454.863 136.052 462.528 136.052ZM480.893 163.111L476.496 161.596L476.409 161.785C474.071 167.058 469.613 169.845 463.508 169.845C454.756 169.845 448.848 163.473 448.754 153.963H481.325L481.337 153.745L481.399 151.234C481.399 139.357 473.952 131.68 462.433 131.68C453.064 131.68 443.369 139.584 443.369 152.815C443.369 167.52 453.805 174.213 463.504 174.213C471.449 174.213 477.908 170.146 480.794 163.329L480.888 163.102L480.893 163.106V163.111ZM321.458 207.204C319.935 208.464 319.079 209.571 318.017 211.749V205.208H313.134V246.296H318.021V224.869C318.021 219.068 319.05 215.894 321.952 212.745C324.068 210.469 326.666 209.37 330.124 209.283H331.857V204.504H329.856C326.748 204.504 323.611 205.512 321.47 207.204M493.86 223.148C486.409 221.312 484.371 219.686 484.371 215.594C484.371 211.539 487.718 209.02 493.098 209.02C498.759 209.02 502.007 211.609 502.007 216.125V216.351H507.083L507.07 216.117C506.708 208.847 501.521 204.508 493.185 204.508C485.013 204.508 479.303 209.18 479.303 215.862C479.303 218.805 480.658 221.814 482.836 223.712C484.931 225.622 487.508 226.758 492.333 227.919C499.64 229.648 502.357 231.768 502.357 235.737C502.357 239.833 498.779 242.579 493.452 242.579C487.5 242.579 483.737 239.652 483.391 234.753L483.375 234.539H478.385L478.414 234.79C479.303 242.896 484.305 247.004 493.267 247.004C501.727 247.004 507.412 242.476 507.412 235.733C507.374 232.798 506.209 229.991 504.16 227.89C502.069 225.721 499.372 224.478 493.852 223.148M292.036 66.2207C298.537 66.2207 301.278 70.3127 301.447 74.487H282.621C282.877 70.6502 286.133 66.2207 292.036 66.2207ZM302.559 85.4044C301.188 89.1546 298.277 91.7975 292.975 91.7975C287.327 91.7975 282.622 87.7879 282.366 82.2469H312.484L312.657 78.7518C312.657 65.2821 304.868 57.0117 291.863 57.0117C281.082 57.0117 271.157 65.7102 271.157 79.0935C271.157 93.2466 281.341 101.513 292.893 101.513C303.246 101.513 309.919 95.4614 312.06 88.216L302.559 85.4044ZM283.457 242.402C275.45 242.402 269.407 235.358 269.407 226.021C269.407 221.674 270.716 217.376 273.001 214.227C275.603 210.687 278.908 209.106 283.725 209.106C292.604 209.106 298.569 215.549 298.569 225.132C298.569 234.654 291.789 242.402 283.457 242.402ZM298.479 212.243C294.622 207.035 289.665 204.508 283.367 204.508C272.165 204.508 264.343 213.247 264.343 225.754C264.343 238.071 272.383 247.008 283.461 247.008C289.653 247.008 294.445 244.094 298.483 237.849V246.3H303.37V205.212H298.483L298.479 212.243Z" fill="#151C24"/>
</g>
<defs>
<clipPath id="clip0_1653_1409">
<rect width="576.333" height="247" fill="white"/>
</clipPath>
</defs>
</svg>
