<svg xmlns="http://www.w3.org/2000/svg" id="Layer_1" data-name="Layer 1" viewBox="0 0 1892.5833 366.5388"><defs fill="#000000"><style>.cls-1{fill:#000000}.cls-2{fill:none}.cls-3{fill:#010101}</style></defs><title>sge_logo</title><path class="cls-1" d="M1231.902 294.332a42.037 42.037 0 0 1 15.45 14.985 39.356 39.356 0 0 1 5.713 20.755 39.957 39.957 0 0 1-5.713 20.873 42.969 42.969 0 0 1-73.697 0 39.94 39.94 0 0 1-5.713-20.873 39.34 39.34 0 0 1 5.713-20.755 42.01 42.01 0 0 1 15.45-14.985 44.101 44.101 0 0 1 42.796 0zm-38.54 6.24a34.284 34.284 0 0 0-12.593 12.36 32.816 32.816 0 0 0-4.665 17.14 33.42 33.42 0 0 0 4.665 17.259 34.433 34.433 0 0 0 12.594 12.535 33.742 33.742 0 0 0 17.257 4.606 33.227 33.227 0 0 0 17.084-4.606 34.595 34.595 0 0 0 12.535-12.535 33.444 33.444 0 0 0 4.664-17.259 32.839 32.839 0 0 0-4.664-17.14 34.443 34.443 0 0 0-12.535-12.36 33.565 33.565 0 0 0-17.084-4.549 34.087 34.087 0 0 0-17.257 4.548z" transform="translate(-8.615 -5.463)" fill="#000000"/><path class="cls-2" d="M597.27 92.607c0-24.827-9.932-38.978-29.546-38.978-19.861 0-29.792 14.151-29.792 38.978 0 22.894 8.45 37.331 25.336 39.444q5.365-.151 10.755-.298c15.436-2.941 23.247-17.136 23.247-39.146z" transform="translate(-8.615 -5.463)" fill="#000000"/><path class="cls-2" d="M1795.258 52.138l-14.151 51.641h28.304l-14.153-51.641zM1235.898 103.779h28.304l-14.153-51.641-14.151 51.641z" fill="#000000"/><path class="cls-3" d="M1712.758 158.846v-.103l-.037.105z" transform="translate(-8.615 -5.463)" fill="#000000"/><path class="cls-1" d="M311.933 331.122h7.113v29.852a45.048 45.048 0 0 1-13.818 7.87 46.64 46.64 0 0 1-16.033 2.858 42.553 42.553 0 0 1-36.732-20.757 39.94 39.94 0 0 1-5.713-20.872 39.34 39.34 0 0 1 5.713-20.756 41.75 41.75 0 0 1 15.567-14.985 43.174 43.174 0 0 1 21.515-5.538 45.232 45.232 0 0 1 16.033 2.915 43.809 43.809 0 0 1 13.701 8.162l-4.664 5.714a35.473 35.473 0 0 0-11.544-7.172 37.447 37.447 0 0 0-13.526-2.507 33.98 33.98 0 0 0-17.375 4.607 34.75 34.75 0 0 0-12.594 12.418 32.816 32.816 0 0 0-4.664 17.142 33.33 33.33 0 0 0 4.664 17.316 34.805 34.805 0 0 0 30.085 17.083 36.48 36.48 0 0 0 11.603-1.924 39.992 39.992 0 0 0 10.669-5.423zM430.289 371.002l-17.608-26.587q-3.733.235-5.713.234h-22.39v26.353h-8.045v-81.51h30.435q15.274 0 23.613 7.056 8.335 7.057 8.337 19.998 0 10.144-4.898 16.908a25.544 25.544 0 0 1-13.993 9.445l19.59 28.103zm-23.321-33.583q11.658 0 17.957-5.306 6.297-5.304 6.297-15.334 0-9.795-6.297-14.925t-17.957-5.131h-22.39v40.696zM550.686 294.332a42.038 42.038 0 0 1 15.45 14.985 39.357 39.357 0 0 1 5.714 20.755 39.958 39.958 0 0 1-5.714 20.873 42.969 42.969 0 0 1-73.696 0 39.94 39.94 0 0 1-5.714-20.873 39.34 39.34 0 0 1 5.714-20.755 42.01 42.01 0 0 1 15.45-14.985 44.101 44.101 0 0 1 42.795 0zm-38.54 6.24a34.284 34.284 0 0 0-12.593 12.36 32.816 32.816 0 0 0-4.664 17.14 33.42 33.42 0 0 0 4.664 17.259 34.433 34.433 0 0 0 12.594 12.535 33.742 33.742 0 0 0 17.257 4.606 33.226 33.226 0 0 0 17.084-4.606 34.594 34.594 0 0 0 12.535-12.535 33.444 33.444 0 0 0 4.665-17.259 32.839 32.839 0 0 0-4.665-17.14 34.442 34.442 0 0 0-12.535-12.36 33.565 33.565 0 0 0-17.084-4.549 34.087 34.087 0 0 0-17.257 4.548zM719.826 289.376h8.513l-27.636 81.626h-8.396l-22.972-71.48-23.205 71.48h-8.279l-27.52-81.626h8.746l23.205 73.114 23.088-73.113h8.163l23.205 73.113zM764.136 289.376h61.919v7.347h-26.937v74.279h-8.046v-74.28h-26.936zM873.98 289.493h8.046v37.315h50.958v-37.315h8.046v81.509h-8.046v-36.964h-50.958v36.964h-8.045zM1066.382 289.493h54.573v7.23h-46.527v29.152h41.63v7.23h-41.63v30.668h48.042v7.23h-56.087zM1319.245 357.475q6.821 6.997 18.949 6.997 12.126 0 18.89-6.997 6.762-6.996 6.763-19.59v-48.509h8.047v48.51q0 15.86-8.92 24.837-8.922 8.98-24.78 8.979-15.86 0-24.838-8.98-8.98-8.977-8.978-24.837v-48.509h8.045v48.51q0 12.593 6.822 19.59zM1429.497 289.493h8.046v81.509h-8.045zM1485.468 289.376h61.918v7.347h-26.936v74.279h-8.046v-74.28h-26.936zM1654.315 289.493l-31.367 52.474v29.035h-8.047v-29.035l-31.833-52.474h8.396l27.519 43.845 26.936-43.845z" transform="translate(-8.615 -5.463)" fill="#000000"/><path class="cls-1" transform="rotate(-45 1226.11 363.433)" d="M1232.99 336.826h8.046v37.878h-8.046z" fill="#000000"/><path class="cls-2" d="M1250.049 52.138l-14.151 51.641h28.304l-14.153-51.641zM1795.258 52.138l-14.151 51.641h28.304l-14.153-51.641z" fill="#000000"/><path class="cls-2" d="M563.268 132.051a35.787 35.787 0 0 0 4.457.28 33.56 33.56 0 0 0 6.298-.578c11.662-2.222 18.965-10.876 21.842-24.463a71.11 71.11 0 0 0 1.405-14.683c0-24.827-9.932-38.978-29.546-38.978-19.861 0-29.792 14.151-29.792 38.978a70.672 70.672 0 0 0 1.435 14.754c3.051 14.26 11.01 23.077 23.901 24.69z" transform="translate(-8.615 -5.463)" fill="#000000"/><path class="cls-1" d="M1712.758 158.743l-.037.105.037-.002z" transform="translate(-8.615 -5.463)" fill="#000000"/><path class="cls-2" d="M1712.758 158.846v-.103l-.037.105zM595.865 107.29c.116-.55.204-1.13.306-1.696a73.064 73.064 0 0 0 1.1-12.986c0-10.862-1.902-19.68-5.683-26.165q-.405-.694-.839-1.353a26.294 26.294 0 0 0-2.862-3.626 24.028 24.028 0 0 0-2.195-2.048 23.461 23.461 0 0 0-2.424-1.747 24.288 24.288 0 0 0-4.064-2.045 31.258 31.258 0 0 0-11.48-1.995 30.885 30.885 0 0 0-13.033 2.599 24.057 24.057 0 0 0-9.31 7.58c-4.965 6.641-7.448 16.386-7.448 28.8a71.149 71.149 0 0 0 1.338 14.227c.035.172.06.356.096.526a48.008 48.008 0 0 0 1.336 4.959c3.729 11.338 11.243 18.315 22.566 19.732a35.802 35.802 0 0 0 4.456.28 33.555 33.555 0 0 0 6.298-.579c10.368-1.975 17.281-9.044 20.712-20.132a48.905 48.905 0 0 0 1.13-4.331z" transform="translate(-8.615 -5.463)" fill="#000000"/><path class="cls-2" d="M1235.898 103.779h28.304l-14.153-51.641-14.151 51.641zM1795.258 52.138l-14.151 51.641h28.304l-8.961-32.697-5.192-18.944z" fill="#000000"/><path class="cls-1" d="M470.466 108.466c-9.873-46.595-79.014-40.56-79.014-51.858 0-4.965 5.463-6.207 13.904-6.207 19.614 0 38.73 4.966 49.655 9.931l10.179-45.186a230.203 230.203 0 0 0-64.304-9.683c-42.703 0-71.254 20.359-71.503 57.849-.22 28.141 15.234 41.822 32.524 49.414a119.042 119.042 0 0 0 17.974 6.021c15.45 4.006 28.454 5.336 28.454 10.358 0 3.475-3.228 6.206-13.904 6.206-23.835 0-39.475-5.959-55.365-13.654l-4.178 18.648-.1.45-5.901 26.336c18.868 7.448 39.724 12.661 69.765 12.661 37.848 0 64.38-13.495 71.227-43.253.11-.477.229-.947.329-1.433a74.036 74.036 0 0 0 1.437-14.9c0-2.05-.102-4.014-.29-5.904a53.508 53.508 0 0 0-.89-5.796zM1463.739 94.346L1414.332 8.69h-64.552v150.124l-2.846-8.12-1.33-3.79-3.55-10.127-44.906-128.087h-77.215l-43.43 124.4-1.364 3.908-.804 2.304-6.784 19.433V8.69h-64.302v60.33h-41.712V8.692h-64.302v167.834h64.302v-62.317h41.711v62.317h123.14l4.036-15.199 3.413-12.856h49.654l3.571 13.014 4.127 15.04h117.929v-86.15l14.225 23.283 14.225 23.284 7.22 11.816 5.587 9.146 1.35 2.21 10.027 16.412h61.325V8.69h-59.338zm-219.226 14.896l14.152-51.641 14.152 51.641zM71.181 56.608c0-4.965 5.462-6.207 13.904-6.207 19.614 0 38.73 4.966 49.655 9.931l10.179-45.186a230.202 230.202 0 0 0-64.304-9.683c-42.703 0-71.254 20.359-71.503 57.849-.497 63.558 78.952 53.378 78.952 65.793 0 3.475-3.228 6.206-13.904 6.206-23.835 0-39.476-5.959-55.365-13.654l-7.923 35.363-.776 3.463-1.41 6.29-.07.318c.117.046.237.09.355.137 18.776 7.374 39.556 12.525 69.41 12.525 30.038 0 52.914-8.532 64.52-26.913.335-.532.696-1.041 1.012-1.59a50.893 50.893 0 0 0 4.26-9.634 61.258 61.258 0 0 0 2.281-9.517 76.097 76.097 0 0 0 .921-11.932c0-59.339-80.194-51.394-80.194-63.559zM255.4 109.491a37.957 37.957 0 0 1-1.303 11.01c-1.511 4.886-4.627 8.391-10.725 9.481a23.446 23.446 0 0 1-3.155.33c-.394.016-.788.033-1.203.033-7.471 0-11.583-2.687-13.789-7.062-1.825-3.622-2.349-8.395-2.349-13.792V8.691h-64.8v101.544a90.29 90.29 0 0 0 2.23 20.556 69.202 69.202 0 0 0 2.663 8.78 57.655 57.655 0 0 0 5.002 10.196c.191.306.41.588.608.89 12.89 19.743 37.196 29.096 70.435 29.096 37.91 0 64.377-12.132 75.42-38.016.071-.167.132-.342.202-.51a71.609 71.609 0 0 0 4.742-18.215c.328-2.49.566-5.06.693-7.723.08-1.654.13-3.333.13-5.054V8.691H255.4zM770.8 191.935a510.458 510.458 0 0 0-137.628-32.618 75.947 75.947 0 0 0 18.255-21.492 78.938 78.938 0 0 0 3.982-7.98 86.41 86.41 0 0 0 5.447-18.155c.223-1.19.432-2.389.612-3.605a104.04 104.04 0 0 0 1.098-15.229c0-54.372-38.482-87.393-94.841-87.393-56.607 0-95.09 33.02-95.09 87.393a103.947 103.947 0 0 0 1.163 15.53 95.107 95.107 0 0 0 1.063 5.751 83.355 83.355 0 0 0 7.175 20.504c.297.583.636 1.133.947 1.705a76.71 76.71 0 0 0 22.785 25.76 85.343 85.343 0 0 0 14.032 8.181c28.775.833 52.461 2.564 75.284 5.774 55.374 7.79 105.713 24.284 211.591 57.78 173.487 54.885 255.128-17.25 255.128-17.25S930.68 254.661 770.8 191.935zm-174.628-86.341c-.103.565-.19 1.146-.307 1.696a48.905 48.905 0 0 1-1.13 4.33c-3.43 11.089-10.344 18.157-20.712 20.133a33.555 33.555 0 0 1-6.298.578 35.802 35.802 0 0 1-4.456-.28c-11.323-1.417-18.838-8.393-22.567-19.731a48.008 48.008 0 0 1-1.335-4.959c-.036-.17-.06-.354-.096-.527a71.149 71.149 0 0 1-1.338-14.227c0-12.413 2.482-22.158 7.448-28.8a24.057 24.057 0 0 1 9.31-7.58 30.885 30.885 0 0 1 13.034-2.599 31.258 31.258 0 0 1 11.479 1.996 24.288 24.288 0 0 1 4.064 2.044 23.461 23.461 0 0 1 2.424 1.747 24.028 24.028 0 0 1 2.195 2.049 26.294 26.294 0 0 1 2.862 3.625q.434.659.84 1.354c3.78 6.484 5.681 15.302 5.681 26.164a73.064 73.064 0 0 1-1.098 12.987z" transform="translate(-8.615 -5.463)" fill="#000000"/><path class="cls-1" d="M673.917 138.517a56.344 56.344 0 0 0 10.07 17.527 53.982 53.982 0 0 0 5.359 5.431c20.36 4.307 47.489 10.435 73.877 17.586 21.463-1.768 38.493-8.12 50.164-19.447a54.198 54.198 0 0 0 10.065-13.427c4.454-8.327 7.102-18.278 7.79-29.912.12-2.01.198-4.055.198-6.167V8.615h-64.767v100.75c0 1.531-.047 3.016-.153 4.447-.7 9.465-4.153 16.396-16.225 16.396-12.252 0-15.496-7.208-16.033-17.298a66.419 66.419 0 0 1-.096-3.545V8.615h-64.768v101.493c0 .563.022 1.108.03 1.664a81.763 81.763 0 0 0 4.489 26.745zM984.823 155.8v-26.154l-2.113-.045h-73.362v-15.393h66.04V70.511h-66.04V55.863h75.475V8.691H846.286v167.834h138.537zM1890.395 145.71l-1.357-3.87-5.228-14.911-3.825-10.912-37.628-107.326h-77.215l-41.66 119.334-4.92 14.094-3.874 11.096-1.93 5.528v.103l-.036.002.036-.105V8.691h-59.338v85.654l-49.407-85.654h-64.551v167.834h59.337V90.374l25.926 42.434 8.237 13.483 5.776 9.455 3.4 5.566 9.295 15.213h120.165l5.832-21.97 1.006-3.79.61-2.296h49.655l.041.15.265.966 7.391 26.94h64.8zm-100.673-36.468l14.152-51.641 5.191 18.944 8.961 32.697z" transform="translate(-8.615 -5.463)" fill="#000000"/><path class="cls-1" d="M1235.898 103.779l14.151-51.641-14.151 51.641z" fill="#000000"/><path class="cls-1" d="M567.725 53.629a30.885 30.885 0 0 0-13.034 2.599 30.885 30.885 0 0 1 13.034-2.6zM595.865 107.29c.117-.55.204-1.13.307-1.696-.103.565-.19 1.146-.307 1.696zM539.27 106.835c.036.172.06.356.097.526-.036-.17-.061-.354-.096-.526z" transform="translate(-8.615 -5.463)" fill="#000000"/><path class="cls-1" d="M1590.184 84.911l25.925 42.434-25.925-42.434zM1400.503 84.911l14.225 23.283-14.225-23.283zM1795.258 52.138l5.192 18.944-5.192-18.944z" fill="#000000"/><path class="cls-1" d="M770.8 191.935a510.458 510.458 0 0 0-137.628-32.618c-42.613-2.381-118.394 8.64-113.372 10.97 28.776.833 52.461 2.563 75.285 5.774 55.373 7.789 105.712 24.283 211.59 57.78 173.487 54.885 255.128-17.25 255.128-17.25s-131.122 38.07-291.002-24.656z" transform="translate(-8.615 -5.463)" fill="#000000"/></svg>